ISO-10303-21;
HEADER;
FILE_DESCRIPTION(('KiCad electronic assembly'),'2;1');
FILE_NAME('excerpt.step','',('Pcbnew'),('Kicad'),'Open CASCADE STEP processor','KiCad to STEP converter','Unknown');
FILE_SCHEMA(('AUTOMOTIVE_DESIGN { 1 0 10303 214 1 1 1 1 }'));
ENDSEC;
DATA;
#1 = APPLICATION_PROTOCOL_DEFINITION('international standard',
  'automotive_design',2000,#2);
#2 = APPLICATION_CONTEXT(
  'core data for automotive mechanical design processes');
#3 = SHAPE_DEFINITION_REPRESENTATION(#4,#10);
#4 = PRODUCT_DEFINITION_SHAPE('','',#5);
#5 = PRODUCT_DEFINITION('design','',#6,#9);
#6 = PRODUCT_DEFINITION_FORMATION('','',#7);
#7 = PRODUCT('full 1','full 1','',(#8));
#8 = PRODUCT_CONTEXT('',#2,'mechanical');
#9 = PRODUCT_DEFINITION_CONTEXT('part definition',#2,'design');
#10 = SHAPE_REPRESENTATION('',(#11,#15,#19,#23,#27,#31,#35,#39,#43,#47,
    #51,#55,#59,#63,#67,#71,#75,#79,#83,#87,#91,#95,#99,#103,#107,#111,
    #115,#119,#123,#127,#131,#135,#139,#143,#147,#151,#155,#159,#163,
    #167,#171,#175,#179,#183,#187,#191,#195,#199,#203),#207);
#11 = AXIS2_PLACEMENT_3D('',#12,#13,#14);
#12 = CARTESIAN_POINT('',(0.,0.,0.));
#13 = DIRECTION('',(0.,0.,1.));
#14 = DIRECTION('',(1.,0.,-0.));
#15 = AXIS2_PLACEMENT_3D('',#16,#17,#18);
#16 = CARTESIAN_POINT('',(153.71,-101.81,1.595));
#17 = DIRECTION('',(0.,0.,1.));
#18 = DIRECTION('',(1.,0.,0.));
#19 = AXIS2_PLACEMENT_3D('',#20,#21,#22);
#20 = CARTESIAN_POINT('',(169.7,-112.07,1.595));
#21 = DIRECTION('',(0.,0.,1.));
#22 = DIRECTION('',(-1.,1.224646799147E-16,0.));
#23 = AXIS2_PLACEMENT_3D('',#24,#25,#26);
#24 = CARTESIAN_POINT('',(136.88,-93.958,1.595));
#25 = DIRECTION('',(1.224646799147E-16,1.,1.110223024625E-16));
#26 = DIRECTION('',(-1.,1.224646799147E-16,0.));
#27 = AXIS2_PLACEMENT_3D('',#28,#29,#30);
#28 = CARTESIAN_POINT('',(169.12,-104.98,1.595));
#29 = DIRECTION('',(-0.,0.,1.));
#30 = DIRECTION('',(1.110223024625E-16,-1.,0.));
#31 = AXIS2_PLACEMENT_3D('',#32,#33,#34);
#32 = CARTESIAN_POINT('',(167.45,-111.65,1.595));
#33 = DIRECTION('',(0.,0.,1.));
#34 = DIRECTION('',(1.,0.,0.));
#35 = AXIS2_PLACEMENT_3D('',#36,#37,#38);
#36 = CARTESIAN_POINT('',(140.44,-107.76,1.595));
#37 = DIRECTION('',(-0.,0.,1.));
#38 = DIRECTION('',(1.110223024625E-16,-1.,0.));
#39 = AXIS2_PLACEMENT_3D('',#40,#41,#42);
#40 = CARTESIAN_POINT('',(169.7,-111.13,1.595));
#41 = DIRECTION('',(0.,0.,1.));
#42 = DIRECTION('',(-1.,1.224646799147E-16,0.));
#43 = AXIS2_PLACEMENT_3D('',#44,#45,#46);
#44 = CARTESIAN_POINT('',(142.88,-104.98,1.595));
#45 = DIRECTION('',(0.,-0.,1.));
#46 = DIRECTION('',(1.110223024625E-16,1.,0.));
#47 = AXIS2_PLACEMENT_3D('',#48,#49,#50);
#48 = CARTESIAN_POINT('',(147.58,-104.46,1.595));
#49 = DIRECTION('',(0.,-0.,1.));
#50 = DIRECTION('',(1.110223024625E-16,1.,0.));
#51 = AXIS2_PLACEMENT_3D('',#52,#53,#54);
#52 = CARTESIAN_POINT('',(139.4,-104.57,1.595));
#53 = DIRECTION('',(0.,0.,1.));
#54 = DIRECTION('',(1.,0.,0.));
#55 = AXIS2_PLACEMENT_3D('',#56,#57,#58);
#56 = CARTESIAN_POINT('',(127.103416,-100.845058,1.595));
#57 = DIRECTION('',(0.,-0.,1.));
#58 = DIRECTION('',(1.110223024625E-16,1.,0.));
#59 = AXIS2_PLACEMENT_3D('',#60,#61,#62);
#60 = CARTESIAN_POINT('',(158.06,-102.94,1.595));
#61 = DIRECTION('',(0.,-0.,1.));
#62 = DIRECTION('',(1.110223024625E-16,1.,0.));
#63 = AXIS2_PLACEMENT_3D('',#64,#65,#66);
#64 = CARTESIAN_POINT('',(140.44,-110.53,1.595));
#65 = DIRECTION('',(-0.,0.,1.));
#66 = DIRECTION('',(1.110223024625E-16,-1.,0.));
#67 = AXIS2_PLACEMENT_3D('',#68,#69,#70);
#68 = CARTESIAN_POINT('',(151.14,-105.69,1.595));
#69 = DIRECTION('',(-0.,0.,1.));
#70 = DIRECTION('',(1.110223024625E-16,-1.,0.));
#71 = AXIS2_PLACEMENT_3D('',#72,#73,#74);
#72 = CARTESIAN_POINT('',(121.36,-104.98,1.595));
#73 = DIRECTION('',(-0.,0.,1.));
#74 = DIRECTION('',(1.110223024625E-16,-1.,0.));
#75 = AXIS2_PLACEMENT_3D('',#76,#77,#78);
#76 = CARTESIAN_POINT('',(129.93,-109.3,1.595));
#77 = DIRECTION('',(-0.,0.,1.));
#78 = DIRECTION('',(1.110223024625E-16,-1.,0.));
#79 = AXIS2_PLACEMENT_3D('',#80,#81,#82);
#80 = CARTESIAN_POINT('',(159.46,-106.53,1.595));
#81 = DIRECTION('',(-0.,0.,1.));
#82 = DIRECTION('',(1.110223024625E-16,-1.,0.));
#83 = AXIS2_PLACEMENT_3D('',#84,#85,#86);
#84 = CARTESIAN_POINT('',(148.58,-98.82,1.595));
#85 = DIRECTION('',(0.,-0.,1.));
#86 = DIRECTION('',(1.110223024625E-16,1.,0.));
#87 = AXIS2_PLACEMENT_3D('',#88,#89,#90);
#88 = CARTESIAN_POINT('',(131.69,-110.2,1.595));
#89 = DIRECTION('',(-1.,-1.110223024625E-16,1.110223024625E-16));
#90 = DIRECTION('',(1.110223024625E-16,-1.,0.));
#91 = AXIS2_PLACEMENT_3D('',#92,#93,#94);
#92 = CARTESIAN_POINT('',(133.96,-111.71,1.595));
#93 = DIRECTION('',(0.,0.,1.));
#94 = DIRECTION('',(-1.,1.224646799147E-16,0.));
#95 = AXIS2_PLACEMENT_3D('',#96,#97,#98);
#96 = CARTESIAN_POINT('',(132.78,-106.78,1.595));
#97 = DIRECTION('',(0.,0.,1.));
#98 = DIRECTION('',(-1.,1.224646799147E-16,0.));
#99 = AXIS2_PLACEMENT_3D('',#100,#101,#102);
#100 = CARTESIAN_POINT('',(160.26,-100.39,1.595));
#101 = DIRECTION('',(0.,-0.,1.));
#102 = DIRECTION('',(1.110223024625E-16,1.,0.));
#103 = AXIS2_PLACEMENT_3D('',#104,#105,#106);
#104 = CARTESIAN_POINT('',(144.88,-98.82,1.595));
#105 = DIRECTION('',(0.,-0.,1.));
#106 = DIRECTION('',(1.110223024625E-16,1.,0.));
#107 = AXIS2_PLACEMENT_3D('',#108,#109,#110);
#108 = CARTESIAN_POINT('',(143.11,-107.52,1.595));
#109 = DIRECTION('',(-0.,0.,1.));
#110 = DIRECTION('',(1.110223024625E-16,-1.,0.));
#111 = AXIS2_PLACEMENT_3D('',#112,#113,#114);
#112 = CARTESIAN_POINT('',(164.85,-111.65,1.595));
#113 = DIRECTION('',(0.,0.,1.));
#114 = DIRECTION('',(-1.,1.224646799147E-16,0.));
#115 = AXIS2_PLACEMENT_3D('',#116,#117,#118);
#116 = CARTESIAN_POINT('',(128.79,-111.855,1.595));
#117 = DIRECTION('',(0.,0.,1.));
#118 = DIRECTION('',(1.,0.,0.));
#119 = AXIS2_PLACEMENT_3D('',#120,#121,#122);
#120 = CARTESIAN_POINT('',(151.2,-102.29,1.595));
#121 = DIRECTION('',(0.,-0.,1.));
#122 = DIRECTION('',(1.110223024625E-16,1.,0.));
#123 = AXIS2_PLACEMENT_3D('',#124,#125,#126);
#124 = CARTESIAN_POINT('',(150.82,-100.59,1.595));
#125 = DIRECTION('',(0.,0.,1.));
#126 = DIRECTION('',(1.,0.,0.));
#127 = AXIS2_PLACEMENT_3D('',#128,#129,#130);
#128 = CARTESIAN_POINT('',(161.09,-98.23,1.595));
#129 = DIRECTION('',(0.,0.,1.));
#130 = DIRECTION('',(-1.,1.224646799147E-16,0.));
#131 = AXIS2_PLACEMENT_3D('',#132,#133,#134);
#132 = CARTESIAN_POINT('',(127.81,-114.46,1.595));
#133 = DIRECTION('',(0.,0.,1.));
#134 = DIRECTION('',(1.,0.,0.));
#135 = AXIS2_PLACEMENT_3D('',#136,#137,#138);
#136 = CARTESIAN_POINT('',(150.37,-110.93,1.595));
#137 = DIRECTION('',(0.,-0.,1.));
#138 = DIRECTION('',(1.110223024625E-16,1.,0.));
#139 = AXIS2_PLACEMENT_3D('',#140,#141,#142);
#140 = CARTESIAN_POINT('',(148.86,-108.67,1.595));
#141 = DIRECTION('',(0.,0.,1.));
#142 = DIRECTION('',(1.,0.,0.));
#143 = AXIS2_PLACEMENT_3D('',#144,#145,#146);
#144 = CARTESIAN_POINT('',(128.043416,-100.845058,1.595));
#145 = DIRECTION('',(0.,-0.,1.));
#146 = DIRECTION('',(1.110223024625E-16,1.,0.));
#147 = AXIS2_PLACEMENT_3D('',#148,#149,#150);
#148 = CARTESIAN_POINT('',(139.07,-111.69,1.595));
#149 = DIRECTION('',(0.,0.,1.));
#150 = DIRECTION('',(1.,0.,0.));
#151 = AXIS2_PLACEMENT_3D('',#152,#153,#154);
#152 = CARTESIAN_POINT('',(128.61,-104.9725,1.595));
#153 = DIRECTION('',(0.,0.,1.));
#154 = DIRECTION('',(1.,0.,0.));
#155 = AXIS2_PLACEMENT_3D('',#156,#157,#158);
#156 = CARTESIAN_POINT('',(148.86,-110.93,1.595));
#157 = DIRECTION('',(0.,-0.,1.));
#158 = DIRECTION('',(1.110223024625E-16,1.,0.));
#159 = AXIS2_PLACEMENT_3D('',#160,#161,#162);
#160 = CARTESIAN_POINT('',(126.83,-111.855,1.595));
#161 = DIRECTION('',(0.,0.,1.));
#162 = DIRECTION('',(-1.,1.224646799147E-16,0.));
#163 = AXIS2_PLACEMENT_3D('',#164,#165,#166);
#164 = CARTESIAN_POINT('',(147.01,-98.82,1.595));
#165 = DIRECTION('',(0.,-0.,1.));
#166 = DIRECTION('',(1.110223024625E-16,1.,0.));
#167 = AXIS2_PLACEMENT_3D('',#168,#169,#170);
#168 = CARTESIAN_POINT('',(140.44,-105.94,1.595));
#169 = DIRECTION('',(0.,-0.,1.));
#170 = DIRECTION('',(1.110223024625E-16,1.,0.));
#171 = AXIS2_PLACEMENT_3D('',#172,#173,#174);
#172 = CARTESIAN_POINT('',(155.76,-108.04,1.595));
#173 = DIRECTION('',(0.,0.,1.));
#174 = DIRECTION('',(1.,0.,0.));
#175 = AXIS2_PLACEMENT_3D('',#176,#177,#178);
#176 = CARTESIAN_POINT('',(132.3,-107.74,1.595));
#177 = DIRECTION('',(0.,0.,1.));
#178 = DIRECTION('',(-1.,1.224646799147E-16,0.));
#179 = AXIS2_PLACEMENT_3D('',#180,#181,#182);
#180 = CARTESIAN_POINT('',(127.99,-98.033,1.295));
#181 = DIRECTION('',(1.224646799147E-16,1.,1.110223024625E-16));
#182 = DIRECTION('',(-1.,1.224646799147E-16,0.));
#183 = AXIS2_PLACEMENT_3D('',#184,#185,#186);
#184 = CARTESIAN_POINT('',(145.84,-108.67,1.595));
#185 = DIRECTION('',(0.,0.,1.));
#186 = DIRECTION('',(-1.,1.224646799147E-16,0.));
#187 = AXIS2_PLACEMENT_3D('',#188,#189,#190);
#188 = CARTESIAN_POINT('',(135.39,-104.4,1.595));
#189 = DIRECTION('',(0.,0.,1.));
#190 = DIRECTION('',(-1.,1.224646799147E-16,0.));
#191 = AXIS2_PLACEMENT_3D('',#192,#193,#194);
#192 = CARTESIAN_POINT('',(136.88,-108.13,1.595));
#193 = DIRECTION('',(0.,0.,1.));
#194 = DIRECTION('',(-1.,1.224646799147E-16,0.));
#195 = AXIS2_PLACEMENT_3D('',#196,#197,#198);
#196 = CARTESIAN_POINT('',(160.21,-109.62,1.595));
#197 = DIRECTION('',(-0.,0.,1.));
#198 = DIRECTION('',(1.110223024625E-16,-1.,0.));
#199 = AXIS2_PLACEMENT_3D('',#200,#201,#202);
#200 = CARTESIAN_POINT('',(131.69,-112.06,1.595));
#201 = DIRECTION('',(0.,0.,1.));
#202 = DIRECTION('',(1.,0.,0.));
#203 = AXIS2_PLACEMENT_3D('',#204,#205,#206);
#204 = CARTESIAN_POINT('',(0.,0.,0.));
#205 = DIRECTION('',(0.,0.,1.));
#206 = DIRECTION('',(1.,0.,-0.));
#207 = ( GEOMETRIC_REPRESENTATION_CONTEXT(3) 
GLOBAL_UNCERTAINTY_ASSIGNED_CONTEXT((#211)) GLOBAL_UNIT_ASSIGNED_CONTEXT
((#208,#209,#210)) REPRESENTATION_CONTEXT('Context #1',
  '3D Context with UNIT and UNCERTAINTY') );
#208 = ( LENGTH_UNIT() NAMED_UNIT(*) SI_UNIT(.MILLI.,.METRE.) );
#209 = ( NAMED_UNIT(*) PLANE_ANGLE_UNIT() SI_UNIT($,.RADIAN.) );
#210 = ( NAMED_UNIT(*) SI_UNIT($,.STERADIAN.) SOLID_ANGLE_UNIT() );
#211 = UNCERTAINTY_MEASURE_WITH_UNIT(LENGTH_MEASURE(1.E-07),#208,
  'distance_accuracy_value','confusion accuracy');
#213 = SHAPE_DEFINITION_REPRESENTATION(#214,#220);
#214 = PRODUCT_DEFINITION_SHAPE('','',#215);
#215 = PRODUCT_DEFINITION('design','',#216,#219);
#216 = PRODUCT_DEFINITION_FORMATION('','',#217);
#217 = PRODUCT('C_0402_1005Metric','C_0402_1005Metric','',(#218));
#218 = PRODUCT_CONTEXT('',#2,'mechanical');
#219 = PRODUCT_DEFINITION_CONTEXT('part definition',#2,'design');
#220 = SHAPE_REPRESENTATION('',(#11,#221),#225);
#221 = AXIS2_PLACEMENT_3D('',#222,#223,#224);
#222 = CARTESIAN_POINT('',(0.,0.,0.));
#223 = DIRECTION('',(0.,0.,1.));
#224 = DIRECTION('',(1.,0.,-0.));
#225 = ( GEOMETRIC_REPRESENTATION_CONTEXT(3) 
GLOBAL_UNCERTAINTY_ASSIGNED_CONTEXT((#229)) GLOBAL_UNIT_ASSIGNED_CONTEXT
((#226,#227,#228)) REPRESENTATION_CONTEXT('Context #1',
  '3D Context with UNIT and UNCERTAINTY') );
#226 = ( LENGTH_UNIT() NAMED_UNIT(*) SI_UNIT(.MILLI.,.METRE.) );
#227 = ( NAMED_UNIT(*) PLANE_ANGLE_UNIT() SI_UNIT($,.RADIAN.) );
#228 = ( NAMED_UNIT(*) SI_UNIT($,.STERADIAN.) SOLID_ANGLE_UNIT() );
#229 = UNCERTAINTY_MEASURE_WITH_UNIT(LENGTH_MEASURE(1.E-07),#226,
  'distance_accuracy_value','confusion accuracy');
#230 = CONTEXT_DEPENDENT_SHAPE_REPRESENTATION(#231,#233);
#231 = ( REPRESENTATION_RELATIONSHIP('','',#220,#10) 
REPRESENTATION_RELATIONSHIP_WITH_TRANSFORMATION(#232) 
SHAPE_REPRESENTATION_RELATIONSHIP() );
#232 = ITEM_DEFINED_TRANSFORMATION('','',#11,#15);
#233 = PRODUCT_DEFINITION_SHAPE('Placement','Placement of an item',#234
  );
#234 = NEXT_ASSEMBLY_USAGE_OCCURRENCE('2','C25','',#5,#215,$);
#236 = SHAPE_DEFINITION_REPRESENTATION(#237,#243);
#237 = PRODUCT_DEFINITION_SHAPE('','',#238);
#238 = PRODUCT_DEFINITION('design','',#239,#242);
#239 = PRODUCT_DEFINITION_FORMATION('','',#240);
#240 = PRODUCT('C_0402_1005Metric','C_0402_1005Metric','',(#241));
#241 = PRODUCT_CONTEXT('',#2,'mechanical');
#242 = PRODUCT_DEFINITION_CONTEXT('part definition',#2,'design');
#243 = ADVANCED_BREP_SHAPE_REPRESENTATION('',(#11,#244),#1098);
#244 = MANIFOLD_SOLID_BREP('',#245);
#245 = CLOSED_SHELL('',());
#1098 = ( GEOMETRIC_REPRESENTATION_CONTEXT(3) 
GLOBAL_UNCERTAINTY_ASSIGNED_CONTEXT((#1102)) 
GLOBAL_UNIT_ASSIGNED_CONTEXT((#1099,#1100,#1101)) REPRESENTATION_CONTEXT
('Context #1','3D Context with UNIT and UNCERTAINTY') );
#1099 = ( LENGTH_UNIT() NAMED_UNIT(*) SI_UNIT(.MILLI.,.METRE.) );
#1100 = ( NAMED_UNIT(*) PLANE_ANGLE_UNIT() SI_UNIT($,.RADIAN.) );
#1101 = ( NAMED_UNIT(*) SI_UNIT($,.STERADIAN.) SOLID_ANGLE_UNIT() );
#1102 = UNCERTAINTY_MEASURE_WITH_UNIT(LENGTH_MEASURE(1.E-07),#1099,
  'distance_accuracy_value','confusion accuracy');
#1103 = CONTEXT_DEPENDENT_SHAPE_REPRESENTATION(#1104,#1106);
#1104 = ( REPRESENTATION_RELATIONSHIP('','',#243,#220) 
REPRESENTATION_RELATIONSHIP_WITH_TRANSFORMATION(#1105) 
SHAPE_REPRESENTATION_RELATIONSHIP() );
#1105 = ITEM_DEFINED_TRANSFORMATION('','',#11,#221);
#1106 = PRODUCT_DEFINITION_SHAPE('Placement','Placement of an item',
  #1107);
#1107 = NEXT_ASSEMBLY_USAGE_OCCURRENCE('1','=>[0:1:1:3]','',#215,#238,$
  );
#1109 = SHAPE_DEFINITION_REPRESENTATION(#1110,#1116);
#1110 = PRODUCT_DEFINITION_SHAPE('','',#1111);
#1111 = PRODUCT_DEFINITION('design','',#1112,#1115);
#1112 = PRODUCT_DEFINITION_FORMATION('','',#1113);
#1113 = PRODUCT('R_0402_1005Metric','R_0402_1005Metric','',(#1114));
#1114 = PRODUCT_CONTEXT('',#2,'mechanical');
#1115 = PRODUCT_DEFINITION_CONTEXT('part definition',#2,'design');
#1116 = SHAPE_REPRESENTATION('',(#11,#1117),#1121);
#1117 = AXIS2_PLACEMENT_3D('',#1118,#1119,#1120);
#1118 = CARTESIAN_POINT('',(0.,0.,0.));
#1119 = DIRECTION('',(0.,0.,1.));
#1120 = DIRECTION('',(1.,0.,-0.));
#1121 = ( GEOMETRIC_REPRESENTATION_CONTEXT(3) 
GLOBAL_UNCERTAINTY_ASSIGNED_CONTEXT((#1125)) 
GLOBAL_UNIT_ASSIGNED_CONTEXT((#1122,#1123,#1124)) REPRESENTATION_CONTEXT
('Context #1','3D Context with UNIT and UNCERTAINTY') );
#1122 = ( LENGTH_UNIT() NAMED_UNIT(*) SI_UNIT(.MILLI.,.METRE.) );
#1123 = ( NAMED_UNIT(*) PLANE_ANGLE_UNIT() SI_UNIT($,.RADIAN.) );
#1124 = ( NAMED_UNIT(*) SI_UNIT($,.STERADIAN.) SOLID_ANGLE_UNIT() );
#1125 = UNCERTAINTY_MEASURE_WITH_UNIT(LENGTH_MEASURE(1.E-07),#1122,
  'distance_accuracy_value','confusion accuracy');
#1132 = SHAPE_DEFINITION_REPRESENTATION(#1133,#1139);
#1133 = PRODUCT_DEFINITION_SHAPE('','',#1134);
#1134 = PRODUCT_DEFINITION('design','',#1135,#1138);
#1135 = PRODUCT_DEFINITION_FORMATION('','',#1136);
#1136 = PRODUCT('R_0402_1005Metric','R_0402_1005Metric','',(#1137));
#1137 = PRODUCT_CONTEXT('',#2,'mechanical');
#1138 = PRODUCT_DEFINITION_CONTEXT('part definition',#2,'design');
#1139 = ADVANCED_BREP_SHAPE_REPRESENTATION('',(#11,#1140),#1930);
#1140 = MANIFOLD_SOLID_BREP('',#1141);
#1141 = CLOSED_SHELL('',());
#1930 = ( GEOMETRIC_REPRESENTATION_CONTEXT(3) 
GLOBAL_UNCERTAINTY_ASSIGNED_CONTEXT((#1934)) 
GLOBAL_UNIT_ASSIGNED_CONTEXT((#1931,#1932,#1933)) REPRESENTATION_CONTEXT
('Context #1','3D Context with UNIT and UNCERTAINTY') );
#1931 = ( LENGTH_UNIT() NAMED_UNIT(*) SI_UNIT(.MILLI.,.METRE.) );
#1932 = ( NAMED_UNIT(*) PLANE_ANGLE_UNIT() SI_UNIT($,.RADIAN.) );
#1933 = ( NAMED_UNIT(*) SI_UNIT($,.STERADIAN.) SOLID_ANGLE_UNIT() );
#1934 = UNCERTAINTY_MEASURE_WITH_UNIT(LENGTH_MEASURE(1.E-07),#1931,
  'distance_accuracy_value','confusion accuracy');
#1935 = CONTEXT_DEPENDENT_SHAPE_REPRESENTATION(#1936,#1938);
#1936 = ( REPRESENTATION_RELATIONSHIP('','',#1139,#1116) 
REPRESENTATION_RELATIONSHIP_WITH_TRANSFORMATION(#1937) 
SHAPE_REPRESENTATION_RELATIONSHIP() );
#1937 = ITEM_DEFINED_TRANSFORMATION('','',#11,#1117);
#1938 = PRODUCT_DEFINITION_SHAPE('Placement','Placement of an item',
  #1939);
#1939 = NEXT_ASSEMBLY_USAGE_OCCURRENCE('3','=>[0:1:1:5]','',#1111,#1134,
  $);
#1941 = SHAPE_DEFINITION_REPRESENTATION(#1942,#1948);
#1942 = PRODUCT_DEFINITION_SHAPE('','',#1943);
#1943 = PRODUCT_DEFINITION('design','',#1944,#1947);
#1944 = PRODUCT_DEFINITION_FORMATION('','',#1945);
#1945 = PRODUCT('S2B-PH-SM4-TB','S2B-PH-SM4-TB','',(#1946));
#1946 = PRODUCT_CONTEXT('',#2,'mechanical');
#1947 = PRODUCT_DEFINITION_CONTEXT('part definition',#2,'design');
#1948 = SHAPE_REPRESENTATION('',(#11,#1949),#1953);
#1949 = AXIS2_PLACEMENT_3D('',#1950,#1951,#1952);
#1950 = CARTESIAN_POINT('',(0.,0.,0.));
#1951 = DIRECTION('',(0.,0.,1.));
#1952 = DIRECTION('',(1.,0.,-0.));
#1953 = ( GEOMETRIC_REPRESENTATION_CONTEXT(3) 
GLOBAL_UNCERTAINTY_ASSIGNED_CONTEXT((#1957)) 
GLOBAL_UNIT_ASSIGNED_CONTEXT((#1954,#1955,#1956)) REPRESENTATION_CONTEXT
('Context #1','3D Context with UNIT and UNCERTAINTY') );
#1954 = ( LENGTH_UNIT() NAMED_UNIT(*) SI_UNIT(.MILLI.,.METRE.) );
#1955 = ( NAMED_UNIT(*) PLANE_ANGLE_UNIT() SI_UNIT($,.RADIAN.) );
#1956 = ( NAMED_UNIT(*) SI_UNIT($,.STERADIAN.) SOLID_ANGLE_UNIT() );
#1957 = UNCERTAINTY_MEASURE_WITH_UNIT(LENGTH_MEASURE(1.E-07),#1954,
  'distance_accuracy_value','confusion accuracy');
#1958 = CONTEXT_DEPENDENT_SHAPE_REPRESENTATION(#1959,#1961);
#1959 = ( REPRESENTATION_RELATIONSHIP('','',#1948,#10) 
REPRESENTATION_RELATIONSHIP_WITH_TRANSFORMATION(#1960) 
SHAPE_REPRESENTATION_RELATIONSHIP() );
#1960 = ITEM_DEFINED_TRANSFORMATION('','',#11,#23);
#1961 = PRODUCT_DEFINITION_SHAPE('Placement','Placement of an item',
  #1962);
#1962 = NEXT_ASSEMBLY_USAGE_OCCURRENCE('6','J4','',#5,#1943,$);
#1964 = SHAPE_DEFINITION_REPRESENTATION(#1965,#1971);
#1965 = PRODUCT_DEFINITION_SHAPE('','',#1966);
#1966 = PRODUCT_DEFINITION('design','',#1967,#1970);
#1967 = PRODUCT_DEFINITION_FORMATION('','',#1968);
#1968 = PRODUCT('S2B-PH-SM4-TB(LF)(SN)','S2B-PH-SM4-TB(LF)(SN)','',(
    #1969));
#1969 = PRODUCT_CONTEXT('',#2,'mechanical');
#1970 = PRODUCT_DEFINITION_CONTEXT('part definition',#2,'design');
#1971 = SHAPE_REPRESENTATION('',(#11,#1972,#2551,#3130,#3610,#6564),
  #7044);
#1972 = MANIFOLD_SOLID_BREP('',#1973);
#1973 = CLOSED_SHELL('',());
#2551 = MANIFOLD_SOLID_BREP('',#2552);
#2552 = CLOSED_SHELL('',());
#3130 = MANIFOLD_SOLID_BREP('',#3131);
#3131 = CLOSED_SHELL('',());
#3610 = MANIFOLD_SOLID_BREP('',#3611);
#3611 = CLOSED_SHELL('',());
#6564 = MANIFOLD_SOLID_BREP('',#6565);
#6565 = CLOSED_SHELL('',());
#7044 = ( GEOMETRIC_REPRESENTATION_CONTEXT(3) 
GLOBAL_UNCERTAINTY_ASSIGNED_CONTEXT((#7048)) 
GLOBAL_UNIT_ASSIGNED_CONTEXT((#7045,#7046,#7047)) REPRESENTATION_CONTEXT
('Context #1','3D Context with UNIT and UNCERTAINTY') );
#7045 = ( LENGTH_UNIT() NAMED_UNIT(*) SI_UNIT(.MILLI.,.METRE.) );
#7046 = ( NAMED_UNIT(*) PLANE_ANGLE_UNIT() SI_UNIT($,.RADIAN.) );
#7047 = ( NAMED_UNIT(*) SI_UNIT($,.STERADIAN.) SOLID_ANGLE_UNIT() );
#7048 = UNCERTAINTY_MEASURE_WITH_UNIT(LENGTH_MEASURE(1.E-07),#7045,
  'distance_accuracy_value','confusion accuracy');
#7049 = CONTEXT_DEPENDENT_SHAPE_REPRESENTATION(#7050,#7052);
#7050 = ( REPRESENTATION_RELATIONSHIP('','',#1971,#1948) 
REPRESENTATION_RELATIONSHIP_WITH_TRANSFORMATION(#7051) 
SHAPE_REPRESENTATION_RELATIONSHIP() );
#7051 = ITEM_DEFINED_TRANSFORMATION('','',#11,#1949);
#7052 = PRODUCT_DEFINITION_SHAPE('Placement','Placement of an item',
  #7053);
#7053 = NEXT_ASSEMBLY_USAGE_OCCURRENCE('5','=>[0:1:1:7]','',#1943,#1966,
  $);
#7840 = CONTEXT_DEPENDENT_SHAPE_REPRESENTATION(#7841,#7843);
#7841 = ( REPRESENTATION_RELATIONSHIP('','',#220,#10) 
REPRESENTATION_RELATIONSHIP_WITH_TRANSFORMATION(#7842) 
SHAPE_REPRESENTATION_RELATIONSHIP() );
#7842 = ITEM_DEFINED_TRANSFORMATION('','',#11,#35);
#7843 = PRODUCT_DEFINITION_SHAPE('Placement','Placement of an item',
  #7844);
#7844 = NEXT_ASSEMBLY_USAGE_OCCURRENCE('10','C10','',#5,#215,$);
#7850 = SHAPE_DEFINITION_REPRESENTATION(#7851,#7857);
#7851 = PRODUCT_DEFINITION_SHAPE('','',#7852);
#7852 = PRODUCT_DEFINITION('design','',#7853,#7856);
#7853 = PRODUCT_DEFINITION_FORMATION('','',#7854);
#7854 = PRODUCT('Download_STP_WL-SFCC_150044M175200_rev1',
  'Download_STP_WL-SFCC_150044M175200_rev1','',(#7855));
#7855 = PRODUCT_CONTEXT('',#2,'mechanical');
#7856 = PRODUCT_DEFINITION_CONTEXT('part definition',#2,'design');
#7857 = SHAPE_REPRESENTATION('',(#11,#7858),#7862);
#7858 = AXIS2_PLACEMENT_3D('',#7859,#7860,#7861);
#7859 = CARTESIAN_POINT('',(0.,0.,0.));
#7860 = DIRECTION('',(0.,0.,1.));
#7861 = DIRECTION('',(1.,0.,-0.));
#7862 = ( GEOMETRIC_REPRESENTATION_CONTEXT(3) 
GLOBAL_UNCERTAINTY_ASSIGNED_CONTEXT((#7866)) 
GLOBAL_UNIT_ASSIGNED_CONTEXT((#7863,#7864,#7865)) REPRESENTATION_CONTEXT
('Context #1','3D Context with UNIT and UNCERTAINTY') );
#7863 = ( LENGTH_UNIT() NAMED_UNIT(*) SI_UNIT(.MILLI.,.METRE.) );
#7864 = ( NAMED_UNIT(*) PLANE_ANGLE_UNIT() SI_UNIT($,.RADIAN.) );
#7865 = ( NAMED_UNIT(*) SI_UNIT($,.STERADIAN.) SOLID_ANGLE_UNIT() );
#7866 = UNCERTAINTY_MEASURE_WITH_UNIT(LENGTH_MEASURE(1.E-07),#7863,
  'distance_accuracy_value','confusion accuracy');
#7867 = CONTEXT_DEPENDENT_SHAPE_REPRESENTATION(#7868,#7870);
#7868 = ( REPRESENTATION_RELATIONSHIP('','',#7857,#10) 
REPRESENTATION_RELATIONSHIP_WITH_TRANSFORMATION(#7869) 
SHAPE_REPRESENTATION_RELATIONSHIP() );
#7869 = ITEM_DEFINED_TRANSFORMATION('','',#11,#43);
#7870 = PRODUCT_DEFINITION_SHAPE('Placement','Placement of an item',
  #7871);
#7871 = NEXT_ASSEMBLY_USAGE_OCCURRENCE('16','D3','',#5,#7852,$);
#7873 = SHAPE_DEFINITION_REPRESENTATION(#7874,#7880);
#7874 = PRODUCT_DEFINITION_SHAPE('','',#7875);
#7875 = PRODUCT_DEFINITION('design','',#7876,#7879);
#7876 = PRODUCT_DEFINITION_FORMATION('','',#7877);
#7877 = PRODUCT('150044M175200','150044M175200','',(#7878));
#7878 = PRODUCT_CONTEXT('',#2,'mechanical');
#7879 = PRODUCT_DEFINITION_CONTEXT('part definition',#2,'design');
#7880 = SHAPE_REPRESENTATION('',(#11,#7881,#7885,#7889),#7893);
#7881 = AXIS2_PLACEMENT_3D('',#7882,#7883,#7884);
#7882 = CARTESIAN_POINT('',(0.,0.,0.));
#7883 = DIRECTION('',(0.,0.,1.));
#7884 = DIRECTION('',(1.,0.,0.));
#7885 = AXIS2_PLACEMENT_3D('',#7886,#7887,#7888);
#7886 = CARTESIAN_POINT('',(0.,4.336808689942E-16,0.));
#7887 = DIRECTION('',(0.,0.,1.));
#7888 = DIRECTION('',(1.,0.,0.));
#7889 = AXIS2_PLACEMENT_3D('',#7890,#7891,#7892);
#7890 = CARTESIAN_POINT('',(0.,0.,0.3));
#7891 = DIRECTION('',(0.,0.,1.));
#7892 = DIRECTION('',(1.,0.,0.));
#7893 = ( GEOMETRIC_REPRESENTATION_CONTEXT(3) 
GLOBAL_UNCERTAINTY_ASSIGNED_CONTEXT((#7897)) 
GLOBAL_UNIT_ASSIGNED_CONTEXT((#7894,#7895,#7896)) REPRESENTATION_CONTEXT
('Context #1','3D Context with UNIT and UNCERTAINTY') );
#7894 = ( LENGTH_UNIT() NAMED_UNIT(*) SI_UNIT(.MILLI.,.METRE.) );
#7895 = ( NAMED_UNIT(*) PLANE_ANGLE_UNIT() SI_UNIT($,.RADIAN.) );
#7896 = ( NAMED_UNIT(*) SI_UNIT($,.STERADIAN.) SOLID_ANGLE_UNIT() );
#7897 = UNCERTAINTY_MEASURE_WITH_UNIT(LENGTH_MEASURE(1.E-07),#7894,
  'distance_accuracy_value','confusion accuracy');
#7898 = CONTEXT_DEPENDENT_SHAPE_REPRESENTATION(#7899,#7901);
#7899 = ( REPRESENTATION_RELATIONSHIP('','',#7880,#7857) 
REPRESENTATION_RELATIONSHIP_WITH_TRANSFORMATION(#7900) 
SHAPE_REPRESENTATION_RELATIONSHIP() );
#7900 = ITEM_DEFINED_TRANSFORMATION('','',#11,#7858);
#7901 = PRODUCT_DEFINITION_SHAPE('Placement','Placement of an item',
  #7902);
#7902 = NEXT_ASSEMBLY_USAGE_OCCURRENCE('15','=>[0:1:1:11]','',#7852,
  #7875,$);
#7904 = SHAPE_DEFINITION_REPRESENTATION(#7905,#7911);
#7905 = PRODUCT_DEFINITION_SHAPE('','',#7906);
#7906 = PRODUCT_DEFINITION('design','',#7907,#7910);
#7907 = PRODUCT_DEFINITION_FORMATION('','',#7908);
#7908 = PRODUCT('Body','Body','',(#7909));
#7909 = PRODUCT_CONTEXT('',#2,'mechanical');
#7910 = PRODUCT_DEFINITION_CONTEXT('part definition',#2,'design');
#7911 = ADVANCED_BREP_SHAPE_REPRESENTATION('',(#11,#7912),#12989);
#7912 = MANIFOLD_SOLID_BREP('',#7913);
#7913 = CLOSED_SHELL('',());
#12989 = ( GEOMETRIC_REPRESENTATION_CONTEXT(3) 
GLOBAL_UNCERTAINTY_ASSIGNED_CONTEXT((#12993)) 
GLOBAL_UNIT_ASSIGNED_CONTEXT((#12990,#12991,#12992)) 
REPRESENTATION_CONTEXT('Context #1',
  '3D Context with UNIT and UNCERTAINTY') );
#12990 = ( LENGTH_UNIT() NAMED_UNIT(*) SI_UNIT(.MILLI.,.METRE.) );
#12991 = ( NAMED_UNIT(*) PLANE_ANGLE_UNIT() SI_UNIT($,.RADIAN.) );
#12992 = ( NAMED_UNIT(*) SI_UNIT($,.STERADIAN.) SOLID_ANGLE_UNIT() );
#12993 = UNCERTAINTY_MEASURE_WITH_UNIT(LENGTH_MEASURE(2.E-07),#12990,
  'distance_accuracy_value','confusion accuracy');
#12994 = CONTEXT_DEPENDENT_SHAPE_REPRESENTATION(#12995,#12997);
#12995 = ( REPRESENTATION_RELATIONSHIP('','',#7911,#7880) 
REPRESENTATION_RELATIONSHIP_WITH_TRANSFORMATION(#12996) 
SHAPE_REPRESENTATION_RELATIONSHIP() );
#12996 = ITEM_DEFINED_TRANSFORMATION('','',#11,#7881);
#12997 = PRODUCT_DEFINITION_SHAPE('Placement','Placement of an item',
  #12998);
#12998 = NEXT_ASSEMBLY_USAGE_OCCURRENCE('12','Body','',#7875,#7906,$);
#13000 = SHAPE_DEFINITION_REPRESENTATION(#13001,#13007);
#13001 = PRODUCT_DEFINITION_SHAPE('','',#13002);
#13002 = PRODUCT_DEFINITION('design','',#13003,#13006);
#13003 = PRODUCT_DEFINITION_FORMATION('','',#13004);
#13004 = PRODUCT('Pins','Pins','',(#13005));
#13005 = PRODUCT_CONTEXT('',#2,'mechanical');
#13006 = PRODUCT_DEFINITION_CONTEXT('part definition',#2,'design');
#13007 = SHAPE_REPRESENTATION('',(#11,#13008,#13329,#13650,#14097,#14216
    ,#14335,#14454,#14573,#14894,#15215,#15435),#15655);
#13008 = MANIFOLD_SOLID_BREP('',#13009);
#13009 = CLOSED_SHELL('',());
#13329 = MANIFOLD_SOLID_BREP('',#13330);
#13330 = CLOSED_SHELL('',());
#13650 = MANIFOLD_SOLID_BREP('',#13651);
#13651 = CLOSED_SHELL('',());
#14097 = MANIFOLD_SOLID_BREP('',#14098);
#14098 = CLOSED_SHELL('',());
#14216 = MANIFOLD_SOLID_BREP('',#14217);
#14217 = CLOSED_SHELL('',());
#14335 = MANIFOLD_SOLID_BREP('',#14336);
#14336 = CLOSED_SHELL('',());
#14454 = MANIFOLD_SOLID_BREP('',#14455);
#14455 = CLOSED_SHELL('',());
#14573 = MANIFOLD_SOLID_BREP('',#14574);
#14574 = CLOSED_SHELL('',());
#14894 = MANIFOLD_SOLID_BREP('',#14895);
#14895 = CLOSED_SHELL('',());
#15215 = MANIFOLD_SOLID_BREP('',#15216);
#15216 = CLOSED_SHELL('',());
#15435 = MANIFOLD_SOLID_BREP('',#15436);
#15436 = CLOSED_SHELL('',());
#15655 = ( GEOMETRIC_REPRESENTATION_CONTEXT(3) 
GLOBAL_UNCERTAINTY_ASSIGNED_CONTEXT((#15659)) 
GLOBAL_UNIT_ASSIGNED_CONTEXT((#15656,#15657,#15658)) 
REPRESENTATION_CONTEXT('Context #1',
  '3D Context with UNIT and UNCERTAINTY') );
#15656 = ( LENGTH_UNIT() NAMED_UNIT(*) SI_UNIT(.MILLI.,.METRE.) );
#15657 = ( NAMED_UNIT(*) PLANE_ANGLE_UNIT() SI_UNIT($,.RADIAN.) );
#15658 = ( NAMED_UNIT(*) SI_UNIT($,.STERADIAN.) SOLID_ANGLE_UNIT() );
#15659 = UNCERTAINTY_MEASURE_WITH_UNIT(LENGTH_MEASURE(1.E-07),#15656,
  'distance_accuracy_value','confusion accuracy');
#15660 = CONTEXT_DEPENDENT_SHAPE_REPRESENTATION(#15661,#15663);
#15661 = ( REPRESENTATION_RELATIONSHIP('','',#13007,#7880) 
REPRESENTATION_RELATIONSHIP_WITH_TRANSFORMATION(#15662) 
SHAPE_REPRESENTATION_RELATIONSHIP() );
#15662 = ITEM_DEFINED_TRANSFORMATION('','',#11,#7885);
#15663 = PRODUCT_DEFINITION_SHAPE('Placement','Placement of an item',
  #15664);
#15664 = NEXT_ASSEMBLY_USAGE_OCCURRENCE('13','Pins','',#7875,#13002,$);
#15666 = SHAPE_DEFINITION_REPRESENTATION(#15667,#15673);
#15667 = PRODUCT_DEFINITION_SHAPE('','',#15668);
#15668 = PRODUCT_DEFINITION('design','',#15669,#15672);
#15669 = PRODUCT_DEFINITION_FORMATION('','',#15670);
#15670 = PRODUCT('Resin','Resin','',(#15671));
#15671 = PRODUCT_CONTEXT('',#2,'mechanical');
#15672 = PRODUCT_DEFINITION_CONTEXT('part definition',#2,'design');
#15673 = ADVANCED_BREP_SHAPE_REPRESENTATION('',(#11,#15674),#15824);
#15674 = MANIFOLD_SOLID_BREP('',#15675);
#15675 = CLOSED_SHELL('',());
#15824 = ( GEOMETRIC_REPRESENTATION_CONTEXT(3) 
GLOBAL_UNCERTAINTY_ASSIGNED_CONTEXT((#15828)) 
GLOBAL_UNIT_ASSIGNED_CONTEXT((#15825,#15826,#15827)) 
REPRESENTATION_CONTEXT('Context #1',
  '3D Context with UNIT and UNCERTAINTY') );
#15825 = ( LENGTH_UNIT() NAMED_UNIT(*) SI_UNIT(.MILLI.,.METRE.) );
#15826 = ( NAMED_UNIT(*) PLANE_ANGLE_UNIT() SI_UNIT($,.RADIAN.) );
#15827 = ( NAMED_UNIT(*) SI_UNIT($,.STERADIAN.) SOLID_ANGLE_UNIT() );
#15828 = UNCERTAINTY_MEASURE_WITH_UNIT(LENGTH_MEASURE(1.E-07),#15825,
  'distance_accuracy_value','confusion accuracy');
#15829 = CONTEXT_DEPENDENT_SHAPE_REPRESENTATION(#15830,#15832);
#15830 = ( REPRESENTATION_RELATIONSHIP('','',#15673,#7880) 
REPRESENTATION_RELATIONSHIP_WITH_TRANSFORMATION(#15831) 
SHAPE_REPRESENTATION_RELATIONSHIP() );
#15831 = ITEM_DEFINED_TRANSFORMATION('','',#11,#7889);
#15832 = PRODUCT_DEFINITION_SHAPE('Placement','Placement of an item',
  #15833);
#15833 = NEXT_ASSEMBLY_USAGE_OCCURRENCE('14','Resin','',#7875,#15668,$);
#15835 = SHAPE_DEFINITION_REPRESENTATION(#15836,#15842);
#15836 = PRODUCT_DEFINITION_SHAPE('','',#15837);
#15837 = PRODUCT_DEFINITION('design','',#15838,#15841);
#15838 = PRODUCT_DEFINITION_FORMATION('','',#15839);
#15839 = PRODUCT('QFN-32-1EP_5x5mm_P0.5mm_EP3.3x3.3mm',
  'QFN-32-1EP_5x5mm_P0.5mm_EP3.3x3.3mm','',(#15840));
#15840 = PRODUCT_CONTEXT('',#2,'mechanical');
#15841 = PRODUCT_DEFINITION_CONTEXT('part definition',#2,'design');
#15842 = SHAPE_REPRESENTATION('',(#11,#15843),#15847);
#15843 = AXIS2_PLACEMENT_3D('',#15844,#15845,#15846);
#15844 = CARTESIAN_POINT('',(0.,0.,0.));
#15845 = DIRECTION('',(0.,0.,1.));
#15846 = DIRECTION('',(1.,0.,-0.));
#15847 = ( GEOMETRIC_REPRESENTATION_CONTEXT(3) 
GLOBAL_UNCERTAINTY_ASSIGNED_CONTEXT((#15851)) 
GLOBAL_UNIT_ASSIGNED_CONTEXT((#15848,#15849,#15850)) 
REPRESENTATION_CONTEXT('Context #1',
  '3D Context with UNIT and UNCERTAINTY') );
#15848 = ( LENGTH_UNIT() NAMED_UNIT(*) SI_UNIT(.MILLI.,.METRE.) );
#15849 = ( NAMED_UNIT(*) PLANE_ANGLE_UNIT() SI_UNIT($,.RADIAN.) );
#15850 = ( NAMED_UNIT(*) SI_UNIT($,.STERADIAN.) SOLID_ANGLE_UNIT() );
#15851 = UNCERTAINTY_MEASURE_WITH_UNIT(LENGTH_MEASURE(1.E-07),#15848,
  'distance_accuracy_value','confusion accuracy');
#15852 = CONTEXT_DEPENDENT_SHAPE_REPRESENTATION(#15853,#15855);
#15853 = ( REPRESENTATION_RELATIONSHIP('','',#15842,#10) 
REPRESENTATION_RELATIONSHIP_WITH_TRANSFORMATION(#15854) 
SHAPE_REPRESENTATION_RELATIONSHIP() );
#15854 = ITEM_DEFINED_TRANSFORMATION('','',#11,#47);
#15855 = PRODUCT_DEFINITION_SHAPE('Placement','Placement of an item',
  #15856);
#15856 = NEXT_ASSEMBLY_USAGE_OCCURRENCE('18','U2','',#5,#15837,$);
#15858 = SHAPE_DEFINITION_REPRESENTATION(#15859,#15865);
#15859 = PRODUCT_DEFINITION_SHAPE('','',#15860);
#15860 = PRODUCT_DEFINITION('design','',#15861,#15864);
#15861 = PRODUCT_DEFINITION_FORMATION('','',#15862);
#15862 = PRODUCT('QFN_32_1EP_5x5mm_P05mm_EP33x33mm',
  'QFN_32_1EP_5x5mm_P05mm_EP33x33mm','',(#15863));
#15863 = PRODUCT_CONTEXT('',#2,'mechanical');
#15864 = PRODUCT_DEFINITION_CONTEXT('part definition',#2,'design');
#15865 = ADVANCED_BREP_SHAPE_REPRESENTATION('',(#11,#15866),#22636);
#15866 = MANIFOLD_SOLID_BREP('',#15867);
#15867 = CLOSED_SHELL('',());
#22636 = ( GEOMETRIC_REPRESENTATION_CONTEXT(3) 
GLOBAL_UNCERTAINTY_ASSIGNED_CONTEXT((#22640)) 
GLOBAL_UNIT_ASSIGNED_CONTEXT((#22637,#22638,#22639)) 
REPRESENTATION_CONTEXT('Context #1',
  '3D Context with UNIT and UNCERTAINTY') );
#22637 = ( LENGTH_UNIT() NAMED_UNIT(*) SI_UNIT(.MILLI.,.METRE.) );
#22638 = ( NAMED_UNIT(*) PLANE_ANGLE_UNIT() SI_UNIT($,.RADIAN.) );
#22639 = ( NAMED_UNIT(*) SI_UNIT($,.STERADIAN.) SOLID_ANGLE_UNIT() );
#22640 = UNCERTAINTY_MEASURE_WITH_UNIT(LENGTH_MEASURE(1.E-07),#22637,
  'distance_accuracy_value','confusion accuracy');
#22641 = CONTEXT_DEPENDENT_SHAPE_REPRESENTATION(#22642,#22644);
#22642 = ( REPRESENTATION_RELATIONSHIP('','',#15865,#15842) 
REPRESENTATION_RELATIONSHIP_WITH_TRANSFORMATION(#22643) 
SHAPE_REPRESENTATION_RELATIONSHIP() );
#22643 = ITEM_DEFINED_TRANSFORMATION('','',#11,#15843);
#22644 = PRODUCT_DEFINITION_SHAPE('Placement','Placement of an item',
  #22645);
#22645 = NEXT_ASSEMBLY_USAGE_OCCURRENCE('17','=>[0:1:1:16]','',#15837,
  #15860,$);
#22657 = CONTEXT_DEPENDENT_SHAPE_REPRESENTATION(#22658,#22660);
#22658 = ( REPRESENTATION_RELATIONSHIP('','',#220,#10) 
REPRESENTATION_RELATIONSHIP_WITH_TRANSFORMATION(#22659) 
SHAPE_REPRESENTATION_RELATIONSHIP() );
#22659 = ITEM_DEFINED_TRANSFORMATION('','',#11,#59);
#22660 = PRODUCT_DEFINITION_SHAPE('Placement','Placement of an item',
  #22661);
#22661 = NEXT_ASSEMBLY_USAGE_OCCURRENCE('21','C24','',#5,#215,$);
#22667 = CONTEXT_DEPENDENT_SHAPE_REPRESENTATION(#22668,#22670);
#22668 = ( REPRESENTATION_RELATIONSHIP('','',#220,#10) 
REPRESENTATION_RELATIONSHIP_WITH_TRANSFORMATION(#22669) 
SHAPE_REPRESENTATION_RELATIONSHIP() );
#22669 = ITEM_DEFINED_TRANSFORMATION('','',#11,#67);
#22670 = PRODUCT_DEFINITION_SHAPE('Placement','Placement of an item',
  #22671);
#22671 = NEXT_ASSEMBLY_USAGE_OCCURRENCE('23','C1','',#5,#215,$);
#43573 = SHAPE_DEFINITION_REPRESENTATION(#43574,#43580);
#43574 = PRODUCT_DEFINITION_SHAPE('','',#43575);
#43575 = PRODUCT_DEFINITION('design','',#43576,#43579);
#43576 = PRODUCT_DEFINITION_FORMATION('','',#43577);
#43577 = PRODUCT('C_0603_1608Metric','C_0603_1608Metric','',(#43578));
#43578 = PRODUCT_CONTEXT('',#2,'mechanical');
#43579 = PRODUCT_DEFINITION_CONTEXT('part definition',#2,'design');
#43580 = SHAPE_REPRESENTATION('',(#11,#43581),#43585);
#43581 = AXIS2_PLACEMENT_3D('',#43582,#43583,#43584);
#43582 = CARTESIAN_POINT('',(0.,0.,0.));
#43583 = DIRECTION('',(0.,0.,1.));
#43584 = DIRECTION('',(1.,0.,-0.));
#43585 = ( GEOMETRIC_REPRESENTATION_CONTEXT(3) 
GLOBAL_UNCERTAINTY_ASSIGNED_CONTEXT((#43589)) 
GLOBAL_UNIT_ASSIGNED_CONTEXT((#43586,#43587,#43588)) 
REPRESENTATION_CONTEXT('Context #1',
  '3D Context with UNIT and UNCERTAINTY') );
#43586 = ( LENGTH_UNIT() NAMED_UNIT(*) SI_UNIT(.MILLI.,.METRE.) );
#43587 = ( NAMED_UNIT(*) PLANE_ANGLE_UNIT() SI_UNIT($,.RADIAN.) );
#43588 = ( NAMED_UNIT(*) SI_UNIT($,.STERADIAN.) SOLID_ANGLE_UNIT() );
#43589 = UNCERTAINTY_MEASURE_WITH_UNIT(LENGTH_MEASURE(1.E-07),#43586,
  'distance_accuracy_value','confusion accuracy');
#43590 = CONTEXT_DEPENDENT_SHAPE_REPRESENTATION(#43591,#43593);
#43591 = ( REPRESENTATION_RELATIONSHIP('','',#43580,#10) 
REPRESENTATION_RELATIONSHIP_WITH_TRANSFORMATION(#43592) 
SHAPE_REPRESENTATION_RELATIONSHIP() );
#43592 = ITEM_DEFINED_TRANSFORMATION('','',#11,#83);
#43593 = PRODUCT_DEFINITION_SHAPE('Placement','Placement of an item',
  #43594);
#43594 = NEXT_ASSEMBLY_USAGE_OCCURRENCE('30','C4','',#5,#43575,$);
#43596 = SHAPE_DEFINITION_REPRESENTATION(#43597,#43603);
#43597 = PRODUCT_DEFINITION_SHAPE('','',#43598);
#43598 = PRODUCT_DEFINITION('design','',#43599,#43602);
#43599 = PRODUCT_DEFINITION_FORMATION('','',#43600);
#43600 = PRODUCT('C_0603_1608Metric','C_0603_1608Metric','',(#43601));
#43601 = PRODUCT_CONTEXT('',#2,'mechanical');
#43602 = PRODUCT_DEFINITION_CONTEXT('part definition',#2,'design');
#43603 = ADVANCED_BREP_SHAPE_REPRESENTATION('',(#11,#43604),#44458);
#43604 = MANIFOLD_SOLID_BREP('',#43605);
#43605 = CLOSED_SHELL('',());
#44458 = ( GEOMETRIC_REPRESENTATION_CONTEXT(3) 
GLOBAL_UNCERTAINTY_ASSIGNED_CONTEXT((#44462)) 
GLOBAL_UNIT_ASSIGNED_CONTEXT((#44459,#44460,#44461)) 
REPRESENTATION_CONTEXT('Context #1',
  '3D Context with UNIT and UNCERTAINTY') );
#44459 = ( LENGTH_UNIT() NAMED_UNIT(*) SI_UNIT(.MILLI.,.METRE.) );
#44460 = ( NAMED_UNIT(*) PLANE_ANGLE_UNIT() SI_UNIT($,.RADIAN.) );
#44461 = ( NAMED_UNIT(*) SI_UNIT($,.STERADIAN.) SOLID_ANGLE_UNIT() );
#44462 = UNCERTAINTY_MEASURE_WITH_UNIT(LENGTH_MEASURE(1.E-07),#44459,
  'distance_accuracy_value','confusion accuracy');
#44463 = CONTEXT_DEPENDENT_SHAPE_REPRESENTATION(#44464,#44466);
#44464 = ( REPRESENTATION_RELATIONSHIP('','',#43603,#43580) 
REPRESENTATION_RELATIONSHIP_WITH_TRANSFORMATION(#44465) 
SHAPE_REPRESENTATION_RELATIONSHIP() );
#44465 = ITEM_DEFINED_TRANSFORMATION('','',#11,#43581);
#44466 = PRODUCT_DEFINITION_SHAPE('Placement','Placement of an item',
  #44467);
#44467 = NEXT_ASSEMBLY_USAGE_OCCURRENCE('29','=>[0:1:1:22]','',#43575,
  #43598,$);
#44469 = SHAPE_DEFINITION_REPRESENTATION(#44470,#44476);
#44470 = PRODUCT_DEFINITION_SHAPE('','',#44471);
#44471 = PRODUCT_DEFINITION('design','',#44472,#44475);
#44472 = PRODUCT_DEFINITION_FORMATION('','',#44473);
#44473 = PRODUCT('FA-128_32.0000MF20X-K5','FA-128_32.0000MF20X-K5','',(
    #44474));
#44474 = PRODUCT_CONTEXT('',#2,'mechanical');
#44475 = PRODUCT_DEFINITION_CONTEXT('part definition',#2,'design');
#44476 = SHAPE_REPRESENTATION('',(#11,#44477),#44481);
#44477 = AXIS2_PLACEMENT_3D('',#44478,#44479,#44480);
#44478 = CARTESIAN_POINT('',(0.,0.,0.));
#44479 = DIRECTION('',(0.,0.,1.));
#44480 = DIRECTION('',(1.,0.,-0.));
#44481 = ( GEOMETRIC_REPRESENTATION_CONTEXT(3) 
GLOBAL_UNCERTAINTY_ASSIGNED_CONTEXT((#44485)) 
GLOBAL_UNIT_ASSIGNED_CONTEXT((#44482,#44483,#44484)) 
REPRESENTATION_CONTEXT('Context #1',
  '3D Context with UNIT and UNCERTAINTY') );
#44482 = ( LENGTH_UNIT() NAMED_UNIT(*) SI_UNIT(.MILLI.,.METRE.) );
#44483 = ( NAMED_UNIT(*) PLANE_ANGLE_UNIT() SI_UNIT($,.RADIAN.) );
#44484 = ( NAMED_UNIT(*) SI_UNIT($,.STERADIAN.) SOLID_ANGLE_UNIT() );
#44485 = UNCERTAINTY_MEASURE_WITH_UNIT(LENGTH_MEASURE(1.E-07),#44482,
  'distance_accuracy_value','confusion accuracy');
#44486 = CONTEXT_DEPENDENT_SHAPE_REPRESENTATION(#44487,#44489);
#44487 = ( REPRESENTATION_RELATIONSHIP('','',#44476,#10) 
REPRESENTATION_RELATIONSHIP_WITH_TRANSFORMATION(#44488) 
SHAPE_REPRESENTATION_RELATIONSHIP() );
#44488 = ITEM_DEFINED_TRANSFORMATION('','',#11,#87);
#44489 = PRODUCT_DEFINITION_SHAPE('Placement','Placement of an item',
  #44490);
#44490 = NEXT_ASSEMBLY_USAGE_OCCURRENCE('32','Y2','',#5,#44471,$);
#44492 = SHAPE_DEFINITION_REPRESENTATION(#44493,#44499);
#44493 = PRODUCT_DEFINITION_SHAPE('','',#44494);
#44494 = PRODUCT_DEFINITION('design','',#44495,#44498);
#44495 = PRODUCT_DEFINITION_FORMATION('','',#44496);
#44496 = PRODUCT('FA-128 32.0000MF20X-K5','FA-128 32.0000MF20X-K5','',(
    #44497));
#44497 = PRODUCT_CONTEXT('',#2,'mechanical');
#44498 = PRODUCT_DEFINITION_CONTEXT('part definition',#2,'design');
#44499 = SHAPE_REPRESENTATION('',(#11,#44500,#44994,#46046,#47309,#47663
    ,#47984,#48305),#48626);
#44500 = MANIFOLD_SOLID_BREP('',#44501);
#44501 = CLOSED_SHELL('',());
#44994 = MANIFOLD_SOLID_BREP('',#44995);
#44995 = CLOSED_SHELL('',());
#46046 = MANIFOLD_SOLID_BREP('',#46047);
#46047 = CLOSED_SHELL('',());
#47309 = MANIFOLD_SOLID_BREP('',#47310);
#47310 = CLOSED_SHELL('',());
#47663 = MANIFOLD_SOLID_BREP('',#47664);
#47664 = CLOSED_SHELL('',());
#47984 = MANIFOLD_SOLID_BREP('',#47985);
#47985 = CLOSED_SHELL('',());
#48305 = MANIFOLD_SOLID_BREP('',#48306);
#48306 = CLOSED_SHELL('',());
#48626 = ( GEOMETRIC_REPRESENTATION_CONTEXT(3) 
GLOBAL_UNCERTAINTY_ASSIGNED_CONTEXT((#48630)) 
GLOBAL_UNIT_ASSIGNED_CONTEXT((#48627,#48628,#48629)) 
REPRESENTATION_CONTEXT('Context #1',
  '3D Context with UNIT and UNCERTAINTY') );
#48627 = ( LENGTH_UNIT() NAMED_UNIT(*) SI_UNIT(.MILLI.,.METRE.) );
#48628 = ( NAMED_UNIT(*) PLANE_ANGLE_UNIT() SI_UNIT($,.RADIAN.) );
#48629 = ( NAMED_UNIT(*) SI_UNIT($,.STERADIAN.) SOLID_ANGLE_UNIT() );
#48630 = UNCERTAINTY_MEASURE_WITH_UNIT(LENGTH_MEASURE(1.E-07),#48627,
  'distance_accuracy_value','confusion accuracy');
#48631 = CONTEXT_DEPENDENT_SHAPE_REPRESENTATION(#48632,#48634);
#48632 = ( REPRESENTATION_RELATIONSHIP('','',#44499,#44476) 
REPRESENTATION_RELATIONSHIP_WITH_TRANSFORMATION(#48633) 
SHAPE_REPRESENTATION_RELATIONSHIP() );
#48633 = ITEM_DEFINED_TRANSFORMATION('','',#11,#44477);
#48634 = PRODUCT_DEFINITION_SHAPE('Placement','Placement of an item',
  #48635);
#48635 = NEXT_ASSEMBLY_USAGE_OCCURRENCE('31','=>[0:1:1:24]','',#44471,
  #44494,$);
#48657 = CONTEXT_DEPENDENT_SHAPE_REPRESENTATION(#48658,#48660);
#48658 = ( REPRESENTATION_RELATIONSHIP('','',#1116,#10) 
REPRESENTATION_RELATIONSHIP_WITH_TRANSFORMATION(#48659) 
SHAPE_REPRESENTATION_RELATIONSHIP() );
#48659 = ITEM_DEFINED_TRANSFORMATION('','',#11,#107);
#48660 = PRODUCT_DEFINITION_SHAPE('Placement','Placement of an item',
  #48661);
#48661 = NEXT_ASSEMBLY_USAGE_OCCURRENCE('37','R8','',#5,#1111,$);
#50232 = CONTEXT_DEPENDENT_SHAPE_REPRESENTATION(#50233,#50235);
#50233 = ( REPRESENTATION_RELATIONSHIP('','',#1116,#10) 
REPRESENTATION_RELATIONSHIP_WITH_TRANSFORMATION(#50234) 
SHAPE_REPRESENTATION_RELATIONSHIP() );
#50234 = ITEM_DEFINED_TRANSFORMATION('','',#11,#119);
#50235 = PRODUCT_DEFINITION_SHAPE('Placement','Placement of an item',
  #50236);
#50236 = NEXT_ASSEMBLY_USAGE_OCCURRENCE('41','R4','',#5,#1111,$);
#50237 = CONTEXT_DEPENDENT_SHAPE_REPRESENTATION(#50238,#50240);
#50238 = ( REPRESENTATION_RELATIONSHIP('','',#43580,#10) 
REPRESENTATION_RELATIONSHIP_WITH_TRANSFORMATION(#50239) 
SHAPE_REPRESENTATION_RELATIONSHIP() );
#50239 = ITEM_DEFINED_TRANSFORMATION('','',#11,#123);
#50240 = PRODUCT_DEFINITION_SHAPE('Placement','Placement of an item',
  #50241);
#50241 = NEXT_ASSEMBLY_USAGE_OCCURRENCE('42','C11','',#5,#43575,$);
#63084 = CONTEXT_DEPENDENT_SHAPE_REPRESENTATION(#63085,#63087);
#63085 = ( REPRESENTATION_RELATIONSHIP('','',#43580,#10) 
REPRESENTATION_RELATIONSHIP_WITH_TRANSFORMATION(#63086) 
SHAPE_REPRESENTATION_RELATIONSHIP() );
#63086 = ITEM_DEFINED_TRANSFORMATION('','',#11,#139);
#63087 = PRODUCT_DEFINITION_SHAPE('Placement','Placement of an item',
  #63088);
#63088 = NEXT_ASSEMBLY_USAGE_OCCURRENCE('51','C2','',#5,#43575,$);
#65379 = SHAPE_DEFINITION_REPRESENTATION(#65380,#65386);
#65380 = PRODUCT_DEFINITION_SHAPE('','',#65381);
#65381 = PRODUCT_DEFINITION('design','',#65382,#65385);
#65382 = PRODUCT_DEFINITION_FORMATION('','',#65383);
#65383 = PRODUCT('L_0603_1608Metric','L_0603_1608Metric','',(#65384));
#65384 = PRODUCT_CONTEXT('',#2,'mechanical');
#65385 = PRODUCT_DEFINITION_CONTEXT('part definition',#2,'design');
#65386 = SHAPE_REPRESENTATION('',(#11,#65387),#65391);
#65387 = AXIS2_PLACEMENT_3D('',#65388,#65389,#65390);
#65388 = CARTESIAN_POINT('',(0.,0.,0.));
#65389 = DIRECTION('',(0.,0.,1.));
#65390 = DIRECTION('',(1.,0.,-0.));
#65391 = ( GEOMETRIC_REPRESENTATION_CONTEXT(3) 
GLOBAL_UNCERTAINTY_ASSIGNED_CONTEXT((#65395)) 
GLOBAL_UNIT_ASSIGNED_CONTEXT((#65392,#65393,#65394)) 
REPRESENTATION_CONTEXT('Context #1',
  '3D Context with UNIT and UNCERTAINTY') );
#65392 = ( LENGTH_UNIT() NAMED_UNIT(*) SI_UNIT(.MILLI.,.METRE.) );
#65393 = ( NAMED_UNIT(*) PLANE_ANGLE_UNIT() SI_UNIT($,.RADIAN.) );
#65394 = ( NAMED_UNIT(*) SI_UNIT($,.STERADIAN.) SOLID_ANGLE_UNIT() );
#65395 = UNCERTAINTY_MEASURE_WITH_UNIT(LENGTH_MEASURE(1.E-07),#65392,
  'distance_accuracy_value','confusion accuracy');
#65396 = CONTEXT_DEPENDENT_SHAPE_REPRESENTATION(#65397,#65399);
#65397 = ( REPRESENTATION_RELATIONSHIP('','',#65386,#10) 
REPRESENTATION_RELATIONSHIP_WITH_TRANSFORMATION(#65398) 
SHAPE_REPRESENTATION_RELATIONSHIP() );
#65398 = ITEM_DEFINED_TRANSFORMATION('','',#11,#155);
#65399 = PRODUCT_DEFINITION_SHAPE('Placement','Placement of an item',
  #65400);
#65400 = NEXT_ASSEMBLY_USAGE_OCCURRENCE('57','L1','',#5,#65381,$);
#65402 = SHAPE_DEFINITION_REPRESENTATION(#65403,#65409);
#65403 = PRODUCT_DEFINITION_SHAPE('','',#65404);
#65404 = PRODUCT_DEFINITION('design','',#65405,#65408);
#65405 = PRODUCT_DEFINITION_FORMATION('','',#65406);
#65406 = PRODUCT('L_0603_1608Metric','L_0603_1608Metric','',(#65407));
#65407 = PRODUCT_CONTEXT('',#2,'mechanical');
#65408 = PRODUCT_DEFINITION_CONTEXT('part definition',#2,'design');
#65409 = ADVANCED_BREP_SHAPE_REPRESENTATION('',(#11,#65410),#66264);
#65410 = MANIFOLD_SOLID_BREP('',#65411);
#65411 = CLOSED_SHELL('',());
#66264 = ( GEOMETRIC_REPRESENTATION_CONTEXT(3) 
GLOBAL_UNCERTAINTY_ASSIGNED_CONTEXT((#66268)) 
GLOBAL_UNIT_ASSIGNED_CONTEXT((#66265,#66266,#66267)) 
REPRESENTATION_CONTEXT('Context #1',
  '3D Context with UNIT and UNCERTAINTY') );
#66265 = ( LENGTH_UNIT() NAMED_UNIT(*) SI_UNIT(.MILLI.,.METRE.) );
#66266 = ( NAMED_UNIT(*) PLANE_ANGLE_UNIT() SI_UNIT($,.RADIAN.) );
#66267 = ( NAMED_UNIT(*) SI_UNIT($,.STERADIAN.) SOLID_ANGLE_UNIT() );
#66268 = UNCERTAINTY_MEASURE_WITH_UNIT(LENGTH_MEASURE(1.E-07),#66265,
  'distance_accuracy_value','confusion accuracy');
#66269 = CONTEXT_DEPENDENT_SHAPE_REPRESENTATION(#66270,#66272);
#66270 = ( REPRESENTATION_RELATIONSHIP('','',#65409,#65386) 
REPRESENTATION_RELATIONSHIP_WITH_TRANSFORMATION(#66271) 
SHAPE_REPRESENTATION_RELATIONSHIP() );
#66271 = ITEM_DEFINED_TRANSFORMATION('','',#11,#65387);
#66272 = PRODUCT_DEFINITION_SHAPE('Placement','Placement of an item',
  #66273);
#66273 = NEXT_ASSEMBLY_USAGE_OCCURRENCE('56','=>[0:1:1:37]','',#65381,
  #65404,$);
#66290 = CONTEXT_DEPENDENT_SHAPE_REPRESENTATION(#66291,#66293);
#66291 = ( REPRESENTATION_RELATIONSHIP('','',#1116,#10) 
REPRESENTATION_RELATIONSHIP_WITH_TRANSFORMATION(#66292) 
SHAPE_REPRESENTATION_RELATIONSHIP() );
#66292 = ITEM_DEFINED_TRANSFORMATION('','',#11,#171);
#66293 = PRODUCT_DEFINITION_SHAPE('Placement','Placement of an item',
  #66294);
#66294 = NEXT_ASSEMBLY_USAGE_OCCURRENCE('61','R1','',#5,#1111,$);
#73638 = CONTEXT_DEPENDENT_SHAPE_REPRESENTATION(#73639,#73641);
#73639 = ( REPRESENTATION_RELATIONSHIP('','',#43580,#10) 
REPRESENTATION_RELATIONSHIP_WITH_TRANSFORMATION(#73640) 
SHAPE_REPRESENTATION_RELATIONSHIP() );
#73640 = ITEM_DEFINED_TRANSFORMATION('','',#11,#183);
#73641 = PRODUCT_DEFINITION_SHAPE('Placement','Placement of an item',
  #73642);
#73642 = NEXT_ASSEMBLY_USAGE_OCCURRENCE('65','C3','',#5,#43575,$);
#82070 = SHAPE_DEFINITION_REPRESENTATION(#82071,#82077);
#82071 = PRODUCT_DEFINITION_SHAPE('','',#82072);
#82072 = PRODUCT_DEFINITION('design','',#82073,#82076);
#82073 = PRODUCT_DEFINITION_FORMATION('','',#82074);
#82074 = PRODUCT('RoyalBlue54L-Feather_PCB','RoyalBlue54L-Feather_PCB',
  '',(#82075));
#82075 = PRODUCT_CONTEXT('',#2,'mechanical');
#82076 = PRODUCT_DEFINITION_CONTEXT('part definition',#2,'design');
#82077 = ADVANCED_BREP_SHAPE_REPRESENTATION('',(#11,#82078),#87670);
#82078 = MANIFOLD_SOLID_BREP('',#82079);
#82079 = CLOSED_SHELL('',());
#87670 = ( GEOMETRIC_REPRESENTATION_CONTEXT(3) 
GLOBAL_UNCERTAINTY_ASSIGNED_CONTEXT((#87674)) 
GLOBAL_UNIT_ASSIGNED_CONTEXT((#87671,#87672,#87673)) 
REPRESENTATION_CONTEXT('Context #1',
  '3D Context with UNIT and UNCERTAINTY') );
#87671 = ( LENGTH_UNIT() NAMED_UNIT(*) SI_UNIT(.MILLI.,.METRE.) );
#87672 = ( NAMED_UNIT(*) PLANE_ANGLE_UNIT() SI_UNIT($,.RADIAN.) );
#87673 = ( NAMED_UNIT(*) SI_UNIT($,.STERADIAN.) SOLID_ANGLE_UNIT() );
#87674 = UNCERTAINTY_MEASURE_WITH_UNIT(LENGTH_MEASURE(1.E-07),#87671,
  'distance_accuracy_value','confusion accuracy');
#87675 = CONTEXT_DEPENDENT_SHAPE_REPRESENTATION(#87676,#87678);
#87676 = ( REPRESENTATION_RELATIONSHIP('','',#82077,#10) 
REPRESENTATION_RELATIONSHIP_WITH_TRANSFORMATION(#87677) 
SHAPE_REPRESENTATION_RELATIONSHIP() );
#87677 = ITEM_DEFINED_TRANSFORMATION('','',#11,#203);
#87678 = PRODUCT_DEFINITION_SHAPE('Placement','Placement of an item',
  #87679);
#87679 = NEXT_ASSEMBLY_USAGE_OCCURRENCE('71','=>[0:1:1:42]','',#5,#82072
  ,$);
ENDSEC;
END-ISO-10303-21;
