M48
; DRILL file KiCad 10.0.6 date 2026-10-07T02:03:44
; FORMAT={-:-/ absolute / metric / decimal}
; #@! TF.CreationDate,2026-10-07T02:03:44+00:00
; #@! TF.GenerationSoftware,Kicad,Pcbnew,10.0.6
; #@! TF.FileFunction,Plated,1,8,PTH
FMAT,2
METRIC
; #@! TA.AperFunction,Plated,PTH,ViaDrill
T1C0.000
; #@! TA.AperFunction,Plated,PTH,ComponentDrill
T2C0.200
; #@! TA.AperFunction,Plated,PTH,ComponentDrill
T3C0.600
; #@! TA.AperFunction,Plated,PTH,ComponentDrill
T4C1.000
%
G90
G05
T1
X122.06Y-110.53
X124.36Y-103.73
X124.385Y-106.73
X125.06Y-110.53
X125.06Y-112.53
X125.405Y-101.73
X125.405Y-102.53
X125.405Y-108.23
X126.49Y-98.633
X126.685Y-105.73
X126.785Y-104.755
X127.06Y-94.53
X127.06Y-96.53
X127.103Y-101.355
X127.31Y-104.0
X127.31Y-111.855
X127.41Y-106.81
X127.46Y-105.48
X127.49Y-98.633
X127.81Y-114.52
X128.043Y-101.355
X128.31Y-111.855
X128.49Y-98.633
X129.06Y-94.53
X129.06Y-96.53
X129.49Y-98.633
X129.77Y-106.76
X129.93Y-108.82
X130.16Y-106.35
X131.14Y-110.9
X131.21Y-112.06
X131.82Y-107.74
X132.24Y-109.5
X132.3Y-106.78
X132.72Y-105.66
X133.26Y-105.73
X133.39Y-104.33
X133.48Y-111.71
X133.609Y-108.06
X133.84Y-105.4
X134.44Y-111.71
X134.91Y-104.4
X135.87Y-104.4
X136.06Y-95.53
X136.07Y-98.06
X136.68Y-104.95
X137.88Y-101.308
X137.88Y-111.28
X138.59Y-111.69
X139.55Y-111.69
X139.88Y-104.57
X140.44Y-105.46
X140.44Y-107.28
X140.44Y-108.24
X140.44Y-111.01
X141.54Y-108.41
X141.95Y-107.59
X142.04Y-108.95
X142.54Y-109.39
X142.56Y-112.63
X142.98Y-101.9
X143.04Y-109.9
X143.06Y-112.03
X143.54Y-110.32
X144.085Y-102.03
X144.88Y-98.045
X145.065Y-108.67
X145.33Y-101.09
X145.33Y-102.01
X147.01Y-98.045
X147.01Y-99.595
X147.06Y-110.13
X147.06Y-110.93
X147.36Y-108.67
X148.165Y-100.565
X148.58Y-98.045
X150.045Y-100.59
X150.36Y-110.13
X150.37Y-111.705
X150.73Y-108.66
X150.84Y-97.92
X150.963Y-106.91
X151.14Y-105.21
X151.14Y-106.17
X151.2Y-101.78
X151.48Y-104.21
X151.595Y-100.59
X151.74Y-109.4
X152.3Y-102.83
X152.301Y-103.574
X152.39Y-108.421
X153.073Y-108.397
X153.23Y-101.81
X153.41Y-103.04
X153.71Y-98.355
X153.74Y-108.39
X154.19Y-101.81
X154.45Y-102.875
X154.46Y-106.94
X154.46Y-108.38
X155.13Y-98.67
X155.13Y-113.42
X155.2Y-104.92
X155.66Y-111.33
X155.689Y-109.459
X155.95Y-102.875
X155.95Y-106.965
X156.37Y-101.77
X157.85Y-111.6
X158.057Y-104.775
X158.06Y-102.46
X158.06Y-103.42
X158.073Y-108.633
X158.076Y-104.125
X158.66Y-105.105
X158.83Y-109.14
X158.879Y-106.005
X159.364Y-108.769
X159.53Y-103.163
X159.84Y-98.23
X160.02Y-103.59
X160.21Y-109.14
X160.21Y-110.1
X160.26Y-99.91
X160.26Y-100.87
X160.36Y-104.15
X160.99Y-105.43
X161.72Y-100.93
X161.72Y-101.83
X161.72Y-102.73
X161.72Y-104.53
X161.72Y-106.33
X161.72Y-109.03
X162.031Y-103.301
X162.34Y-98.23
X162.35Y-109.65
X162.56Y-111.63
X162.62Y-101.83
X162.62Y-102.73
X162.62Y-103.63
X162.62Y-105.43
X162.62Y-108.13
X162.62Y-109.03
X163.126Y-106.036
X163.22Y-104.26
X163.38Y-107.23
X163.52Y-101.83
X163.52Y-108.13
X163.53Y-109.02
X163.56Y-105.41
X164.062Y-111.65
X164.105Y-109.76
X164.42Y-109.03
X164.989Y-105.719
X165.18Y-104.39
X165.32Y-109.03
X165.638Y-105.731
X165.92Y-109.37
X165.95Y-107.51
X166.03Y-104.31
X166.19Y-110.01
X166.23Y-100.74
X166.754Y-103.874
X167.06Y-107.41
X167.12Y-100.93
X167.12Y-101.83
X167.12Y-108.13
X167.12Y-109.03
X167.18Y-102.76
X167.96Y-111.65
X168.02Y-109.03
X168.92Y-100.93
X168.92Y-101.83
X168.92Y-103.63
X168.92Y-104.53
X168.92Y-105.43
X169.19Y-111.13
X169.19Y-112.07
X169.59Y-97.88
X169.75Y-113.08
X170.21Y-111.13
X170.21Y-112.07
X170.22Y-97.33
T2
X135.33Y-106.58
X135.33Y-107.613
X135.33Y-108.647
X135.33Y-109.68
X136.363Y-106.58
X136.363Y-107.613
X136.363Y-108.647
X136.363Y-109.68
X137.397Y-106.58
X137.397Y-107.613
X137.397Y-108.647
X137.397Y-109.68
X138.43Y-106.58
X138.43Y-107.613
X138.43Y-108.647
X138.43Y-109.68
X146.58Y-103.46
X146.58Y-104.46
X146.58Y-105.46
X147.58Y-103.46
X147.58Y-104.46
X147.58Y-105.46
X148.58Y-103.46
X148.58Y-104.46
X148.58Y-105.46
T4
X133.07Y-115.14
X133.07Y-116.41
X135.61Y-115.14
X135.61Y-116.41
X138.15Y-115.14
X138.15Y-116.41
X140.69Y-115.14
X140.69Y-116.41
X143.23Y-93.55
X143.23Y-94.82
X143.23Y-94.82
X143.23Y-115.14
X143.23Y-116.41
X145.77Y-93.55
X145.77Y-94.82
X145.77Y-115.14
X145.77Y-116.41
X148.31Y-93.55
X148.31Y-94.82
X148.31Y-115.14
X148.31Y-116.41
X150.85Y-93.55
X150.85Y-94.82
X150.85Y-115.14
X150.85Y-116.41
X153.39Y-93.55
X153.39Y-94.82
X153.39Y-115.14
X153.39Y-116.41
X155.93Y-93.55
X155.93Y-94.82
X155.93Y-115.14
X155.93Y-116.41
X158.47Y-93.55
X158.47Y-94.82
X158.47Y-115.14
X158.47Y-116.41
X161.01Y-93.55
X161.01Y-94.82
X161.01Y-115.14
X161.01Y-116.41
X163.55Y-93.55
X163.55Y-94.82
X163.55Y-115.14
X163.55Y-116.41
X166.09Y-93.55
X166.09Y-94.82
X166.09Y-115.14
X166.09Y-116.41
X168.63Y-93.55
X168.63Y-94.82
X168.63Y-115.14
X168.63Y-116.41
X171.17Y-93.55
X171.17Y-94.82
X171.17Y-115.14
X171.17Y-116.41
T3
X120.61Y-100.66G85X120.01Y-100.66
G05
X120.61Y-109.3G85X120.01Y-109.3
G05
X125.04Y-100.66G85X123.94Y-100.66
G05
X125.04Y-109.3G85X123.94Y-109.3
G05
M30
