%TF.GenerationSoftware,KiCad,Pcbnew,10.0.6*%
%TF.CreationDate,2026-10-07T02:03:44+00:00*%
%TF.ProjectId,RoyalBlue54L-Feather,526f7961-6c42-46c7-9565-35344c2d4665,rev?*%
%TF.SameCoordinates,Original*%
%TF.FileFunction,Legend,Bot*%
%TF.FilePolarity,Positive*%
%FSLAX46Y46*%
G04 Gerber Fmt 4.6, Leading zero omitted, Abs format (unit mm)*
G04 Created by KiCad (PCBNEW 10.0.6) date 2026-10-07 02:03:44*
%MOMM*%
%LPD*%
G01*
G04 APERTURE LIST*
%ADD10C,0.160000*%
%ADD11C,0.120000*%
G04 APERTURE END LIST*
D10*
G36*
X167873331Y-107875068D02*
G01*
X167846818Y-107926898D01*
X167827755Y-107980770D01*
X167816265Y-108036557D01*
X167812368Y-108095491D01*
X167817449Y-108167498D01*
X167831948Y-108230594D01*
X167855074Y-108286055D01*
X167886500Y-108334951D01*
X167926381Y-108378104D01*
X167974128Y-108414911D01*
X168027923Y-108443661D01*
X168088623Y-108464667D01*
X168157401Y-108477773D01*
X168235690Y-108482353D01*
X168314245Y-108477767D01*
X168383198Y-108464650D01*
X168443994Y-108443635D01*
X168497818Y-108414889D01*
X168545536Y-108378104D01*
X168585435Y-108334949D01*
X168616876Y-108286051D01*
X168640010Y-108230591D01*
X168654514Y-108167496D01*
X168659598Y-108095491D01*
X168655700Y-108036557D01*
X168644210Y-107980770D01*
X168625148Y-107926898D01*
X168598635Y-107875068D01*
X168428251Y-107875068D01*
X168463940Y-107926973D01*
X168487553Y-107975983D01*
X168501639Y-108026702D01*
X168506408Y-108080659D01*
X168501528Y-108129089D01*
X168487668Y-108170200D01*
X168465379Y-108205377D01*
X168434357Y-108235601D01*
X168396789Y-108259352D01*
X168352136Y-108276908D01*
X168299017Y-108288052D01*
X168235690Y-108292021D01*
X168172685Y-108288059D01*
X168119755Y-108276926D01*
X168075182Y-108259372D01*
X168037609Y-108235601D01*
X168006587Y-108205377D01*
X167984297Y-108170200D01*
X167970437Y-108129089D01*
X167965557Y-108080659D01*
X167970326Y-108026702D01*
X167984413Y-107975983D01*
X168008025Y-107926973D01*
X168043715Y-107875068D01*
X167873331Y-107875068D01*
G37*
G36*
X168643966Y-107722477D02*
G01*
X168643966Y-107538385D01*
X167987441Y-107538385D01*
X167987441Y-107215124D01*
X167828000Y-107215124D01*
X167828000Y-107722477D01*
X168643966Y-107722477D01*
G37*
G36*
X168643966Y-107098095D02*
G01*
X168643966Y-106914003D01*
X168346087Y-106914003D01*
X168643966Y-106648615D01*
X168643966Y-106434859D01*
X168257574Y-106778637D01*
X167828000Y-106399469D01*
X167828000Y-106629936D01*
X168149374Y-106914003D01*
X167828000Y-106914003D01*
X167828000Y-107098095D01*
X168643966Y-107098095D01*
G37*
G36*
X168297153Y-102725709D02*
G01*
X168351362Y-102733972D01*
X168400212Y-102747245D01*
X168446293Y-102766293D01*
X168488615Y-102791043D01*
X168527560Y-102821830D01*
X168565563Y-102862077D01*
X168595451Y-102907351D01*
X168617441Y-102958350D01*
X168630783Y-103012552D01*
X168640293Y-103091050D01*
X168643966Y-103200572D01*
X168643966Y-103394708D01*
X167828000Y-103394708D01*
X167828000Y-103200572D01*
X167829885Y-103144622D01*
X167987441Y-103144622D01*
X167987441Y-103210616D01*
X168484524Y-103210616D01*
X168484524Y-103144622D01*
X168479954Y-103087632D01*
X168467275Y-103041049D01*
X168447565Y-103003008D01*
X168421217Y-102972027D01*
X168387582Y-102947005D01*
X168346722Y-102928598D01*
X168297134Y-102916894D01*
X168236813Y-102912701D01*
X168176228Y-102916905D01*
X168126359Y-102928647D01*
X168085211Y-102947122D01*
X168051286Y-102972241D01*
X168024662Y-103003379D01*
X168004790Y-103041462D01*
X167992033Y-103087934D01*
X167987441Y-103144622D01*
X167829885Y-103144622D01*
X167831645Y-103092398D01*
X167841119Y-103014188D01*
X167854475Y-102959589D01*
X167876509Y-102908096D01*
X167906420Y-102862412D01*
X167944406Y-102821830D01*
X167983359Y-102791056D01*
X168025760Y-102766304D01*
X168071998Y-102747245D01*
X168121045Y-102733989D01*
X168175713Y-102725718D01*
X168236813Y-102722839D01*
X168297153Y-102725709D01*
G37*
G36*
X168643966Y-102581575D02*
G01*
X168643966Y-102397483D01*
X167828000Y-102397483D01*
X167828000Y-102581575D01*
X168643966Y-102581575D01*
G37*
G36*
X168315956Y-101528074D02*
G01*
X168385824Y-101540526D01*
X168446809Y-101560334D01*
X168500180Y-101587194D01*
X168546904Y-101621236D01*
X168586317Y-101661803D01*
X168617353Y-101708096D01*
X168640205Y-101760944D01*
X168654556Y-101821452D01*
X168659598Y-101890941D01*
X168654565Y-101960188D01*
X168640231Y-102020566D01*
X168617391Y-102073379D01*
X168586348Y-102119714D01*
X168546904Y-102160390D01*
X168500164Y-102194532D01*
X168446784Y-102221463D01*
X168385799Y-102241319D01*
X168315940Y-102253799D01*
X168235690Y-102258185D01*
X168155708Y-102253805D01*
X168086024Y-102241335D01*
X168025134Y-102221487D01*
X167971782Y-102194553D01*
X167925013Y-102160390D01*
X167885587Y-102119717D01*
X167854558Y-102073382D01*
X167831727Y-102020569D01*
X167817398Y-101960191D01*
X167812368Y-101890941D01*
X167965557Y-101890941D01*
X167970263Y-101931789D01*
X167983683Y-101966375D01*
X168005522Y-101995999D01*
X168036485Y-102021477D01*
X168072773Y-102040615D01*
X168116981Y-102055108D01*
X168170669Y-102064477D01*
X168235690Y-102067853D01*
X168301040Y-102064471D01*
X168354906Y-102055091D01*
X168399174Y-102040597D01*
X168435431Y-102021477D01*
X168466419Y-101995996D01*
X168488272Y-101966371D01*
X168501700Y-101931786D01*
X168506408Y-101890941D01*
X168501689Y-101849822D01*
X168488243Y-101815071D01*
X168466387Y-101785372D01*
X168435431Y-101759893D01*
X168399174Y-101740773D01*
X168354906Y-101726279D01*
X168301040Y-101716899D01*
X168235690Y-101713517D01*
X168170669Y-101716893D01*
X168116981Y-101726262D01*
X168072773Y-101740755D01*
X168036485Y-101759893D01*
X168005554Y-101785369D01*
X167983712Y-101815067D01*
X167970274Y-101849819D01*
X167965557Y-101890941D01*
X167812368Y-101890941D01*
X167817407Y-101821449D01*
X167831753Y-101760941D01*
X167854596Y-101708092D01*
X167885618Y-101661801D01*
X167925013Y-101621236D01*
X167971766Y-101587173D01*
X168025109Y-101560310D01*
X168085999Y-101540510D01*
X168155692Y-101528069D01*
X168235690Y-101523698D01*
X168315956Y-101528074D01*
G37*
G36*
X162889256Y-107967050D02*
G01*
X162855583Y-108037293D01*
X162831565Y-108110024D01*
X162817211Y-108184991D01*
X162812368Y-108263042D01*
X162817449Y-108335049D01*
X162831948Y-108398145D01*
X162855074Y-108453606D01*
X162886500Y-108502502D01*
X162926381Y-108545655D01*
X162974128Y-108582462D01*
X163027923Y-108611212D01*
X163088623Y-108632218D01*
X163157401Y-108645324D01*
X163235690Y-108649904D01*
X163314882Y-108645227D01*
X163384184Y-108631864D01*
X163445102Y-108610474D01*
X163498866Y-108581221D01*
X163546367Y-108543775D01*
X163585748Y-108500014D01*
X163616936Y-108450073D01*
X163639989Y-108393057D01*
X163654498Y-108327816D01*
X163659598Y-108252997D01*
X163655688Y-108182686D01*
X163644210Y-108116478D01*
X163624995Y-108052714D01*
X163598635Y-107993337D01*
X163428251Y-107993337D01*
X163463048Y-108053772D01*
X163487016Y-108112161D01*
X163501602Y-108171541D01*
X163506408Y-108230515D01*
X163501487Y-108285238D01*
X163487693Y-108330670D01*
X163465921Y-108368507D01*
X163436262Y-108400032D01*
X163399432Y-108425024D01*
X163354858Y-108443534D01*
X163300956Y-108455342D01*
X163235690Y-108459572D01*
X163170908Y-108455492D01*
X163117259Y-108444100D01*
X163072787Y-108426253D01*
X163035948Y-108402212D01*
X163006045Y-108371659D01*
X162984222Y-108335169D01*
X162970456Y-108291540D01*
X162965557Y-108239149D01*
X162969612Y-108185849D01*
X162975013Y-108162007D01*
X162982459Y-108141611D01*
X163140630Y-108141611D01*
X163140630Y-108253981D01*
X163281314Y-108253981D01*
X163281314Y-107967050D01*
X162889256Y-107967050D01*
G37*
G36*
X163643966Y-107804543D02*
G01*
X163643966Y-107598909D01*
X163084308Y-107339248D01*
X163643966Y-107339248D01*
X163643966Y-107164731D01*
X162828000Y-107164731D01*
X162828000Y-107370322D01*
X163387658Y-107629983D01*
X162828000Y-107629983D01*
X162828000Y-107804543D01*
X163643966Y-107804543D01*
G37*
G36*
X163297153Y-106315572D02*
G01*
X163351362Y-106323835D01*
X163400212Y-106337108D01*
X163446293Y-106356156D01*
X163488615Y-106380906D01*
X163527560Y-106411693D01*
X163565563Y-106451940D01*
X163595451Y-106497214D01*
X163617441Y-106548213D01*
X163630783Y-106602415D01*
X163640293Y-106680914D01*
X163643966Y-106790435D01*
X163643966Y-106984571D01*
X162828000Y-106984571D01*
X162828000Y-106790435D01*
X162829885Y-106734485D01*
X162987441Y-106734485D01*
X162987441Y-106800479D01*
X163484524Y-106800479D01*
X163484524Y-106734485D01*
X163479954Y-106677495D01*
X163467275Y-106630912D01*
X163447565Y-106592871D01*
X163421217Y-106561891D01*
X163387582Y-106536868D01*
X163346722Y-106518461D01*
X163297134Y-106506757D01*
X163236813Y-106502564D01*
X163176228Y-106506768D01*
X163126359Y-106518510D01*
X163085211Y-106536985D01*
X163051286Y-106562104D01*
X163024662Y-106593242D01*
X163004790Y-106631325D01*
X162992033Y-106677798D01*
X162987441Y-106734485D01*
X162829885Y-106734485D01*
X162831645Y-106682261D01*
X162841119Y-106604051D01*
X162854475Y-106549452D01*
X162876509Y-106497960D01*
X162906420Y-106452275D01*
X162944406Y-106411693D01*
X162983359Y-106380919D01*
X163025760Y-106356167D01*
X163071998Y-106337108D01*
X163121045Y-106323852D01*
X163175713Y-106315581D01*
X163236813Y-106312702D01*
X163297153Y-106315572D01*
G37*
G36*
X143935337Y-113662000D02*
G01*
X143750305Y-113662000D01*
X143704870Y-113511937D01*
X143416999Y-113511937D01*
X143372034Y-113662000D01*
X143187002Y-113662000D01*
X143284254Y-113361874D01*
X143463375Y-113361874D01*
X143658964Y-113361874D01*
X143560913Y-113037275D01*
X143463375Y-113361874D01*
X143284254Y-113361874D01*
X143451407Y-112846033D01*
X143670890Y-112846033D01*
X143935337Y-113662000D01*
G37*
G36*
X142896912Y-112835217D02*
G01*
X142945667Y-112848959D01*
X142988240Y-112871008D01*
X143025590Y-112901356D01*
X143058347Y-112940604D01*
X143084226Y-112984959D01*
X143105228Y-113037164D01*
X143121089Y-113098449D01*
X143131244Y-113170277D01*
X143134856Y-113254309D01*
X143131248Y-113338068D01*
X143121101Y-113409715D01*
X143105246Y-113470897D01*
X143084241Y-113523062D01*
X143058347Y-113567429D01*
X143025590Y-113606677D01*
X142988240Y-113637025D01*
X142945667Y-113659073D01*
X142896912Y-113672815D01*
X142840745Y-113677631D01*
X142784809Y-113672822D01*
X142736210Y-113659095D01*
X142693731Y-113637056D01*
X142656420Y-113606704D01*
X142623656Y-113567429D01*
X142597761Y-113523062D01*
X142576756Y-113470897D01*
X142560901Y-113409715D01*
X142550755Y-113338068D01*
X142547146Y-113254309D01*
X142547230Y-113252355D01*
X142731238Y-113252355D01*
X142734903Y-113356774D01*
X142744104Y-113426409D01*
X142756585Y-113470415D01*
X142771847Y-113498851D01*
X142790515Y-113518132D01*
X142813072Y-113529745D01*
X142840745Y-113533821D01*
X142868667Y-113529731D01*
X142891374Y-113518097D01*
X142910110Y-113498812D01*
X142925375Y-113470415D01*
X142937855Y-113426409D01*
X142947057Y-113356774D01*
X142950721Y-113252355D01*
X142947055Y-113149067D01*
X142937854Y-113080243D01*
X142925375Y-113036787D01*
X142910152Y-113008820D01*
X142891439Y-112989778D01*
X142868720Y-112978264D01*
X142840745Y-112974212D01*
X142812773Y-112978268D01*
X142790104Y-112989786D01*
X142771475Y-113008825D01*
X142756371Y-113036787D01*
X142743999Y-113080231D01*
X142734874Y-113149055D01*
X142731238Y-113252355D01*
X142547230Y-113252355D01*
X142550759Y-113170277D01*
X142560913Y-113098449D01*
X142576774Y-113037164D01*
X142597777Y-112984959D01*
X142623656Y-112940604D01*
X142656420Y-112901329D01*
X142693731Y-112870977D01*
X142736210Y-112848938D01*
X142784809Y-112835210D01*
X142840745Y-112830401D01*
X142896912Y-112835217D01*
G37*
G36*
X171751933Y-96171043D02*
G01*
X171751933Y-96342990D01*
X171810835Y-96316851D01*
X171866697Y-96298587D01*
X171922057Y-96287203D01*
X171972356Y-96283591D01*
X172016429Y-96286405D01*
X172047976Y-96293721D01*
X172069937Y-96304205D01*
X172087500Y-96320501D01*
X172097843Y-96341315D01*
X172101481Y-96368147D01*
X172099019Y-96388618D01*
X172091983Y-96405203D01*
X172080196Y-96418852D01*
X172054045Y-96434147D01*
X172002960Y-96450018D01*
X171924570Y-96468043D01*
X171863525Y-96485538D01*
X171816595Y-96505662D01*
X171781247Y-96527724D01*
X171755310Y-96551330D01*
X171734075Y-96580905D01*
X171718486Y-96616385D01*
X171708611Y-96658967D01*
X171705087Y-96710234D01*
X171710056Y-96777417D01*
X171723865Y-96831813D01*
X171745554Y-96875948D01*
X171775142Y-96911637D01*
X171811128Y-96938417D01*
X171857179Y-96959050D01*
X171915589Y-96972647D01*
X171989111Y-96977631D01*
X172056946Y-96973940D01*
X172125417Y-96962781D01*
X172193376Y-96944529D01*
X172262150Y-96918866D01*
X172262150Y-96740032D01*
X172193594Y-96777403D01*
X172129948Y-96803193D01*
X172066359Y-96819280D01*
X172006807Y-96824442D01*
X171966899Y-96821431D01*
X171936846Y-96813393D01*
X171914526Y-96801434D01*
X171896547Y-96783634D01*
X171886086Y-96762109D01*
X171882469Y-96735586D01*
X171885069Y-96711111D01*
X171892358Y-96691763D01*
X171904225Y-96676333D01*
X171932078Y-96658678D01*
X171991035Y-96639013D01*
X172062287Y-96620988D01*
X172116511Y-96604359D01*
X172159511Y-96584566D01*
X172193121Y-96562183D01*
X172218895Y-96537505D01*
X172240031Y-96507265D01*
X172255372Y-96472126D01*
X172264966Y-96431141D01*
X172268348Y-96383046D01*
X172263636Y-96323230D01*
X172250336Y-96273285D01*
X172229053Y-96231289D01*
X172199490Y-96195907D01*
X172163951Y-96168828D01*
X172120291Y-96148388D01*
X172066836Y-96135172D01*
X172001549Y-96130401D01*
X171942390Y-96132901D01*
X171880588Y-96140562D01*
X171818078Y-96153085D01*
X171751933Y-96171043D01*
G37*
G36*
X171543008Y-96962000D02*
G01*
X171348871Y-96962000D01*
X171240698Y-96958354D01*
X171162487Y-96948880D01*
X171107889Y-96935524D01*
X171056396Y-96913490D01*
X171010712Y-96883579D01*
X170970130Y-96845593D01*
X170939356Y-96806640D01*
X170914604Y-96764239D01*
X170895545Y-96718001D01*
X170882289Y-96668954D01*
X170874018Y-96614286D01*
X170871139Y-96553186D01*
X171061001Y-96553186D01*
X171065205Y-96613771D01*
X171076947Y-96663640D01*
X171095422Y-96704788D01*
X171120541Y-96738713D01*
X171151679Y-96765337D01*
X171189762Y-96785209D01*
X171236234Y-96797966D01*
X171292922Y-96802558D01*
X171358916Y-96802558D01*
X171358916Y-96305475D01*
X171292922Y-96305475D01*
X171235932Y-96310045D01*
X171189349Y-96322724D01*
X171151308Y-96342434D01*
X171120327Y-96368782D01*
X171095305Y-96402417D01*
X171076898Y-96443277D01*
X171065194Y-96492865D01*
X171061001Y-96553186D01*
X170871139Y-96553186D01*
X170874009Y-96492846D01*
X170882272Y-96438637D01*
X170895545Y-96389787D01*
X170914593Y-96343706D01*
X170939343Y-96301384D01*
X170970130Y-96262439D01*
X171010377Y-96224436D01*
X171055651Y-96194548D01*
X171106650Y-96172558D01*
X171160852Y-96159216D01*
X171239350Y-96149706D01*
X171348871Y-96146033D01*
X171543008Y-96146033D01*
X171543008Y-96962000D01*
G37*
G36*
X170814975Y-96962000D02*
G01*
X170629943Y-96962000D01*
X170584507Y-96811937D01*
X170296637Y-96811937D01*
X170251672Y-96962000D01*
X170066639Y-96962000D01*
X170163891Y-96661874D01*
X170343012Y-96661874D01*
X170538602Y-96661874D01*
X170440551Y-96337275D01*
X170343012Y-96661874D01*
X170163891Y-96661874D01*
X170331044Y-96146033D01*
X170550527Y-96146033D01*
X170814975Y-96962000D01*
G37*
G36*
X146475337Y-113662000D02*
G01*
X146290305Y-113662000D01*
X146244870Y-113511937D01*
X145956999Y-113511937D01*
X145912034Y-113662000D01*
X145727002Y-113662000D01*
X145824254Y-113361874D01*
X146003375Y-113361874D01*
X146198964Y-113361874D01*
X146100913Y-113037275D01*
X146003375Y-113361874D01*
X145824254Y-113361874D01*
X145991407Y-112846033D01*
X146210890Y-112846033D01*
X146475337Y-113662000D01*
G37*
G36*
X145606938Y-113515063D02*
G01*
X145444346Y-113515063D01*
X145444346Y-112989843D01*
X145611255Y-113030485D01*
X145611255Y-112886675D01*
X145445329Y-112846033D01*
X145270298Y-112846033D01*
X145270298Y-113515063D01*
X145107706Y-113515063D01*
X145107706Y-113662000D01*
X145606938Y-113662000D01*
X145606938Y-113515063D01*
G37*
G36*
X156527064Y-96815063D02*
G01*
X156364471Y-96815063D01*
X156364471Y-96289843D01*
X156531381Y-96330485D01*
X156531381Y-96186675D01*
X156365455Y-96146033D01*
X156190424Y-96146033D01*
X156190424Y-96815063D01*
X156027832Y-96815063D01*
X156027832Y-96962000D01*
X156527064Y-96962000D01*
X156527064Y-96815063D01*
G37*
G36*
X155845236Y-96815063D02*
G01*
X155682643Y-96815063D01*
X155682643Y-96289843D01*
X155849553Y-96330485D01*
X155849553Y-96186675D01*
X155683626Y-96146033D01*
X155508596Y-96146033D01*
X155508596Y-96815063D01*
X155346003Y-96815063D01*
X155346003Y-96962000D01*
X155845236Y-96962000D01*
X155845236Y-96815063D01*
G37*
G36*
X154943966Y-107517556D02*
G01*
X154943966Y-107332524D01*
X154341712Y-107143132D01*
X154943966Y-106954253D01*
X154943966Y-106769221D01*
X154128000Y-107033626D01*
X154128000Y-107253109D01*
X154943966Y-107517556D01*
G37*
G36*
X154597153Y-106005034D02*
G01*
X154651362Y-106013297D01*
X154700212Y-106026570D01*
X154746293Y-106045618D01*
X154788615Y-106070368D01*
X154827560Y-106101155D01*
X154865563Y-106141402D01*
X154895451Y-106186677D01*
X154917441Y-106237675D01*
X154930783Y-106291877D01*
X154940293Y-106370376D01*
X154943966Y-106479897D01*
X154943966Y-106674033D01*
X154128000Y-106674033D01*
X154128000Y-106479897D01*
X154129885Y-106423947D01*
X154287441Y-106423947D01*
X154287441Y-106489941D01*
X154784524Y-106489941D01*
X154784524Y-106423947D01*
X154779954Y-106366957D01*
X154767275Y-106320374D01*
X154747565Y-106282333D01*
X154721217Y-106251353D01*
X154687582Y-106226330D01*
X154646722Y-106207923D01*
X154597134Y-106196219D01*
X154536813Y-106192026D01*
X154476228Y-106196230D01*
X154426359Y-106207972D01*
X154385211Y-106226447D01*
X154351286Y-106251566D01*
X154324662Y-106282704D01*
X154304790Y-106320787D01*
X154292033Y-106367260D01*
X154287441Y-106423947D01*
X154129885Y-106423947D01*
X154131645Y-106371723D01*
X154141119Y-106293513D01*
X154154475Y-106238915D01*
X154176509Y-106187422D01*
X154206420Y-106141737D01*
X154244406Y-106101155D01*
X154283359Y-106070381D01*
X154325760Y-106045629D01*
X154371998Y-106026570D01*
X154421045Y-106013314D01*
X154475713Y-106005043D01*
X154536813Y-106002164D01*
X154597153Y-106005034D01*
G37*
G36*
X154597153Y-105191901D02*
G01*
X154651362Y-105200164D01*
X154700212Y-105213436D01*
X154746293Y-105232485D01*
X154788615Y-105257235D01*
X154827560Y-105288022D01*
X154865563Y-105328269D01*
X154895451Y-105373543D01*
X154917441Y-105424542D01*
X154930783Y-105478744D01*
X154940293Y-105557242D01*
X154943966Y-105666763D01*
X154943966Y-105860900D01*
X154128000Y-105860900D01*
X154128000Y-105666763D01*
X154129885Y-105610813D01*
X154287441Y-105610813D01*
X154287441Y-105676808D01*
X154784524Y-105676808D01*
X154784524Y-105610813D01*
X154779954Y-105553824D01*
X154767275Y-105507241D01*
X154747565Y-105469200D01*
X154721217Y-105438219D01*
X154687582Y-105413197D01*
X154646722Y-105394790D01*
X154597134Y-105383086D01*
X154536813Y-105378893D01*
X154476228Y-105383097D01*
X154426359Y-105394839D01*
X154385211Y-105413314D01*
X154351286Y-105438433D01*
X154324662Y-105469571D01*
X154304790Y-105507654D01*
X154292033Y-105554126D01*
X154287441Y-105610813D01*
X154129885Y-105610813D01*
X154131645Y-105558590D01*
X154141119Y-105480379D01*
X154154475Y-105425781D01*
X154176509Y-105374288D01*
X154206420Y-105328604D01*
X154244406Y-105288022D01*
X154283359Y-105257248D01*
X154325760Y-105232496D01*
X154371998Y-105213436D01*
X154421045Y-105200181D01*
X154475713Y-105191909D01*
X154536813Y-105189031D01*
X154597153Y-105191901D01*
G37*
G36*
X141167050Y-113600743D02*
G01*
X141237293Y-113634416D01*
X141310024Y-113658434D01*
X141384991Y-113672788D01*
X141463042Y-113677631D01*
X141535049Y-113672550D01*
X141598145Y-113658051D01*
X141653606Y-113634925D01*
X141702502Y-113603499D01*
X141745655Y-113563618D01*
X141782462Y-113515871D01*
X141811212Y-113462076D01*
X141832218Y-113401376D01*
X141845324Y-113332598D01*
X141849904Y-113254309D01*
X141845227Y-113175117D01*
X141831864Y-113105815D01*
X141810474Y-113044897D01*
X141781221Y-112991133D01*
X141743775Y-112943632D01*
X141700014Y-112904251D01*
X141650073Y-112873063D01*
X141593057Y-112850010D01*
X141527816Y-112835501D01*
X141452997Y-112830401D01*
X141382686Y-112834311D01*
X141316478Y-112845789D01*
X141252714Y-112865004D01*
X141193337Y-112891364D01*
X141193337Y-113061748D01*
X141253772Y-113026951D01*
X141312161Y-113002983D01*
X141371541Y-112988397D01*
X141430515Y-112983591D01*
X141485238Y-112988512D01*
X141530670Y-113002306D01*
X141568507Y-113024078D01*
X141600032Y-113053737D01*
X141625024Y-113090567D01*
X141643534Y-113135141D01*
X141655342Y-113189043D01*
X141659572Y-113254309D01*
X141655492Y-113319091D01*
X141644100Y-113372740D01*
X141626253Y-113417212D01*
X141602212Y-113454051D01*
X141571659Y-113483954D01*
X141535169Y-113505777D01*
X141491540Y-113519543D01*
X141439149Y-113524442D01*
X141385849Y-113520387D01*
X141362007Y-113514986D01*
X141341611Y-113507540D01*
X141341611Y-113349369D01*
X141453981Y-113349369D01*
X141453981Y-113208685D01*
X141167050Y-113208685D01*
X141167050Y-113600743D01*
G37*
G36*
X141004543Y-112846033D02*
G01*
X140798909Y-112846033D01*
X140539248Y-113405691D01*
X140539248Y-112846033D01*
X140364731Y-112846033D01*
X140364731Y-113662000D01*
X140570322Y-113662000D01*
X140829983Y-113102341D01*
X140829983Y-113662000D01*
X141004543Y-113662000D01*
X141004543Y-112846033D01*
G37*
G36*
X140184571Y-113662000D02*
G01*
X139990435Y-113662000D01*
X139882261Y-113658354D01*
X139804051Y-113648880D01*
X139749452Y-113635524D01*
X139697960Y-113613490D01*
X139652275Y-113583579D01*
X139611693Y-113545593D01*
X139580919Y-113506640D01*
X139556167Y-113464239D01*
X139537108Y-113418001D01*
X139523852Y-113368954D01*
X139515581Y-113314286D01*
X139512702Y-113253186D01*
X139702564Y-113253186D01*
X139706768Y-113313771D01*
X139718510Y-113363640D01*
X139736985Y-113404788D01*
X139762104Y-113438713D01*
X139793242Y-113465337D01*
X139831325Y-113485209D01*
X139877798Y-113497966D01*
X139934485Y-113502558D01*
X140000479Y-113502558D01*
X140000479Y-113005475D01*
X139934485Y-113005475D01*
X139877495Y-113010045D01*
X139830912Y-113022724D01*
X139792871Y-113042434D01*
X139761891Y-113068782D01*
X139736868Y-113102417D01*
X139718461Y-113143277D01*
X139706757Y-113192865D01*
X139702564Y-113253186D01*
X139512702Y-113253186D01*
X139515572Y-113192846D01*
X139523835Y-113138637D01*
X139537108Y-113089787D01*
X139556156Y-113043706D01*
X139580906Y-113001384D01*
X139611693Y-112962439D01*
X139651940Y-112924436D01*
X139697214Y-112894548D01*
X139748213Y-112872558D01*
X139802415Y-112859216D01*
X139880914Y-112849706D01*
X139990435Y-112846033D01*
X140184571Y-112846033D01*
X140184571Y-113662000D01*
G37*
G36*
X163060274Y-102908854D02*
G01*
X163125543Y-102941205D01*
X163166129Y-102969335D01*
X163186974Y-102990547D01*
X163201743Y-103012995D01*
X163210972Y-103036996D01*
X163231351Y-102993248D01*
X163256827Y-102959478D01*
X163287225Y-102933987D01*
X163323569Y-102915498D01*
X163367094Y-102903910D01*
X163419556Y-102899793D01*
X163476982Y-102904418D01*
X163523101Y-102917271D01*
X163560259Y-102937557D01*
X163590037Y-102965531D01*
X163611486Y-102998750D01*
X163628407Y-103042522D01*
X163639758Y-103099392D01*
X163643966Y-103172319D01*
X163643966Y-103453522D01*
X162828000Y-103453522D01*
X162828000Y-103269430D01*
X163137504Y-103269430D01*
X163137504Y-103217284D01*
X163135109Y-103191938D01*
X163284441Y-103191938D01*
X163284441Y-103269430D01*
X163490777Y-103269430D01*
X163490777Y-103191938D01*
X163487543Y-103153709D01*
X163479169Y-103127071D01*
X163467036Y-103109017D01*
X163449170Y-103095758D01*
X163423844Y-103087125D01*
X163388439Y-103083885D01*
X163352620Y-103087124D01*
X163326898Y-103095760D01*
X163308669Y-103109017D01*
X163296269Y-103127109D01*
X163287733Y-103153751D01*
X163284441Y-103191938D01*
X163135109Y-103191938D01*
X163134725Y-103187880D01*
X163127039Y-103164273D01*
X163115034Y-103145306D01*
X163098071Y-103129178D01*
X163071150Y-103111480D01*
X163031210Y-103092006D01*
X162828000Y-103004982D01*
X162828000Y-102808922D01*
X163060274Y-102908854D01*
G37*
G36*
X163618956Y-102202364D02*
G01*
X163447009Y-102202364D01*
X163473148Y-102261265D01*
X163491412Y-102317127D01*
X163502796Y-102372487D01*
X163506408Y-102422787D01*
X163503594Y-102466859D01*
X163496278Y-102498406D01*
X163485794Y-102520368D01*
X163469498Y-102537931D01*
X163448684Y-102548273D01*
X163421852Y-102551912D01*
X163401381Y-102549449D01*
X163384796Y-102542414D01*
X163371147Y-102530626D01*
X163355852Y-102504475D01*
X163339981Y-102453390D01*
X163321956Y-102375001D01*
X163304461Y-102313955D01*
X163284337Y-102267025D01*
X163262275Y-102231677D01*
X163238669Y-102205740D01*
X163209094Y-102184506D01*
X163173614Y-102168917D01*
X163131032Y-102159041D01*
X163079765Y-102155518D01*
X163012582Y-102160487D01*
X162958186Y-102174295D01*
X162914051Y-102195984D01*
X162878362Y-102225573D01*
X162851582Y-102261559D01*
X162830949Y-102307609D01*
X162817352Y-102366019D01*
X162812368Y-102439542D01*
X162816059Y-102507376D01*
X162827218Y-102575848D01*
X162845470Y-102643807D01*
X162871133Y-102712581D01*
X163049967Y-102712581D01*
X163012596Y-102644024D01*
X162986806Y-102580378D01*
X162970719Y-102516790D01*
X162965557Y-102457237D01*
X162968568Y-102417329D01*
X162976606Y-102387276D01*
X162988565Y-102364956D01*
X163006365Y-102346977D01*
X163027890Y-102336517D01*
X163054413Y-102332899D01*
X163078888Y-102335500D01*
X163098236Y-102342789D01*
X163113666Y-102354655D01*
X163131321Y-102382509D01*
X163150986Y-102441465D01*
X163169011Y-102512717D01*
X163185640Y-102566942D01*
X163205433Y-102609941D01*
X163227816Y-102643552D01*
X163252494Y-102669325D01*
X163282734Y-102690461D01*
X163317873Y-102705802D01*
X163358858Y-102715396D01*
X163406953Y-102718778D01*
X163466769Y-102714066D01*
X163516714Y-102700766D01*
X163558710Y-102679483D01*
X163594092Y-102649920D01*
X163621171Y-102614382D01*
X163641611Y-102570721D01*
X163654827Y-102517266D01*
X163659598Y-102451980D01*
X163657098Y-102392820D01*
X163649437Y-102331019D01*
X163636914Y-102268509D01*
X163618956Y-102202364D01*
G37*
G36*
X163643966Y-102078539D02*
G01*
X163643966Y-101420561D01*
X163484524Y-101420561D01*
X163484524Y-101657269D01*
X162828000Y-101657269D01*
X162828000Y-101841360D01*
X163484524Y-101841360D01*
X163484524Y-102078539D01*
X163643966Y-102078539D01*
G37*
X163812000Y-103473410D02*
X163812000Y-101485176D01*
G36*
X158965087Y-112871043D02*
G01*
X158965087Y-113042990D01*
X159023989Y-113016851D01*
X159079851Y-112998587D01*
X159135211Y-112987203D01*
X159185510Y-112983591D01*
X159229583Y-112986405D01*
X159261130Y-112993721D01*
X159283091Y-113004205D01*
X159300654Y-113020501D01*
X159310997Y-113041315D01*
X159314635Y-113068147D01*
X159312173Y-113088618D01*
X159305137Y-113105203D01*
X159293350Y-113118852D01*
X159267199Y-113134147D01*
X159216114Y-113150018D01*
X159137724Y-113168043D01*
X159076679Y-113185538D01*
X159029749Y-113205662D01*
X158994401Y-113227724D01*
X158968464Y-113251330D01*
X158947229Y-113280905D01*
X158931640Y-113316385D01*
X158921765Y-113358967D01*
X158918241Y-113410234D01*
X158923210Y-113477417D01*
X158937019Y-113531813D01*
X158958708Y-113575948D01*
X158988296Y-113611637D01*
X159024282Y-113638417D01*
X159070333Y-113659050D01*
X159128743Y-113672647D01*
X159202265Y-113677631D01*
X159270100Y-113673940D01*
X159338571Y-113662781D01*
X159406530Y-113644529D01*
X159475304Y-113618866D01*
X159475304Y-113440032D01*
X159406748Y-113477403D01*
X159343102Y-113503193D01*
X159279513Y-113519280D01*
X159219961Y-113524442D01*
X159180053Y-113521431D01*
X159150000Y-113513393D01*
X159127680Y-113501434D01*
X159109701Y-113483634D01*
X159099240Y-113462109D01*
X159095623Y-113435586D01*
X159098223Y-113411111D01*
X159105512Y-113391763D01*
X159117379Y-113376333D01*
X159145232Y-113358678D01*
X159204189Y-113339013D01*
X159275441Y-113320988D01*
X159329665Y-113304359D01*
X159372665Y-113284566D01*
X159406275Y-113262183D01*
X159432049Y-113237505D01*
X159453185Y-113207265D01*
X159468526Y-113172126D01*
X159478120Y-113131141D01*
X159481502Y-113083046D01*
X159476790Y-113023230D01*
X159463490Y-112973285D01*
X159442207Y-112931289D01*
X159412644Y-112895907D01*
X159377105Y-112868828D01*
X159333445Y-112848388D01*
X159279990Y-112835172D01*
X159214703Y-112830401D01*
X159155544Y-112832901D01*
X159093742Y-112840562D01*
X159031232Y-112853085D01*
X158965087Y-112871043D01*
G37*
G36*
X158189995Y-113616668D02*
G01*
X158241825Y-113643181D01*
X158295697Y-113662244D01*
X158351484Y-113673734D01*
X158410418Y-113677631D01*
X158482425Y-113672550D01*
X158545521Y-113658051D01*
X158600982Y-113634925D01*
X158649878Y-113603499D01*
X158693031Y-113563618D01*
X158729838Y-113515871D01*
X158758588Y-113462076D01*
X158779594Y-113401376D01*
X158792699Y-113332598D01*
X158797280Y-113254309D01*
X158792693Y-113175754D01*
X158779577Y-113106801D01*
X158758562Y-113046005D01*
X158729816Y-112992181D01*
X158693031Y-112944463D01*
X158649876Y-112904564D01*
X158600978Y-112873123D01*
X158545518Y-112849989D01*
X158482423Y-112835485D01*
X158410418Y-112830401D01*
X158351484Y-112834299D01*
X158295697Y-112845789D01*
X158241825Y-112864851D01*
X158189995Y-112891364D01*
X158189995Y-113061748D01*
X158241900Y-113026059D01*
X158290910Y-113002446D01*
X158341628Y-112988360D01*
X158395586Y-112983591D01*
X158444016Y-112988471D01*
X158485127Y-113002331D01*
X158520304Y-113024620D01*
X158550528Y-113055642D01*
X158574279Y-113093210D01*
X158591835Y-113137863D01*
X158602979Y-113190982D01*
X158606948Y-113254309D01*
X158602986Y-113317314D01*
X158591853Y-113370244D01*
X158574299Y-113414817D01*
X158550528Y-113452390D01*
X158520304Y-113483412D01*
X158485127Y-113505702D01*
X158444016Y-113519562D01*
X158395586Y-113524442D01*
X158341628Y-113519673D01*
X158290910Y-113505586D01*
X158241900Y-113481974D01*
X158189995Y-113446284D01*
X158189995Y-113616668D01*
G37*
G36*
X158037404Y-112846033D02*
G01*
X157853312Y-112846033D01*
X157853312Y-113143912D01*
X157587924Y-112846033D01*
X157374169Y-112846033D01*
X157717947Y-113232425D01*
X157338778Y-113662000D01*
X157569245Y-113662000D01*
X157853312Y-113340625D01*
X157853312Y-113662000D01*
X158037404Y-113662000D01*
X158037404Y-112846033D01*
G37*
G36*
X154095337Y-113662000D02*
G01*
X153910305Y-113662000D01*
X153864870Y-113511937D01*
X153576999Y-113511937D01*
X153532034Y-113662000D01*
X153347002Y-113662000D01*
X153444254Y-113361874D01*
X153623375Y-113361874D01*
X153818964Y-113361874D01*
X153720913Y-113037275D01*
X153623375Y-113361874D01*
X153444254Y-113361874D01*
X153611407Y-112846033D01*
X153830890Y-112846033D01*
X154095337Y-113662000D01*
G37*
G36*
X153297720Y-113334226D02*
G01*
X153297720Y-113515063D01*
X152981169Y-113515063D01*
X152981169Y-113662000D01*
X152807078Y-113662000D01*
X152807078Y-113515063D01*
X152705223Y-113515063D01*
X152705223Y-113361874D01*
X152807078Y-113361874D01*
X152981169Y-113361874D01*
X153182956Y-113361874D01*
X152981169Y-113019641D01*
X152981169Y-113361874D01*
X152807078Y-113361874D01*
X152807078Y-112846033D01*
X153011772Y-112846033D01*
X153297720Y-113334226D01*
G37*
G36*
X159067064Y-96815063D02*
G01*
X158904471Y-96815063D01*
X158904471Y-96289843D01*
X159071381Y-96330485D01*
X159071381Y-96186675D01*
X158905455Y-96146033D01*
X158730424Y-96146033D01*
X158730424Y-96815063D01*
X158567832Y-96815063D01*
X158567832Y-96962000D01*
X159067064Y-96962000D01*
X159067064Y-96815063D01*
G37*
G36*
X158215210Y-96135217D02*
G01*
X158263965Y-96148959D01*
X158306537Y-96171008D01*
X158343887Y-96201356D01*
X158376644Y-96240604D01*
X158402523Y-96284959D01*
X158423526Y-96337164D01*
X158439386Y-96398449D01*
X158449541Y-96470277D01*
X158453153Y-96554309D01*
X158449545Y-96638068D01*
X158439399Y-96709715D01*
X158423544Y-96770897D01*
X158402539Y-96823062D01*
X158376644Y-96867429D01*
X158343887Y-96906677D01*
X158306537Y-96937025D01*
X158263965Y-96959073D01*
X158215210Y-96972815D01*
X158159042Y-96977631D01*
X158103106Y-96972822D01*
X158054508Y-96959095D01*
X158012028Y-96937056D01*
X157974717Y-96906704D01*
X157941953Y-96867429D01*
X157916059Y-96823062D01*
X157895054Y-96770897D01*
X157879199Y-96709715D01*
X157869052Y-96638068D01*
X157865444Y-96554309D01*
X157865528Y-96552355D01*
X158049536Y-96552355D01*
X158053201Y-96656774D01*
X158062402Y-96726409D01*
X158074882Y-96770415D01*
X158090144Y-96798851D01*
X158108812Y-96818132D01*
X158131370Y-96829745D01*
X158159042Y-96833821D01*
X158186965Y-96829731D01*
X158209671Y-96818097D01*
X158228407Y-96798812D01*
X158243672Y-96770415D01*
X158256153Y-96726409D01*
X158265354Y-96656774D01*
X158269019Y-96552355D01*
X158265353Y-96449067D01*
X158256152Y-96380243D01*
X158243672Y-96336787D01*
X158228450Y-96308820D01*
X158209737Y-96289778D01*
X158187017Y-96278264D01*
X158159042Y-96274212D01*
X158131070Y-96278268D01*
X158108401Y-96289786D01*
X158089773Y-96308825D01*
X158074669Y-96336787D01*
X158062297Y-96380231D01*
X158053172Y-96449055D01*
X158049536Y-96552355D01*
X157865528Y-96552355D01*
X157869056Y-96470277D01*
X157879211Y-96398449D01*
X157895072Y-96337164D01*
X157916074Y-96284959D01*
X157941953Y-96240604D01*
X157974717Y-96201329D01*
X158012028Y-96170977D01*
X158054508Y-96148938D01*
X158103106Y-96135210D01*
X158159042Y-96130401D01*
X158215210Y-96135217D01*
G37*
G36*
X161589204Y-112871043D02*
G01*
X161589204Y-113042990D01*
X161648106Y-113016851D01*
X161703968Y-112998587D01*
X161759328Y-112987203D01*
X161809627Y-112983591D01*
X161853700Y-112986405D01*
X161885247Y-112993721D01*
X161907208Y-113004205D01*
X161924771Y-113020501D01*
X161935114Y-113041315D01*
X161938752Y-113068147D01*
X161936290Y-113088618D01*
X161929254Y-113105203D01*
X161917467Y-113118852D01*
X161891316Y-113134147D01*
X161840231Y-113150018D01*
X161761841Y-113168043D01*
X161700796Y-113185538D01*
X161653866Y-113205662D01*
X161618518Y-113227724D01*
X161592581Y-113251330D01*
X161571346Y-113280905D01*
X161555757Y-113316385D01*
X161545882Y-113358967D01*
X161542358Y-113410234D01*
X161547327Y-113477417D01*
X161561136Y-113531813D01*
X161582825Y-113575948D01*
X161612413Y-113611637D01*
X161648399Y-113638417D01*
X161694450Y-113659050D01*
X161752860Y-113672647D01*
X161826382Y-113677631D01*
X161894217Y-113673940D01*
X161962688Y-113662781D01*
X162030647Y-113644529D01*
X162099421Y-113618866D01*
X162099421Y-113440032D01*
X162030865Y-113477403D01*
X161967219Y-113503193D01*
X161903630Y-113519280D01*
X161844078Y-113524442D01*
X161804170Y-113521431D01*
X161774117Y-113513393D01*
X161751797Y-113501434D01*
X161733818Y-113483634D01*
X161723357Y-113462109D01*
X161719740Y-113435586D01*
X161722340Y-113411111D01*
X161729629Y-113391763D01*
X161741496Y-113376333D01*
X161769349Y-113358678D01*
X161828306Y-113339013D01*
X161899558Y-113320988D01*
X161953782Y-113304359D01*
X161996782Y-113284566D01*
X162030392Y-113262183D01*
X162056166Y-113237505D01*
X162077302Y-113207265D01*
X162092643Y-113172126D01*
X162102237Y-113131141D01*
X162105619Y-113083046D01*
X162100907Y-113023230D01*
X162087607Y-112973285D01*
X162066324Y-112931289D01*
X162036761Y-112895907D01*
X162001222Y-112868828D01*
X161957562Y-112848388D01*
X161904107Y-112835172D01*
X161838820Y-112830401D01*
X161779661Y-112832901D01*
X161717859Y-112840562D01*
X161655349Y-112853085D01*
X161589204Y-112871043D01*
G37*
G36*
X161380279Y-113662000D02*
G01*
X161186142Y-113662000D01*
X161077969Y-113658354D01*
X160999758Y-113648880D01*
X160945160Y-113635524D01*
X160893667Y-113613490D01*
X160847983Y-113583579D01*
X160807401Y-113545593D01*
X160776627Y-113506640D01*
X160751875Y-113464239D01*
X160732816Y-113418001D01*
X160719560Y-113368954D01*
X160711289Y-113314286D01*
X160708410Y-113253186D01*
X160898272Y-113253186D01*
X160902476Y-113313771D01*
X160914218Y-113363640D01*
X160932693Y-113404788D01*
X160957812Y-113438713D01*
X160988950Y-113465337D01*
X161027033Y-113485209D01*
X161073505Y-113497966D01*
X161130193Y-113502558D01*
X161196187Y-113502558D01*
X161196187Y-113005475D01*
X161130193Y-113005475D01*
X161073203Y-113010045D01*
X161026620Y-113022724D01*
X160988579Y-113042434D01*
X160957598Y-113068782D01*
X160932576Y-113102417D01*
X160914169Y-113143277D01*
X160902465Y-113192865D01*
X160898272Y-113253186D01*
X160708410Y-113253186D01*
X160711280Y-113192846D01*
X160719543Y-113138637D01*
X160732816Y-113089787D01*
X160751864Y-113043706D01*
X160776614Y-113001384D01*
X160807401Y-112962439D01*
X160847648Y-112924436D01*
X160892922Y-112894548D01*
X160943921Y-112872558D01*
X160998123Y-112859216D01*
X161076621Y-112849706D01*
X161186142Y-112846033D01*
X161380279Y-112846033D01*
X161380279Y-113662000D01*
G37*
G36*
X160310267Y-112835434D02*
G01*
X160370645Y-112849768D01*
X160423458Y-112872608D01*
X160469793Y-112903651D01*
X160510469Y-112943095D01*
X160544611Y-112989835D01*
X160571542Y-113043215D01*
X160591397Y-113104200D01*
X160603878Y-113174059D01*
X160608264Y-113254309D01*
X160603884Y-113334291D01*
X160591414Y-113403975D01*
X160571566Y-113464865D01*
X160544631Y-113518217D01*
X160510469Y-113564986D01*
X160469796Y-113604412D01*
X160423461Y-113635441D01*
X160370648Y-113658272D01*
X160310270Y-113672601D01*
X160241020Y-113677631D01*
X160171528Y-113672592D01*
X160111020Y-113658246D01*
X160058171Y-113635403D01*
X160011880Y-113604381D01*
X159971315Y-113564986D01*
X159937252Y-113518233D01*
X159910388Y-113464890D01*
X159890589Y-113404000D01*
X159878147Y-113334307D01*
X159873777Y-113254309D01*
X160063596Y-113254309D01*
X160066972Y-113319330D01*
X160076341Y-113373018D01*
X160090834Y-113417226D01*
X160109972Y-113453514D01*
X160135448Y-113484445D01*
X160165146Y-113506287D01*
X160199898Y-113519725D01*
X160241020Y-113524442D01*
X160281868Y-113519736D01*
X160316454Y-113506316D01*
X160346078Y-113484477D01*
X160371556Y-113453514D01*
X160390694Y-113417226D01*
X160405187Y-113373018D01*
X160414556Y-113319330D01*
X160417932Y-113254309D01*
X160414550Y-113188959D01*
X160405170Y-113135093D01*
X160390675Y-113090825D01*
X160371556Y-113054568D01*
X160346075Y-113023580D01*
X160316450Y-113001727D01*
X160281865Y-112988299D01*
X160241020Y-112983591D01*
X160199901Y-112988310D01*
X160165150Y-113001756D01*
X160135451Y-113023612D01*
X160109972Y-113054568D01*
X160090852Y-113090825D01*
X160076358Y-113135093D01*
X160066978Y-113188959D01*
X160063596Y-113254309D01*
X159873777Y-113254309D01*
X159878153Y-113174043D01*
X159890605Y-113104175D01*
X159910413Y-113043190D01*
X159937273Y-112989819D01*
X159971315Y-112943095D01*
X160011882Y-112903682D01*
X160058175Y-112872646D01*
X160111023Y-112849794D01*
X160171531Y-112835443D01*
X160241020Y-112830401D01*
X160310267Y-112835434D01*
G37*
G36*
X136787556Y-112846033D02*
G01*
X136602524Y-112846033D01*
X136413132Y-113448287D01*
X136224253Y-112846033D01*
X136039221Y-112846033D01*
X136303626Y-113662000D01*
X136523109Y-113662000D01*
X136787556Y-112846033D01*
G37*
G36*
X135944033Y-113662000D02*
G01*
X135749897Y-113662000D01*
X135641723Y-113658354D01*
X135563513Y-113648880D01*
X135508915Y-113635524D01*
X135457422Y-113613490D01*
X135411737Y-113583579D01*
X135371155Y-113545593D01*
X135340381Y-113506640D01*
X135315629Y-113464239D01*
X135296570Y-113418001D01*
X135283314Y-113368954D01*
X135275043Y-113314286D01*
X135272164Y-113253186D01*
X135462026Y-113253186D01*
X135466230Y-113313771D01*
X135477972Y-113363640D01*
X135496447Y-113404788D01*
X135521566Y-113438713D01*
X135552704Y-113465337D01*
X135590787Y-113485209D01*
X135637260Y-113497966D01*
X135693947Y-113502558D01*
X135759941Y-113502558D01*
X135759941Y-113005475D01*
X135693947Y-113005475D01*
X135636957Y-113010045D01*
X135590374Y-113022724D01*
X135552333Y-113042434D01*
X135521353Y-113068782D01*
X135496330Y-113102417D01*
X135477923Y-113143277D01*
X135466219Y-113192865D01*
X135462026Y-113253186D01*
X135272164Y-113253186D01*
X135275034Y-113192846D01*
X135283297Y-113138637D01*
X135296570Y-113089787D01*
X135315618Y-113043706D01*
X135340368Y-113001384D01*
X135371155Y-112962439D01*
X135411402Y-112924436D01*
X135456677Y-112894548D01*
X135507675Y-112872558D01*
X135561877Y-112859216D01*
X135640376Y-112849706D01*
X135749897Y-112846033D01*
X135944033Y-112846033D01*
X135944033Y-113662000D01*
G37*
G36*
X135130900Y-113662000D02*
G01*
X134936763Y-113662000D01*
X134828590Y-113658354D01*
X134750379Y-113648880D01*
X134695781Y-113635524D01*
X134644288Y-113613490D01*
X134598604Y-113583579D01*
X134558022Y-113545593D01*
X134527248Y-113506640D01*
X134502496Y-113464239D01*
X134483436Y-113418001D01*
X134470181Y-113368954D01*
X134461909Y-113314286D01*
X134459031Y-113253186D01*
X134648893Y-113253186D01*
X134653097Y-113313771D01*
X134664839Y-113363640D01*
X134683314Y-113404788D01*
X134708433Y-113438713D01*
X134739571Y-113465337D01*
X134777654Y-113485209D01*
X134824126Y-113497966D01*
X134880813Y-113502558D01*
X134946808Y-113502558D01*
X134946808Y-113005475D01*
X134880813Y-113005475D01*
X134823824Y-113010045D01*
X134777241Y-113022724D01*
X134739200Y-113042434D01*
X134708219Y-113068782D01*
X134683197Y-113102417D01*
X134664790Y-113143277D01*
X134653086Y-113192865D01*
X134648893Y-113253186D01*
X134459031Y-113253186D01*
X134461901Y-113192846D01*
X134470164Y-113138637D01*
X134483436Y-113089787D01*
X134502485Y-113043706D01*
X134527235Y-113001384D01*
X134558022Y-112962439D01*
X134598269Y-112924436D01*
X134643543Y-112894548D01*
X134694542Y-112872558D01*
X134748744Y-112859216D01*
X134827242Y-112849706D01*
X134936763Y-112846033D01*
X135130900Y-112846033D01*
X135130900Y-113662000D01*
G37*
G36*
X151447064Y-96815063D02*
G01*
X151284471Y-96815063D01*
X151284471Y-96289843D01*
X151451381Y-96330485D01*
X151451381Y-96186675D01*
X151285455Y-96146033D01*
X151110424Y-96146033D01*
X151110424Y-96815063D01*
X150947832Y-96815063D01*
X150947832Y-96962000D01*
X151447064Y-96962000D01*
X151447064Y-96815063D01*
G37*
G36*
X150423808Y-96522020D02*
G01*
X150377830Y-96540616D01*
X150341831Y-96565379D01*
X150314088Y-96596075D01*
X150293657Y-96633313D01*
X150280990Y-96677424D01*
X150276518Y-96730164D01*
X150280008Y-96777927D01*
X150289981Y-96819247D01*
X150306077Y-96855286D01*
X150328463Y-96886898D01*
X150357814Y-96914568D01*
X150398898Y-96940113D01*
X150450577Y-96959879D01*
X150515081Y-96972885D01*
X150594992Y-96977631D01*
X150649914Y-96975102D01*
X150705225Y-96967471D01*
X150760040Y-96954800D01*
X150814475Y-96936989D01*
X150814475Y-96774421D01*
X150762435Y-96800480D01*
X150711936Y-96818824D01*
X150661012Y-96830132D01*
X150611747Y-96833821D01*
X150563364Y-96830044D01*
X150526847Y-96819941D01*
X150499634Y-96804854D01*
X150477867Y-96782593D01*
X150465094Y-96755457D01*
X150460653Y-96721811D01*
X150465231Y-96687164D01*
X150478329Y-96659619D01*
X150500574Y-96637401D01*
X150528437Y-96622586D01*
X150566723Y-96612526D01*
X150618415Y-96608727D01*
X150692060Y-96608727D01*
X150692060Y-96474295D01*
X150614611Y-96474295D01*
X150568558Y-96470938D01*
X150535113Y-96462127D01*
X150511345Y-96449285D01*
X150492599Y-96429903D01*
X150481355Y-96405113D01*
X150477365Y-96373130D01*
X150481141Y-96343619D01*
X150491984Y-96319727D01*
X150510362Y-96300053D01*
X150533491Y-96286491D01*
X150563911Y-96277531D01*
X150603583Y-96274212D01*
X150648062Y-96277146D01*
X150693514Y-96286082D01*
X150738485Y-96300651D01*
X150783871Y-96321106D01*
X150783871Y-96167917D01*
X150729286Y-96151420D01*
X150675818Y-96139780D01*
X150622435Y-96132719D01*
X150570629Y-96130401D01*
X150498853Y-96134422D01*
X150441879Y-96145349D01*
X150397135Y-96161769D01*
X150362388Y-96182718D01*
X150332283Y-96212009D01*
X150311042Y-96247130D01*
X150297915Y-96289216D01*
X150293273Y-96340157D01*
X150297215Y-96386660D01*
X150308352Y-96425301D01*
X150326270Y-96457687D01*
X150350652Y-96484202D01*
X150382619Y-96505737D01*
X150423808Y-96522020D01*
G37*
G36*
X166744773Y-113662000D02*
G01*
X166560681Y-113662000D01*
X166560681Y-113352495D01*
X166508535Y-113352495D01*
X166479131Y-113355274D01*
X166455524Y-113362960D01*
X166436557Y-113374965D01*
X166420429Y-113391928D01*
X166402731Y-113418849D01*
X166383257Y-113458789D01*
X166296233Y-113662000D01*
X166100173Y-113662000D01*
X166200105Y-113429725D01*
X166232456Y-113364456D01*
X166260586Y-113323870D01*
X166281798Y-113303025D01*
X166304246Y-113288256D01*
X166328247Y-113279027D01*
X166284499Y-113258648D01*
X166250729Y-113233172D01*
X166225238Y-113202774D01*
X166206749Y-113166430D01*
X166195161Y-113122905D01*
X166193486Y-113101560D01*
X166375136Y-113101560D01*
X166378375Y-113137379D01*
X166387011Y-113163101D01*
X166400268Y-113181330D01*
X166418360Y-113193730D01*
X166445002Y-113202266D01*
X166483189Y-113205558D01*
X166560681Y-113205558D01*
X166560681Y-112999222D01*
X166483189Y-112999222D01*
X166444960Y-113002456D01*
X166418322Y-113010830D01*
X166400268Y-113022963D01*
X166387009Y-113040829D01*
X166378376Y-113066155D01*
X166375136Y-113101560D01*
X166193486Y-113101560D01*
X166191044Y-113070443D01*
X166195669Y-113013017D01*
X166208522Y-112966898D01*
X166228808Y-112929740D01*
X166256782Y-112899962D01*
X166290001Y-112878513D01*
X166333773Y-112861592D01*
X166390643Y-112850241D01*
X166463570Y-112846033D01*
X166744773Y-112846033D01*
X166744773Y-113662000D01*
G37*
G36*
X165592606Y-113245565D02*
G01*
X165344913Y-113662000D01*
X165536656Y-113662000D01*
X165703523Y-113383270D01*
X165868979Y-113662000D01*
X166061705Y-113662000D01*
X165814012Y-113245565D01*
X166052131Y-112846033D01*
X165859875Y-112846033D01*
X165703523Y-113108936D01*
X165547641Y-112846033D01*
X165354445Y-112846033D01*
X165592606Y-113245565D01*
G37*
G36*
X134034229Y-113662000D02*
G01*
X133850137Y-113662000D01*
X133850137Y-113352495D01*
X133797991Y-113352495D01*
X133768587Y-113355274D01*
X133744980Y-113362960D01*
X133726013Y-113374965D01*
X133709885Y-113391928D01*
X133692187Y-113418849D01*
X133672713Y-113458789D01*
X133585689Y-113662000D01*
X133389629Y-113662000D01*
X133489561Y-113429725D01*
X133521912Y-113364456D01*
X133550042Y-113323870D01*
X133571254Y-113303025D01*
X133593702Y-113288256D01*
X133617703Y-113279027D01*
X133573955Y-113258648D01*
X133540185Y-113233172D01*
X133514694Y-113202774D01*
X133496205Y-113166430D01*
X133484617Y-113122905D01*
X133482942Y-113101560D01*
X133664592Y-113101560D01*
X133667831Y-113137379D01*
X133676467Y-113163101D01*
X133689724Y-113181330D01*
X133707816Y-113193730D01*
X133734458Y-113202266D01*
X133772645Y-113205558D01*
X133850137Y-113205558D01*
X133850137Y-112999222D01*
X133772645Y-112999222D01*
X133734416Y-113002456D01*
X133707778Y-113010830D01*
X133689724Y-113022963D01*
X133676465Y-113040829D01*
X133667832Y-113066155D01*
X133664592Y-113101560D01*
X133482942Y-113101560D01*
X133480500Y-113070443D01*
X133485125Y-113013017D01*
X133497978Y-112966898D01*
X133518264Y-112929740D01*
X133546238Y-112899962D01*
X133579457Y-112878513D01*
X133623229Y-112861592D01*
X133680099Y-112850241D01*
X133753026Y-112846033D01*
X134034229Y-112846033D01*
X134034229Y-113662000D01*
G37*
G36*
X132783071Y-112871043D02*
G01*
X132783071Y-113042990D01*
X132841972Y-113016851D01*
X132897834Y-112998587D01*
X132953194Y-112987203D01*
X133003494Y-112983591D01*
X133047566Y-112986405D01*
X133079113Y-112993721D01*
X133101075Y-113004205D01*
X133118638Y-113020501D01*
X133128980Y-113041315D01*
X133132619Y-113068147D01*
X133130156Y-113088618D01*
X133123121Y-113105203D01*
X133111333Y-113118852D01*
X133085182Y-113134147D01*
X133034097Y-113150018D01*
X132955708Y-113168043D01*
X132894662Y-113185538D01*
X132847732Y-113205662D01*
X132812384Y-113227724D01*
X132786447Y-113251330D01*
X132765213Y-113280905D01*
X132749624Y-113316385D01*
X132739748Y-113358967D01*
X132736225Y-113410234D01*
X132741194Y-113477417D01*
X132755002Y-113531813D01*
X132776691Y-113575948D01*
X132806280Y-113611637D01*
X132842266Y-113638417D01*
X132888316Y-113659050D01*
X132946726Y-113672647D01*
X133020249Y-113677631D01*
X133088083Y-113673940D01*
X133156555Y-113662781D01*
X133224514Y-113644529D01*
X133293288Y-113618866D01*
X133293288Y-113440032D01*
X133224731Y-113477403D01*
X133161085Y-113503193D01*
X133097497Y-113519280D01*
X133037944Y-113524442D01*
X132998036Y-113521431D01*
X132967983Y-113513393D01*
X132945663Y-113501434D01*
X132927684Y-113483634D01*
X132917224Y-113462109D01*
X132913606Y-113435586D01*
X132916207Y-113411111D01*
X132923496Y-113391763D01*
X132935362Y-113376333D01*
X132963216Y-113358678D01*
X133022172Y-113339013D01*
X133093424Y-113320988D01*
X133147649Y-113304359D01*
X133190648Y-113284566D01*
X133224259Y-113262183D01*
X133250032Y-113237505D01*
X133271168Y-113207265D01*
X133286509Y-113172126D01*
X133296103Y-113131141D01*
X133299485Y-113083046D01*
X133294773Y-113023230D01*
X133281473Y-112973285D01*
X133260190Y-112931289D01*
X133230627Y-112895907D01*
X133195089Y-112868828D01*
X133151428Y-112848388D01*
X133097973Y-112835172D01*
X133032687Y-112830401D01*
X132973527Y-112832901D01*
X132911726Y-112840562D01*
X132849216Y-112853085D01*
X132783071Y-112871043D01*
G37*
G36*
X132659246Y-112846033D02*
G01*
X132001268Y-112846033D01*
X132001268Y-113005475D01*
X132237976Y-113005475D01*
X132237976Y-113662000D01*
X132422067Y-113662000D01*
X132422067Y-113005475D01*
X132659246Y-113005475D01*
X132659246Y-112846033D01*
G37*
X134054117Y-112678000D02*
X132065883Y-112678000D01*
G36*
X163588428Y-96138563D02*
G01*
X163642824Y-96152974D01*
X163690793Y-96176129D01*
X163733300Y-96207958D01*
X163771016Y-96248957D01*
X163801817Y-96296178D01*
X163826361Y-96350372D01*
X163844597Y-96412560D01*
X163856118Y-96484017D01*
X163860176Y-96566228D01*
X163856595Y-96647380D01*
X163846515Y-96716884D01*
X163830741Y-96776330D01*
X163809802Y-96827117D01*
X163783924Y-96870408D01*
X163751362Y-96908552D01*
X163714305Y-96938086D01*
X163672133Y-96959559D01*
X163623913Y-96972943D01*
X163568459Y-96977631D01*
X163505715Y-96972198D01*
X163452255Y-96956814D01*
X163406488Y-96932318D01*
X163367184Y-96898789D01*
X163334661Y-96856630D01*
X163311435Y-96808472D01*
X163297099Y-96753134D01*
X163293146Y-96702516D01*
X163469510Y-96702516D01*
X163472673Y-96749853D01*
X163481088Y-96784854D01*
X163493659Y-96810374D01*
X163511878Y-96829886D01*
X163535594Y-96841965D01*
X163566578Y-96846326D01*
X163597245Y-96841980D01*
X163620820Y-96829914D01*
X163639027Y-96810374D01*
X163651599Y-96784854D01*
X163660013Y-96749853D01*
X163663176Y-96702516D01*
X163660013Y-96655179D01*
X163651599Y-96620178D01*
X163639027Y-96594658D01*
X163620820Y-96575118D01*
X163597245Y-96563052D01*
X163566578Y-96558706D01*
X163535594Y-96563067D01*
X163511878Y-96575146D01*
X163493659Y-96594658D01*
X163481088Y-96620178D01*
X163472673Y-96655179D01*
X163469510Y-96702516D01*
X163293146Y-96702516D01*
X163292086Y-96688936D01*
X163296556Y-96630865D01*
X163309369Y-96580476D01*
X163330159Y-96536330D01*
X163359277Y-96497401D01*
X163394633Y-96466035D01*
X163435158Y-96443348D01*
X163481837Y-96429228D01*
X163535975Y-96424274D01*
X163578409Y-96427694D01*
X163616330Y-96437561D01*
X163651753Y-96454096D01*
X163684676Y-96477373D01*
X163677823Y-96426114D01*
X163666287Y-96384317D01*
X163650651Y-96350389D01*
X163631119Y-96323060D01*
X163606915Y-96301050D01*
X163578142Y-96284911D01*
X163543894Y-96274713D01*
X163502977Y-96271085D01*
X163464627Y-96273901D01*
X163424588Y-96282565D01*
X163384157Y-96296696D01*
X163338974Y-96317980D01*
X163338974Y-96167917D01*
X163384746Y-96152843D01*
X163430785Y-96142125D01*
X163477605Y-96135702D01*
X163526400Y-96133528D01*
X163588428Y-96138563D01*
G37*
G36*
X166357135Y-96146033D02*
G01*
X165899534Y-96146033D01*
X165899534Y-96299222D01*
X166210357Y-96299222D01*
X166210357Y-96425447D01*
X166168042Y-96415335D01*
X166123803Y-96411769D01*
X166058399Y-96417070D01*
X166003923Y-96431903D01*
X165958491Y-96455181D01*
X165920606Y-96486556D01*
X165889449Y-96526547D01*
X165866943Y-96573588D01*
X165852875Y-96629084D01*
X165847901Y-96694993D01*
X165851330Y-96747674D01*
X165861153Y-96793826D01*
X165876971Y-96834519D01*
X165898798Y-96870590D01*
X165927060Y-96902600D01*
X165967964Y-96933920D01*
X166017084Y-96957311D01*
X166076025Y-96972275D01*
X166146756Y-96977631D01*
X166207167Y-96974333D01*
X166266991Y-96964442D01*
X166326041Y-96947986D01*
X166385345Y-96924484D01*
X166385345Y-96758789D01*
X166327061Y-96792343D01*
X166274642Y-96815063D01*
X166222732Y-96829328D01*
X166175907Y-96833821D01*
X166132415Y-96829197D01*
X166097921Y-96816411D01*
X166070504Y-96796305D01*
X166049295Y-96768678D01*
X166036488Y-96735394D01*
X166031993Y-96694700D01*
X166036507Y-96653658D01*
X166049329Y-96620314D01*
X166070504Y-96592851D01*
X166097905Y-96572885D01*
X166132399Y-96560177D01*
X166175907Y-96555579D01*
X166216127Y-96558342D01*
X166260579Y-96567059D01*
X166305962Y-96581183D01*
X166357135Y-96602474D01*
X166357135Y-96146033D01*
G37*
G36*
X169097725Y-96171043D02*
G01*
X169097725Y-96342990D01*
X169156627Y-96316851D01*
X169212489Y-96298587D01*
X169267849Y-96287203D01*
X169318148Y-96283591D01*
X169362221Y-96286405D01*
X169393768Y-96293721D01*
X169415729Y-96304205D01*
X169433292Y-96320501D01*
X169443635Y-96341315D01*
X169447273Y-96368147D01*
X169444811Y-96388618D01*
X169437775Y-96405203D01*
X169425988Y-96418852D01*
X169399837Y-96434147D01*
X169348752Y-96450018D01*
X169270362Y-96468043D01*
X169209317Y-96485538D01*
X169162387Y-96505662D01*
X169127039Y-96527724D01*
X169101102Y-96551330D01*
X169079867Y-96580905D01*
X169064278Y-96616385D01*
X169054403Y-96658967D01*
X169050879Y-96710234D01*
X169055848Y-96777417D01*
X169069657Y-96831813D01*
X169091346Y-96875948D01*
X169120934Y-96911637D01*
X169156920Y-96938417D01*
X169202971Y-96959050D01*
X169261381Y-96972647D01*
X169334903Y-96977631D01*
X169402738Y-96973940D01*
X169471209Y-96962781D01*
X169539168Y-96944529D01*
X169607942Y-96918866D01*
X169607942Y-96740032D01*
X169539386Y-96777403D01*
X169475740Y-96803193D01*
X169412151Y-96819280D01*
X169352599Y-96824442D01*
X169312691Y-96821431D01*
X169282638Y-96813393D01*
X169260318Y-96801434D01*
X169242339Y-96783634D01*
X169231878Y-96762109D01*
X169228261Y-96735586D01*
X169230861Y-96711111D01*
X169238150Y-96691763D01*
X169250017Y-96676333D01*
X169277870Y-96658678D01*
X169336827Y-96639013D01*
X169408079Y-96620988D01*
X169462303Y-96604359D01*
X169505303Y-96584566D01*
X169538913Y-96562183D01*
X169564687Y-96537505D01*
X169585823Y-96507265D01*
X169601164Y-96472126D01*
X169610758Y-96431141D01*
X169614140Y-96383046D01*
X169609428Y-96323230D01*
X169596128Y-96273285D01*
X169574845Y-96231289D01*
X169545282Y-96195907D01*
X169509743Y-96168828D01*
X169466083Y-96148388D01*
X169412628Y-96135172D01*
X169347341Y-96130401D01*
X169288182Y-96132901D01*
X169226380Y-96140562D01*
X169163870Y-96153085D01*
X169097725Y-96171043D01*
G37*
G36*
X168322633Y-96916668D02*
G01*
X168374463Y-96943181D01*
X168428335Y-96962244D01*
X168484122Y-96973734D01*
X168543056Y-96977631D01*
X168615063Y-96972550D01*
X168678159Y-96958051D01*
X168733620Y-96934925D01*
X168782516Y-96903499D01*
X168825669Y-96863618D01*
X168862476Y-96815871D01*
X168891226Y-96762076D01*
X168912232Y-96701376D01*
X168925337Y-96632598D01*
X168929918Y-96554309D01*
X168925331Y-96475754D01*
X168912215Y-96406801D01*
X168891200Y-96346005D01*
X168862454Y-96292181D01*
X168825669Y-96244463D01*
X168782514Y-96204564D01*
X168733616Y-96173123D01*
X168678156Y-96149989D01*
X168615061Y-96135485D01*
X168543056Y-96130401D01*
X168484122Y-96134299D01*
X168428335Y-96145789D01*
X168374463Y-96164851D01*
X168322633Y-96191364D01*
X168322633Y-96361748D01*
X168374538Y-96326059D01*
X168423548Y-96302446D01*
X168474266Y-96288360D01*
X168528224Y-96283591D01*
X168576654Y-96288471D01*
X168617765Y-96302331D01*
X168652942Y-96324620D01*
X168683166Y-96355642D01*
X168706917Y-96393210D01*
X168724473Y-96437863D01*
X168735617Y-96490982D01*
X168739586Y-96554309D01*
X168735624Y-96617314D01*
X168724491Y-96670244D01*
X168706937Y-96714817D01*
X168683166Y-96752390D01*
X168652942Y-96783412D01*
X168617765Y-96805702D01*
X168576654Y-96819562D01*
X168528224Y-96824442D01*
X168474266Y-96819673D01*
X168423548Y-96805586D01*
X168374538Y-96781974D01*
X168322633Y-96746284D01*
X168322633Y-96916668D01*
G37*
G36*
X168170042Y-96146033D02*
G01*
X167985950Y-96146033D01*
X167985950Y-96802558D01*
X167662689Y-96802558D01*
X167662689Y-96962000D01*
X168170042Y-96962000D01*
X168170042Y-96146033D01*
G37*
G36*
X163894975Y-112871043D02*
G01*
X163894975Y-113042990D01*
X163953877Y-113016851D01*
X164009739Y-112998587D01*
X164065099Y-112987203D01*
X164115398Y-112983591D01*
X164159471Y-112986405D01*
X164191018Y-112993721D01*
X164212979Y-113004205D01*
X164230542Y-113020501D01*
X164240885Y-113041315D01*
X164244523Y-113068147D01*
X164242061Y-113088618D01*
X164235025Y-113105203D01*
X164223238Y-113118852D01*
X164197087Y-113134147D01*
X164146002Y-113150018D01*
X164067612Y-113168043D01*
X164006567Y-113185538D01*
X163959637Y-113205662D01*
X163924289Y-113227724D01*
X163898352Y-113251330D01*
X163877117Y-113280905D01*
X163861528Y-113316385D01*
X163851653Y-113358967D01*
X163848129Y-113410234D01*
X163853098Y-113477417D01*
X163866907Y-113531813D01*
X163888596Y-113575948D01*
X163918184Y-113611637D01*
X163954170Y-113638417D01*
X164000221Y-113659050D01*
X164058631Y-113672647D01*
X164132153Y-113677631D01*
X164199988Y-113673940D01*
X164268459Y-113662781D01*
X164336418Y-113644529D01*
X164405192Y-113618866D01*
X164405192Y-113440032D01*
X164336636Y-113477403D01*
X164272990Y-113503193D01*
X164209401Y-113519280D01*
X164149849Y-113524442D01*
X164109941Y-113521431D01*
X164079888Y-113513393D01*
X164057568Y-113501434D01*
X164039589Y-113483634D01*
X164029128Y-113462109D01*
X164025511Y-113435586D01*
X164028111Y-113411111D01*
X164035400Y-113391763D01*
X164047267Y-113376333D01*
X164075120Y-113358678D01*
X164134077Y-113339013D01*
X164205329Y-113320988D01*
X164259553Y-113304359D01*
X164302553Y-113284566D01*
X164336163Y-113262183D01*
X164361937Y-113237505D01*
X164383073Y-113207265D01*
X164398414Y-113172126D01*
X164408008Y-113131141D01*
X164411390Y-113083046D01*
X164406678Y-113023230D01*
X164393378Y-112973285D01*
X164372095Y-112931289D01*
X164342532Y-112895907D01*
X164306993Y-112868828D01*
X164263333Y-112848388D01*
X164209878Y-112835172D01*
X164144591Y-112830401D01*
X164085432Y-112832901D01*
X164023630Y-112840562D01*
X163961120Y-112853085D01*
X163894975Y-112871043D01*
G37*
G36*
X163686050Y-113662000D02*
G01*
X163491913Y-113662000D01*
X163383740Y-113658354D01*
X163305529Y-113648880D01*
X163250931Y-113635524D01*
X163199438Y-113613490D01*
X163153754Y-113583579D01*
X163113172Y-113545593D01*
X163082398Y-113506640D01*
X163057646Y-113464239D01*
X163038587Y-113418001D01*
X163025331Y-113368954D01*
X163017060Y-113314286D01*
X163014181Y-113253186D01*
X163204043Y-113253186D01*
X163208247Y-113313771D01*
X163219989Y-113363640D01*
X163238464Y-113404788D01*
X163263583Y-113438713D01*
X163294721Y-113465337D01*
X163332804Y-113485209D01*
X163379276Y-113497966D01*
X163435964Y-113502558D01*
X163501958Y-113502558D01*
X163501958Y-113005475D01*
X163435964Y-113005475D01*
X163378974Y-113010045D01*
X163332391Y-113022724D01*
X163294350Y-113042434D01*
X163263369Y-113068782D01*
X163238347Y-113102417D01*
X163219940Y-113143277D01*
X163208236Y-113192865D01*
X163204043Y-113253186D01*
X163014181Y-113253186D01*
X163017051Y-113192846D01*
X163025314Y-113138637D01*
X163038587Y-113089787D01*
X163057635Y-113043706D01*
X163082385Y-113001384D01*
X163113172Y-112962439D01*
X163153419Y-112924436D01*
X163198693Y-112894548D01*
X163249692Y-112872558D01*
X163303894Y-112859216D01*
X163382392Y-112849706D01*
X163491913Y-112846033D01*
X163686050Y-112846033D01*
X163686050Y-113662000D01*
G37*
G36*
X162872917Y-112846033D02*
G01*
X162688825Y-112846033D01*
X162688825Y-113662000D01*
X162872917Y-113662000D01*
X162872917Y-112846033D01*
G37*
G36*
X146454515Y-96146033D02*
G01*
X145957676Y-96146033D01*
X145957676Y-96305475D01*
X146270423Y-96305475D01*
X146270423Y-96455538D01*
X145976312Y-96455538D01*
X145976312Y-96614979D01*
X146270423Y-96614979D01*
X146270423Y-96802558D01*
X145947162Y-96802558D01*
X145947162Y-96962000D01*
X146454515Y-96962000D01*
X146454515Y-96146033D01*
G37*
G36*
X145785680Y-96146033D02*
G01*
X145580046Y-96146033D01*
X145320386Y-96705691D01*
X145320386Y-96146033D01*
X145145868Y-96146033D01*
X145145868Y-96962000D01*
X145351459Y-96962000D01*
X145611120Y-96402341D01*
X145611120Y-96962000D01*
X145785680Y-96962000D01*
X145785680Y-96146033D01*
G37*
G36*
X144218499Y-96962000D02*
G01*
X143912933Y-96962000D01*
X143839660Y-96957571D01*
X143781590Y-96945528D01*
X143736018Y-96927386D01*
X143700631Y-96904114D01*
X143670639Y-96872172D01*
X143649103Y-96833274D01*
X143635604Y-96785993D01*
X143630790Y-96728161D01*
X143632103Y-96711064D01*
X143814882Y-96711064D01*
X143818329Y-96745501D01*
X143827802Y-96771669D01*
X143842878Y-96791567D01*
X143862867Y-96805520D01*
X143889963Y-96814745D01*
X143926311Y-96818189D01*
X144034407Y-96818189D01*
X144034407Y-96605600D01*
X143926311Y-96605600D01*
X143889619Y-96609032D01*
X143862468Y-96618191D01*
X143842621Y-96631979D01*
X143827658Y-96651650D01*
X143818285Y-96677372D01*
X143814882Y-96711064D01*
X143632103Y-96711064D01*
X143634645Y-96677969D01*
X143645622Y-96635083D01*
X143663317Y-96598127D01*
X143687691Y-96566782D01*
X143717951Y-96542651D01*
X143755128Y-96525440D01*
X143726036Y-96509121D01*
X143702722Y-96488491D01*
X143684389Y-96463402D01*
X143671107Y-96434357D01*
X143662870Y-96400884D01*
X143661009Y-96375817D01*
X143844075Y-96375817D01*
X143846818Y-96402953D01*
X143854405Y-96423871D01*
X143866557Y-96440053D01*
X143882640Y-96451504D01*
X143904108Y-96459008D01*
X143932552Y-96461790D01*
X144034407Y-96461790D01*
X144034407Y-96289843D01*
X143932552Y-96289843D01*
X143904131Y-96292658D01*
X143882661Y-96300257D01*
X143866557Y-96311874D01*
X143854374Y-96328190D01*
X143846801Y-96349037D01*
X143844075Y-96375817D01*
X143661009Y-96375817D01*
X143659983Y-96361993D01*
X143664646Y-96306469D01*
X143677618Y-96261950D01*
X143698173Y-96226103D01*
X143726704Y-96197422D01*
X143760144Y-96177236D01*
X143805166Y-96161081D01*
X143864689Y-96150125D01*
X143942083Y-96146033D01*
X144218499Y-96146033D01*
X144218499Y-96962000D01*
G37*
G36*
X143556802Y-96962000D02*
G01*
X143371770Y-96962000D01*
X143326335Y-96811937D01*
X143038464Y-96811937D01*
X142993499Y-96962000D01*
X142808467Y-96962000D01*
X142905719Y-96661874D01*
X143084840Y-96661874D01*
X143280429Y-96661874D01*
X143182378Y-96337275D01*
X143084840Y-96661874D01*
X142905719Y-96661874D01*
X143072872Y-96146033D01*
X143292355Y-96146033D01*
X143556802Y-96962000D01*
G37*
G36*
X142874974Y-96146033D02*
G01*
X142216996Y-96146033D01*
X142216996Y-96305475D01*
X142453704Y-96305475D01*
X142453704Y-96962000D01*
X142637796Y-96962000D01*
X142637796Y-96305475D01*
X142874974Y-96305475D01*
X142874974Y-96146033D01*
G37*
G36*
X139368376Y-95618743D02*
G01*
X139438619Y-95652416D01*
X139511350Y-95676434D01*
X139586317Y-95690788D01*
X139664368Y-95695631D01*
X139736375Y-95690550D01*
X139799471Y-95676051D01*
X139854932Y-95652925D01*
X139903828Y-95621499D01*
X139946981Y-95581618D01*
X139983788Y-95533871D01*
X140012538Y-95480076D01*
X140033544Y-95419376D01*
X140046650Y-95350598D01*
X140051230Y-95272309D01*
X140046553Y-95193117D01*
X140033190Y-95123815D01*
X140011800Y-95062897D01*
X139982547Y-95009133D01*
X139945101Y-94961632D01*
X139901340Y-94922251D01*
X139851399Y-94891063D01*
X139794383Y-94868010D01*
X139729142Y-94853501D01*
X139654323Y-94848401D01*
X139584012Y-94852311D01*
X139517804Y-94863789D01*
X139454040Y-94883004D01*
X139394663Y-94909364D01*
X139394663Y-95079748D01*
X139455098Y-95044951D01*
X139513487Y-95020983D01*
X139572867Y-95006397D01*
X139631841Y-95001591D01*
X139686564Y-95006512D01*
X139731996Y-95020306D01*
X139769833Y-95042078D01*
X139801358Y-95071737D01*
X139826350Y-95108567D01*
X139844860Y-95153141D01*
X139856668Y-95207043D01*
X139860898Y-95272309D01*
X139856818Y-95337091D01*
X139845426Y-95390740D01*
X139827579Y-95435212D01*
X139803538Y-95472051D01*
X139772985Y-95501954D01*
X139736495Y-95523777D01*
X139692866Y-95537543D01*
X139640475Y-95542442D01*
X139587175Y-95538387D01*
X139563333Y-95532986D01*
X139542937Y-95525540D01*
X139542937Y-95367369D01*
X139655307Y-95367369D01*
X139655307Y-95226685D01*
X139368376Y-95226685D01*
X139368376Y-95618743D01*
G37*
G36*
X139219248Y-95442302D02*
G01*
X139219248Y-95067243D01*
X139047081Y-95067243D01*
X139047081Y-95128646D01*
X139047594Y-95253991D01*
X139048064Y-95354570D01*
X139044730Y-95461256D01*
X139039679Y-95491352D01*
X139033232Y-95508688D01*
X139021060Y-95525709D01*
X139005749Y-95538290D01*
X138987843Y-95546006D01*
X138966768Y-95548695D01*
X138933133Y-95543291D01*
X138905583Y-95527762D01*
X138882608Y-95501556D01*
X138866406Y-95468304D01*
X138855868Y-95425466D01*
X138852004Y-95370495D01*
X138852004Y-95067243D01*
X138680820Y-95067243D01*
X138680820Y-95680000D01*
X138852004Y-95680000D01*
X138852004Y-95592463D01*
X138879361Y-95625785D01*
X138906653Y-95651495D01*
X138934027Y-95670523D01*
X138963550Y-95684362D01*
X138995200Y-95692764D01*
X139029428Y-95695631D01*
X139075269Y-95691124D01*
X139113152Y-95678481D01*
X139144609Y-95658417D01*
X139170735Y-95630809D01*
X139190769Y-95597277D01*
X139205903Y-95555848D01*
X139215703Y-95504866D01*
X139219248Y-95442302D01*
G37*
G36*
X138515963Y-95067243D02*
G01*
X138344779Y-95067243D01*
X138344779Y-95680000D01*
X138515963Y-95680000D01*
X138515963Y-95067243D01*
G37*
G36*
X138515963Y-94829644D02*
G01*
X138344779Y-94829644D01*
X138344779Y-94989085D01*
X138515963Y-94989085D01*
X138515963Y-94829644D01*
G37*
G36*
X137815798Y-95154780D02*
G01*
X137841075Y-95121582D01*
X137867089Y-95095859D01*
X137893974Y-95076720D01*
X137923232Y-95063013D01*
X137955784Y-95054547D01*
X137992239Y-95051612D01*
X138039891Y-95057334D01*
X138082137Y-95073995D01*
X138120197Y-95101702D01*
X138154831Y-95141688D01*
X138181899Y-95188338D01*
X138201692Y-95241694D01*
X138214081Y-95302956D01*
X138218432Y-95373621D01*
X138214081Y-95444287D01*
X138201692Y-95505549D01*
X138181899Y-95558904D01*
X138154831Y-95605554D01*
X138120197Y-95645541D01*
X138082137Y-95673248D01*
X138039891Y-95689909D01*
X137992239Y-95695631D01*
X137955456Y-95692715D01*
X137922844Y-95684333D01*
X137893760Y-95670816D01*
X137867048Y-95651801D01*
X137841107Y-95626003D01*
X137815798Y-95592463D01*
X137815798Y-95680000D01*
X137643631Y-95680000D01*
X137643631Y-95373621D01*
X137815798Y-95373621D01*
X137819555Y-95431922D01*
X137829620Y-95475837D01*
X137844734Y-95508541D01*
X137866700Y-95534143D01*
X137894083Y-95549519D01*
X137928638Y-95554947D01*
X137962879Y-95549535D01*
X137990119Y-95534174D01*
X138012071Y-95508541D01*
X138027186Y-95475837D01*
X138037251Y-95431922D01*
X138041008Y-95373621D01*
X138037250Y-95315320D01*
X138027184Y-95271424D01*
X138012071Y-95238750D01*
X137990115Y-95213087D01*
X137962875Y-95197712D01*
X137928638Y-95192295D01*
X137894087Y-95197728D01*
X137866703Y-95213119D01*
X137844734Y-95238750D01*
X137829621Y-95271424D01*
X137819556Y-95315320D01*
X137815798Y-95373621D01*
X137643631Y-95373621D01*
X137643631Y-94829644D01*
X137815798Y-94829644D01*
X137815798Y-95154780D01*
G37*
G36*
X137278578Y-95055484D02*
G01*
X137327494Y-95066498D01*
X137370189Y-95083995D01*
X137407537Y-95107670D01*
X137440219Y-95137585D01*
X137468071Y-95173559D01*
X137489875Y-95214342D01*
X137505846Y-95260621D01*
X137515836Y-95313333D01*
X137519336Y-95373621D01*
X137515744Y-95435104D01*
X137505524Y-95488458D01*
X137489236Y-95534931D01*
X137467056Y-95575539D01*
X137438766Y-95611025D01*
X137405715Y-95640191D01*
X137367473Y-95663458D01*
X137323260Y-95680781D01*
X137272094Y-95691754D01*
X137212829Y-95695631D01*
X137152247Y-95692094D01*
X137091398Y-95681416D01*
X137031059Y-95663932D01*
X136969924Y-95639357D01*
X136969924Y-95489295D01*
X137029994Y-95522829D01*
X137086354Y-95545715D01*
X137142960Y-95559772D01*
X137197057Y-95564326D01*
X137240754Y-95560013D01*
X137274814Y-95548213D01*
X137301306Y-95529937D01*
X137322100Y-95504241D01*
X137336709Y-95470566D01*
X137344818Y-95426769D01*
X136944577Y-95426769D01*
X136944577Y-95370495D01*
X136947902Y-95312219D01*
X136949269Y-95304842D01*
X137120548Y-95304842D01*
X137342895Y-95304842D01*
X137334729Y-95267047D01*
X137321736Y-95237397D01*
X137304170Y-95214326D01*
X137282028Y-95197244D01*
X137255480Y-95186663D01*
X137223344Y-95182916D01*
X137193987Y-95186842D01*
X137169586Y-95198042D01*
X137149015Y-95216475D01*
X137133478Y-95240618D01*
X137123923Y-95269618D01*
X137120548Y-95304842D01*
X136949269Y-95304842D01*
X136957428Y-95260794D01*
X136972710Y-95215214D01*
X136993622Y-95174644D01*
X137020360Y-95138464D01*
X137051975Y-95107779D01*
X137087365Y-95083809D01*
X137127062Y-95066310D01*
X137171785Y-95055413D01*
X137222404Y-95051612D01*
X137278578Y-95055484D01*
G37*
G36*
X136301892Y-95053598D02*
G01*
X136357424Y-95059574D01*
X136412666Y-95069362D01*
X136467870Y-95082875D01*
X136467870Y-95232937D01*
X136425824Y-95211168D01*
X136379906Y-95195422D01*
X136331433Y-95186140D01*
X136277581Y-95182916D01*
X136232255Y-95185903D01*
X136199983Y-95193654D01*
X136177649Y-95204752D01*
X136159939Y-95221926D01*
X136149354Y-95244248D01*
X136145592Y-95273433D01*
X136145592Y-95289211D01*
X136246464Y-95289211D01*
X136318332Y-95293142D01*
X136374328Y-95303730D01*
X136417352Y-95319472D01*
X136449918Y-95339330D01*
X136477750Y-95367283D01*
X136497705Y-95401810D01*
X136510232Y-95444265D01*
X136514716Y-95496769D01*
X136511297Y-95539928D01*
X136501465Y-95577591D01*
X136485437Y-95610813D01*
X136462869Y-95640334D01*
X136435616Y-95664073D01*
X136404535Y-95681232D01*
X136368901Y-95691896D01*
X136327760Y-95695631D01*
X136287118Y-95692565D01*
X136252534Y-95683921D01*
X136223041Y-95670279D01*
X136196182Y-95650786D01*
X136170412Y-95624157D01*
X136145592Y-95589337D01*
X136145592Y-95680000D01*
X135972955Y-95680000D01*
X135972955Y-95427062D01*
X136145592Y-95427062D01*
X136149400Y-95464811D01*
X136160378Y-95497090D01*
X136178589Y-95525150D01*
X136202375Y-95546975D01*
X136229138Y-95559898D01*
X136259885Y-95564326D01*
X136285103Y-95561735D01*
X136304873Y-95554616D01*
X136320366Y-95543517D01*
X136332310Y-95528129D01*
X136339562Y-95509302D01*
X136342122Y-95485973D01*
X136338980Y-95460954D01*
X136330063Y-95441214D01*
X136315109Y-95425450D01*
X136296164Y-95414819D01*
X136270013Y-95407610D01*
X136234539Y-95404884D01*
X136145592Y-95404884D01*
X136145592Y-95427062D01*
X135972955Y-95427062D01*
X135972955Y-95331563D01*
X135977757Y-95256699D01*
X135990843Y-95198120D01*
X136010838Y-95152549D01*
X136037282Y-95117459D01*
X136070518Y-95091021D01*
X136114555Y-95070439D01*
X136172107Y-95056704D01*
X136246464Y-95051612D01*
X136301892Y-95053598D01*
G37*
G36*
X135626270Y-94895296D02*
G01*
X135626270Y-95067243D01*
X135449829Y-95067243D01*
X135449829Y-95207927D01*
X135626270Y-95207927D01*
X135626270Y-95466824D01*
X135624203Y-95494757D01*
X135618972Y-95512962D01*
X135611482Y-95524319D01*
X135592450Y-95534714D01*
X135552668Y-95539316D01*
X135464661Y-95539316D01*
X135464661Y-95680000D01*
X135611482Y-95680000D01*
X135663450Y-95676225D01*
X135703118Y-95666093D01*
X135733015Y-95650956D01*
X135755182Y-95631493D01*
X135772151Y-95606104D01*
X135785358Y-95571850D01*
X135794201Y-95526390D01*
X135797497Y-95466824D01*
X135797497Y-95207927D01*
X135882597Y-95207927D01*
X135882597Y-95067243D01*
X135797497Y-95067243D01*
X135797497Y-94895296D01*
X135626270Y-94895296D01*
G37*
G36*
X135317541Y-95067243D02*
G01*
X135144904Y-95067243D01*
X135144904Y-95279832D01*
X135317541Y-95279832D01*
X135317541Y-95067243D01*
G37*
G36*
X135317541Y-95467411D02*
G01*
X135144904Y-95467411D01*
X135144904Y-95680000D01*
X135317541Y-95680000D01*
X135317541Y-95467411D01*
G37*
G36*
X140017763Y-96173644D02*
G01*
X139846579Y-96173644D01*
X139846579Y-97024000D01*
X140017763Y-97024000D01*
X140017763Y-96173644D01*
G37*
G36*
X139483344Y-96399475D02*
G01*
X139532168Y-96410449D01*
X139574643Y-96427856D01*
X139611666Y-96451373D01*
X139643937Y-96481048D01*
X139671370Y-96516736D01*
X139692902Y-96557398D01*
X139708717Y-96603752D01*
X139718633Y-96656768D01*
X139722113Y-96717621D01*
X139718633Y-96778475D01*
X139708717Y-96831490D01*
X139692902Y-96877844D01*
X139671370Y-96918507D01*
X139643937Y-96954195D01*
X139611666Y-96983869D01*
X139574643Y-97007386D01*
X139532168Y-97024793D01*
X139483344Y-97035767D01*
X139427104Y-97039631D01*
X139371062Y-97035767D01*
X139322432Y-97024793D01*
X139280147Y-97007388D01*
X139243307Y-96983873D01*
X139211212Y-96954195D01*
X139183963Y-96918536D01*
X139162561Y-96877889D01*
X139146833Y-96831536D01*
X139136969Y-96778505D01*
X139133506Y-96717621D01*
X139311871Y-96717621D01*
X139315699Y-96775479D01*
X139325993Y-96819332D01*
X139341534Y-96852248D01*
X139363955Y-96877988D01*
X139391887Y-96893476D01*
X139427104Y-96898947D01*
X139462989Y-96893449D01*
X139491312Y-96877933D01*
X139513914Y-96852248D01*
X139529574Y-96819312D01*
X139539938Y-96775459D01*
X139543791Y-96717621D01*
X139539938Y-96659783D01*
X139529574Y-96615930D01*
X139513914Y-96582995D01*
X139491312Y-96557310D01*
X139462989Y-96541793D01*
X139427104Y-96536295D01*
X139391887Y-96541767D01*
X139363955Y-96557255D01*
X139341534Y-96582995D01*
X139325993Y-96615911D01*
X139315699Y-96659763D01*
X139311871Y-96717621D01*
X139133506Y-96717621D01*
X139136969Y-96656738D01*
X139146833Y-96603707D01*
X139162561Y-96557353D01*
X139183963Y-96516707D01*
X139211212Y-96481048D01*
X139243307Y-96451370D01*
X139280147Y-96427854D01*
X139322432Y-96410450D01*
X139371062Y-96399476D01*
X139427104Y-96395612D01*
X139483344Y-96399475D01*
G37*
G36*
X138611193Y-96580064D02*
G01*
X138633871Y-96568829D01*
X138655901Y-96561159D01*
X138700610Y-96555053D01*
X138733060Y-96558379D01*
X138760179Y-96567768D01*
X138783003Y-96582793D01*
X138802252Y-96603658D01*
X138821105Y-96638338D01*
X138833350Y-96683742D01*
X138837856Y-96742925D01*
X138837856Y-97024000D01*
X139009040Y-97024000D01*
X139009040Y-96411243D01*
X138837856Y-96411243D01*
X138837856Y-96511285D01*
X138813744Y-96473307D01*
X138788516Y-96444410D01*
X138762074Y-96423309D01*
X138732612Y-96408294D01*
X138698711Y-96398909D01*
X138659492Y-96395612D01*
X138640856Y-96396491D01*
X138611663Y-96400252D01*
X138611193Y-96580064D01*
G37*
G36*
X138161841Y-96498780D02*
G01*
X138187119Y-96465582D01*
X138213132Y-96439859D01*
X138240017Y-96420720D01*
X138269275Y-96407013D01*
X138301827Y-96398547D01*
X138338282Y-96395612D01*
X138385935Y-96401334D01*
X138428181Y-96417995D01*
X138466240Y-96445702D01*
X138500874Y-96485688D01*
X138527942Y-96532338D01*
X138547735Y-96585694D01*
X138560124Y-96646956D01*
X138564475Y-96717621D01*
X138560124Y-96788287D01*
X138547735Y-96849549D01*
X138527942Y-96902904D01*
X138500874Y-96949554D01*
X138466240Y-96989541D01*
X138428181Y-97017248D01*
X138385935Y-97033909D01*
X138338282Y-97039631D01*
X138301499Y-97036715D01*
X138268888Y-97028333D01*
X138239803Y-97014816D01*
X138213091Y-96995801D01*
X138187150Y-96970003D01*
X138161841Y-96936463D01*
X138161841Y-97024000D01*
X137989674Y-97024000D01*
X137989674Y-96717621D01*
X138161841Y-96717621D01*
X138165598Y-96775922D01*
X138175663Y-96819837D01*
X138190778Y-96852541D01*
X138212743Y-96878143D01*
X138240126Y-96893519D01*
X138274681Y-96898947D01*
X138308922Y-96893535D01*
X138336162Y-96878174D01*
X138358114Y-96852541D01*
X138373229Y-96819837D01*
X138383294Y-96775922D01*
X138387051Y-96717621D01*
X138383293Y-96659320D01*
X138373227Y-96615424D01*
X138358114Y-96582750D01*
X138336159Y-96557087D01*
X138308919Y-96541712D01*
X138274681Y-96536295D01*
X138240130Y-96541728D01*
X138212747Y-96557119D01*
X138190778Y-96582750D01*
X138175665Y-96615424D01*
X138165599Y-96659320D01*
X138161841Y-96717621D01*
X137989674Y-96717621D01*
X137989674Y-96173644D01*
X138161841Y-96173644D01*
X138161841Y-96498780D01*
G37*
G36*
X137406837Y-96430001D02*
G01*
X137406837Y-96580064D01*
X137461765Y-96556482D01*
X137513010Y-96540203D01*
X137563617Y-96530117D01*
X137609565Y-96526916D01*
X137654934Y-96531008D01*
X137682014Y-96540936D01*
X137695383Y-96552186D01*
X137703045Y-96566222D01*
X137705693Y-96583972D01*
X137701238Y-96604772D01*
X137687784Y-96620168D01*
X137666006Y-96630143D01*
X137623456Y-96638829D01*
X137593323Y-96643713D01*
X137524032Y-96656929D01*
X137474139Y-96672399D01*
X137439465Y-96689150D01*
X137416412Y-96706533D01*
X137397414Y-96730048D01*
X137383328Y-96759725D01*
X137374264Y-96796951D01*
X137370976Y-96843602D01*
X137375228Y-96891059D01*
X137387245Y-96930316D01*
X137406661Y-96963105D01*
X137434107Y-96990489D01*
X137465946Y-97010264D01*
X137506610Y-97025675D01*
X137558038Y-97035885D01*
X137622473Y-97039631D01*
X137675939Y-97037330D01*
X137732236Y-97030252D01*
X137789102Y-97018668D01*
X137848667Y-97002115D01*
X137848667Y-96852053D01*
X137796670Y-96876745D01*
X137743734Y-96894258D01*
X137689537Y-96904805D01*
X137634441Y-96908326D01*
X137587680Y-96903791D01*
X137558872Y-96892597D01*
X137544533Y-96880102D01*
X137536340Y-96864865D01*
X137533526Y-96845946D01*
X137538011Y-96822943D01*
X137551008Y-96807112D01*
X137573043Y-96797006D01*
X137620550Y-96787328D01*
X137650683Y-96782981D01*
X137710063Y-96771406D01*
X137754719Y-96756872D01*
X137787505Y-96740265D01*
X137810882Y-96722164D01*
X137830238Y-96698258D01*
X137844459Y-96668712D01*
X137853525Y-96632312D01*
X137856788Y-96587391D01*
X137852764Y-96539633D01*
X137841492Y-96500725D01*
X137823512Y-96468828D01*
X137798444Y-96442750D01*
X137768955Y-96423879D01*
X137730717Y-96409095D01*
X137681716Y-96399244D01*
X137619610Y-96395612D01*
X137571773Y-96397643D01*
X137520191Y-96403965D01*
X137467139Y-96414315D01*
X137406837Y-96430001D01*
G37*
G36*
X137242578Y-97024000D02*
G01*
X137071394Y-97024000D01*
X137071394Y-96936463D01*
X137046107Y-96969637D01*
X137020008Y-96995365D01*
X136992962Y-97014523D01*
X136963534Y-97028222D01*
X136930742Y-97036692D01*
X136893970Y-97039631D01*
X136846317Y-97033909D01*
X136804072Y-97017248D01*
X136766012Y-96989541D01*
X136731378Y-96949554D01*
X136704310Y-96902904D01*
X136684517Y-96849549D01*
X136672128Y-96788287D01*
X136667777Y-96717621D01*
X136844731Y-96717621D01*
X136848488Y-96775922D01*
X136858553Y-96819837D01*
X136873668Y-96852541D01*
X136895633Y-96878143D01*
X136923016Y-96893519D01*
X136957571Y-96898947D01*
X136992153Y-96893502D01*
X137019720Y-96878043D01*
X137041987Y-96852248D01*
X137057389Y-96819325D01*
X137067597Y-96775469D01*
X137071394Y-96717621D01*
X137067596Y-96659773D01*
X137057387Y-96615936D01*
X137041987Y-96583043D01*
X137019716Y-96557219D01*
X136992149Y-96541745D01*
X136957571Y-96536295D01*
X136923020Y-96541728D01*
X136895637Y-96557119D01*
X136873668Y-96582750D01*
X136858555Y-96615424D01*
X136848489Y-96659320D01*
X136844731Y-96717621D01*
X136667777Y-96717621D01*
X136672128Y-96646956D01*
X136684517Y-96585694D01*
X136704310Y-96532338D01*
X136731378Y-96485688D01*
X136766012Y-96445702D01*
X136804072Y-96417995D01*
X136846317Y-96401334D01*
X136893970Y-96395612D01*
X136930742Y-96398550D01*
X136963534Y-96407020D01*
X136992962Y-96420720D01*
X137020008Y-96439878D01*
X137046107Y-96465606D01*
X137071394Y-96498780D01*
X137071394Y-96173644D01*
X137242578Y-96173644D01*
X137242578Y-97024000D01*
G37*
G36*
X136342967Y-96399475D02*
G01*
X136391792Y-96410449D01*
X136434266Y-96427856D01*
X136471289Y-96451373D01*
X136503560Y-96481048D01*
X136530993Y-96516736D01*
X136552525Y-96557398D01*
X136568340Y-96603752D01*
X136578256Y-96656768D01*
X136581736Y-96717621D01*
X136578256Y-96778475D01*
X136568340Y-96831490D01*
X136552525Y-96877844D01*
X136530993Y-96918507D01*
X136503560Y-96954195D01*
X136471289Y-96983869D01*
X136434266Y-97007386D01*
X136391792Y-97024793D01*
X136342967Y-97035767D01*
X136286728Y-97039631D01*
X136230685Y-97035767D01*
X136182055Y-97024793D01*
X136139771Y-97007388D01*
X136102930Y-96983873D01*
X136070835Y-96954195D01*
X136043586Y-96918536D01*
X136022184Y-96877889D01*
X136006456Y-96831536D01*
X135996592Y-96778505D01*
X135993129Y-96717621D01*
X136171494Y-96717621D01*
X136175323Y-96775479D01*
X136185616Y-96819332D01*
X136201157Y-96852248D01*
X136223579Y-96877988D01*
X136251510Y-96893476D01*
X136286728Y-96898947D01*
X136322612Y-96893449D01*
X136350936Y-96877933D01*
X136373538Y-96852248D01*
X136389197Y-96819312D01*
X136399561Y-96775459D01*
X136403415Y-96717621D01*
X136399561Y-96659783D01*
X136389197Y-96615930D01*
X136373538Y-96582995D01*
X136350936Y-96557310D01*
X136322612Y-96541793D01*
X136286728Y-96536295D01*
X136251510Y-96541767D01*
X136223579Y-96557255D01*
X136201157Y-96582995D01*
X136185616Y-96615911D01*
X136175323Y-96659763D01*
X136171494Y-96717621D01*
X135993129Y-96717621D01*
X135996592Y-96656738D01*
X136006456Y-96603707D01*
X136022184Y-96557353D01*
X136043586Y-96516707D01*
X136070835Y-96481048D01*
X136102930Y-96451370D01*
X136139771Y-96427854D01*
X136182055Y-96410450D01*
X136230685Y-96399476D01*
X136286728Y-96395612D01*
X136342967Y-96399475D01*
G37*
G36*
X135695975Y-96397598D02*
G01*
X135751506Y-96403574D01*
X135806748Y-96413362D01*
X135861953Y-96426875D01*
X135861953Y-96576937D01*
X135819906Y-96555168D01*
X135773989Y-96539422D01*
X135725516Y-96530140D01*
X135671663Y-96526916D01*
X135626337Y-96529903D01*
X135594065Y-96537654D01*
X135571731Y-96548752D01*
X135554021Y-96565926D01*
X135543437Y-96588248D01*
X135539674Y-96617433D01*
X135539674Y-96633211D01*
X135640546Y-96633211D01*
X135712414Y-96637142D01*
X135768410Y-96647730D01*
X135811435Y-96663472D01*
X135844001Y-96683330D01*
X135871833Y-96711283D01*
X135891788Y-96745810D01*
X135904315Y-96788265D01*
X135908798Y-96840769D01*
X135905379Y-96883928D01*
X135895547Y-96921591D01*
X135879519Y-96954813D01*
X135856952Y-96984334D01*
X135829698Y-97008073D01*
X135798617Y-97025232D01*
X135762984Y-97035896D01*
X135721843Y-97039631D01*
X135681200Y-97036565D01*
X135646616Y-97027921D01*
X135617124Y-97014279D01*
X135590265Y-96994786D01*
X135564495Y-96968157D01*
X135539674Y-96933337D01*
X135539674Y-97024000D01*
X135367037Y-97024000D01*
X135367037Y-96771062D01*
X135539674Y-96771062D01*
X135543482Y-96808811D01*
X135554461Y-96841090D01*
X135572671Y-96869150D01*
X135596458Y-96890975D01*
X135623220Y-96903898D01*
X135653968Y-96908326D01*
X135679186Y-96905735D01*
X135698955Y-96898616D01*
X135714448Y-96887517D01*
X135726393Y-96872129D01*
X135733644Y-96853302D01*
X135736204Y-96829973D01*
X135733063Y-96804954D01*
X135724146Y-96785214D01*
X135709191Y-96769450D01*
X135690247Y-96758819D01*
X135664095Y-96751610D01*
X135628621Y-96748884D01*
X135539674Y-96748884D01*
X135539674Y-96771062D01*
X135367037Y-96771062D01*
X135367037Y-96675563D01*
X135371840Y-96600699D01*
X135384925Y-96542120D01*
X135404920Y-96496549D01*
X135431365Y-96461459D01*
X135464601Y-96435021D01*
X135508637Y-96414439D01*
X135566189Y-96400704D01*
X135640546Y-96395612D01*
X135695975Y-96397598D01*
G37*
G36*
X134809504Y-96580064D02*
G01*
X134832182Y-96568829D01*
X134854213Y-96561159D01*
X134898921Y-96555053D01*
X134931371Y-96558379D01*
X134958491Y-96567768D01*
X134981315Y-96582793D01*
X135000563Y-96603658D01*
X135019416Y-96638338D01*
X135031662Y-96683742D01*
X135036168Y-96742925D01*
X135036168Y-97024000D01*
X135207351Y-97024000D01*
X135207351Y-96411243D01*
X135036168Y-96411243D01*
X135036168Y-96511285D01*
X135012055Y-96473307D01*
X134986828Y-96444410D01*
X134960385Y-96423309D01*
X134930923Y-96408294D01*
X134897022Y-96398909D01*
X134857803Y-96395612D01*
X134839167Y-96396491D01*
X134809974Y-96400252D01*
X134809504Y-96580064D01*
G37*
G36*
X134360152Y-96498780D02*
G01*
X134385430Y-96465582D01*
X134411443Y-96439859D01*
X134438328Y-96420720D01*
X134467587Y-96407013D01*
X134500139Y-96398547D01*
X134536593Y-96395612D01*
X134584246Y-96401334D01*
X134626492Y-96417995D01*
X134664551Y-96445702D01*
X134699186Y-96485688D01*
X134726253Y-96532338D01*
X134746046Y-96585694D01*
X134758435Y-96646956D01*
X134762786Y-96717621D01*
X134758435Y-96788287D01*
X134746046Y-96849549D01*
X134726253Y-96902904D01*
X134699186Y-96949554D01*
X134664551Y-96989541D01*
X134626492Y-97017248D01*
X134584246Y-97033909D01*
X134536593Y-97039631D01*
X134499810Y-97036715D01*
X134467199Y-97028333D01*
X134438114Y-97014816D01*
X134411403Y-96995801D01*
X134385461Y-96970003D01*
X134360152Y-96936463D01*
X134360152Y-97024000D01*
X134187985Y-97024000D01*
X134187985Y-96717621D01*
X134360152Y-96717621D01*
X134363909Y-96775922D01*
X134373974Y-96819837D01*
X134389089Y-96852541D01*
X134411055Y-96878143D01*
X134438438Y-96893519D01*
X134472992Y-96898947D01*
X134507233Y-96893535D01*
X134534473Y-96878174D01*
X134556426Y-96852541D01*
X134571540Y-96819837D01*
X134581605Y-96775922D01*
X134585362Y-96717621D01*
X134581604Y-96659320D01*
X134571539Y-96615424D01*
X134556426Y-96582750D01*
X134534470Y-96557087D01*
X134507230Y-96541712D01*
X134472992Y-96536295D01*
X134438441Y-96541728D01*
X134411058Y-96557119D01*
X134389089Y-96582750D01*
X134373976Y-96615424D01*
X134363910Y-96659320D01*
X134360152Y-96717621D01*
X134187985Y-96717621D01*
X134187985Y-96173644D01*
X134360152Y-96173644D01*
X134360152Y-96498780D01*
G37*
G36*
X133605149Y-96430001D02*
G01*
X133605149Y-96580064D01*
X133660076Y-96556482D01*
X133711321Y-96540203D01*
X133761928Y-96530117D01*
X133807876Y-96526916D01*
X133853246Y-96531008D01*
X133880325Y-96540936D01*
X133893694Y-96552186D01*
X133901357Y-96566222D01*
X133904004Y-96583972D01*
X133899550Y-96604772D01*
X133886095Y-96620168D01*
X133864317Y-96630143D01*
X133821768Y-96638829D01*
X133791634Y-96643713D01*
X133722343Y-96656929D01*
X133672451Y-96672399D01*
X133637776Y-96689150D01*
X133614723Y-96706533D01*
X133595725Y-96730048D01*
X133581639Y-96759725D01*
X133572576Y-96796951D01*
X133569288Y-96843602D01*
X133573539Y-96891059D01*
X133585556Y-96930316D01*
X133604972Y-96963105D01*
X133632418Y-96990489D01*
X133664257Y-97010264D01*
X133704922Y-97025675D01*
X133756350Y-97035885D01*
X133820785Y-97039631D01*
X133874250Y-97037330D01*
X133930547Y-97030252D01*
X133987414Y-97018668D01*
X134046978Y-97002115D01*
X134046978Y-96852053D01*
X133994982Y-96876745D01*
X133942045Y-96894258D01*
X133887848Y-96904805D01*
X133832752Y-96908326D01*
X133785991Y-96903791D01*
X133757184Y-96892597D01*
X133742844Y-96880102D01*
X133734651Y-96864865D01*
X133731837Y-96845946D01*
X133736323Y-96822943D01*
X133749319Y-96807112D01*
X133771354Y-96797006D01*
X133818861Y-96787328D01*
X133848995Y-96782981D01*
X133908375Y-96771406D01*
X133953030Y-96756872D01*
X133985816Y-96740265D01*
X134009193Y-96722164D01*
X134028549Y-96698258D01*
X134042770Y-96668712D01*
X134051836Y-96632312D01*
X134055099Y-96587391D01*
X134051075Y-96539633D01*
X134039804Y-96500725D01*
X134021823Y-96468828D01*
X133996755Y-96442750D01*
X133967266Y-96423879D01*
X133929028Y-96409095D01*
X133880028Y-96399244D01*
X133817921Y-96395612D01*
X133770084Y-96397643D01*
X133718502Y-96403965D01*
X133665450Y-96414315D01*
X133605149Y-96430001D01*
G37*
G36*
X133423194Y-96811411D02*
G01*
X133251027Y-96811411D01*
X133251027Y-97024000D01*
X133423194Y-97024000D01*
X133423194Y-96811411D01*
G37*
G36*
X132636091Y-96430001D02*
G01*
X132636091Y-96589443D01*
X132671649Y-96565528D01*
X132706146Y-96549338D01*
X132741844Y-96539574D01*
X132779064Y-96536295D01*
X132814629Y-96539607D01*
X132844442Y-96548937D01*
X132869555Y-96563766D01*
X132890751Y-96584118D01*
X132912217Y-96618591D01*
X132925774Y-96662220D01*
X132930672Y-96717621D01*
X132925775Y-96773023D01*
X132912219Y-96816670D01*
X132890751Y-96851173D01*
X132869558Y-96871502D01*
X132844446Y-96886317D01*
X132814632Y-96895638D01*
X132779064Y-96898947D01*
X132739646Y-96895554D01*
X132702812Y-96885563D01*
X132668107Y-96868926D01*
X132636091Y-96845800D01*
X132636091Y-97005242D01*
X132676665Y-97020318D01*
X132717643Y-97031034D01*
X132759089Y-97037487D01*
X132800564Y-97039631D01*
X132859535Y-97035753D01*
X132910670Y-97024754D01*
X132955069Y-97007349D01*
X132993673Y-96983919D01*
X133027227Y-96954488D01*
X133056043Y-96918682D01*
X133078566Y-96877932D01*
X133095056Y-96831531D01*
X133105375Y-96778497D01*
X133108994Y-96717621D01*
X133105374Y-96656744D01*
X133095055Y-96603715D01*
X133078564Y-96557325D01*
X133056041Y-96516590D01*
X133027227Y-96480803D01*
X132993670Y-96451354D01*
X132955065Y-96427910D01*
X132910666Y-96410496D01*
X132859532Y-96399491D01*
X132800564Y-96395612D01*
X132758744Y-96397767D01*
X132717643Y-96404209D01*
X132677006Y-96414891D01*
X132636091Y-96430001D01*
G37*
G36*
X132289610Y-96399475D02*
G01*
X132338435Y-96410449D01*
X132380909Y-96427856D01*
X132417933Y-96451373D01*
X132450204Y-96481048D01*
X132477636Y-96516736D01*
X132499169Y-96557398D01*
X132514984Y-96603752D01*
X132524899Y-96656768D01*
X132528380Y-96717621D01*
X132524899Y-96778475D01*
X132514984Y-96831490D01*
X132499169Y-96877844D01*
X132477636Y-96918507D01*
X132450204Y-96954195D01*
X132417933Y-96983869D01*
X132380909Y-97007386D01*
X132338435Y-97024793D01*
X132289610Y-97035767D01*
X132233371Y-97039631D01*
X132177329Y-97035767D01*
X132128699Y-97024793D01*
X132086414Y-97007388D01*
X132049573Y-96983873D01*
X132017479Y-96954195D01*
X131990229Y-96918536D01*
X131968827Y-96877889D01*
X131953100Y-96831536D01*
X131943236Y-96778505D01*
X131939773Y-96717621D01*
X132118137Y-96717621D01*
X132121966Y-96775479D01*
X132132260Y-96819332D01*
X132147800Y-96852248D01*
X132170222Y-96877988D01*
X132198153Y-96893476D01*
X132233371Y-96898947D01*
X132269255Y-96893449D01*
X132297579Y-96877933D01*
X132320181Y-96852248D01*
X132335841Y-96819312D01*
X132346205Y-96775459D01*
X132350058Y-96717621D01*
X132346205Y-96659783D01*
X132335841Y-96615930D01*
X132320181Y-96582995D01*
X132297579Y-96557310D01*
X132269255Y-96541793D01*
X132233371Y-96536295D01*
X132198153Y-96541767D01*
X132170222Y-96557255D01*
X132147800Y-96582995D01*
X132132260Y-96615911D01*
X132121966Y-96659763D01*
X132118137Y-96717621D01*
X131939773Y-96717621D01*
X131943236Y-96656738D01*
X131953100Y-96603707D01*
X131968827Y-96557353D01*
X131990229Y-96516707D01*
X132017479Y-96481048D01*
X132049573Y-96451370D01*
X132086414Y-96427854D01*
X132128699Y-96410450D01*
X132177329Y-96399476D01*
X132233371Y-96395612D01*
X132289610Y-96399475D01*
G37*
G36*
X131318938Y-96510992D02*
G01*
X131295309Y-96475661D01*
X131269606Y-96447298D01*
X131241702Y-96425165D01*
X131211024Y-96408792D01*
X131178443Y-96398951D01*
X131143437Y-96395612D01*
X131097861Y-96400125D01*
X131060182Y-96412794D01*
X131028876Y-96432913D01*
X131002857Y-96460629D01*
X130982923Y-96494212D01*
X130967853Y-96535726D01*
X130958090Y-96586836D01*
X130954558Y-96649575D01*
X130954558Y-97024000D01*
X131126725Y-97024000D01*
X131126725Y-96703406D01*
X131125998Y-96688605D01*
X131125742Y-96666623D01*
X131128053Y-96623072D01*
X131134010Y-96592605D01*
X131142497Y-96571955D01*
X131155524Y-96555957D01*
X131173028Y-96546116D01*
X131196523Y-96542548D01*
X131226874Y-96547787D01*
X131251497Y-96562886D01*
X131271836Y-96588661D01*
X131285739Y-96620915D01*
X131295297Y-96664359D01*
X131299319Y-96722066D01*
X131299319Y-97024000D01*
X131471486Y-97024000D01*
X131471486Y-96703406D01*
X131473898Y-96633807D01*
X131479613Y-96593231D01*
X131486788Y-96571955D01*
X131499046Y-96556133D01*
X131516586Y-96546220D01*
X131541327Y-96542548D01*
X131571981Y-96547824D01*
X131596841Y-96563024D01*
X131617366Y-96588954D01*
X131631336Y-96621374D01*
X131640651Y-96664584D01*
X131644123Y-96721529D01*
X131644123Y-97024000D01*
X131816247Y-97024000D01*
X131816247Y-96411243D01*
X131644123Y-96411243D01*
X131644123Y-96498780D01*
X131621397Y-96466595D01*
X131597285Y-96441098D01*
X131571674Y-96421550D01*
X131543656Y-96407210D01*
X131513762Y-96398556D01*
X131481530Y-96395612D01*
X131445313Y-96399116D01*
X131412878Y-96409282D01*
X131383522Y-96425946D01*
X131357545Y-96448749D01*
X131336113Y-96476879D01*
X131318938Y-96510992D01*
G37*
G36*
X130624971Y-96208033D02*
G01*
X130518841Y-96208033D01*
X130770851Y-97127168D01*
X130876510Y-97127168D01*
X130624971Y-96208033D01*
G37*
G36*
X130038757Y-96580064D02*
G01*
X130061435Y-96568829D01*
X130083466Y-96561159D01*
X130128175Y-96555053D01*
X130160624Y-96558379D01*
X130187744Y-96567768D01*
X130210568Y-96582793D01*
X130229816Y-96603658D01*
X130248669Y-96638338D01*
X130260915Y-96683742D01*
X130265421Y-96742925D01*
X130265421Y-97024000D01*
X130436605Y-97024000D01*
X130436605Y-96411243D01*
X130265421Y-96411243D01*
X130265421Y-96511285D01*
X130241308Y-96473307D01*
X130216081Y-96444410D01*
X130189638Y-96423309D01*
X130160176Y-96408294D01*
X130126275Y-96398909D01*
X130087056Y-96395612D01*
X130068421Y-96396491D01*
X130039228Y-96400252D01*
X130038757Y-96580064D01*
G37*
G36*
X129755151Y-96399475D02*
G01*
X129803976Y-96410449D01*
X129846450Y-96427856D01*
X129883474Y-96451373D01*
X129915744Y-96481048D01*
X129943177Y-96516736D01*
X129964710Y-96557398D01*
X129980525Y-96603752D01*
X129990440Y-96656768D01*
X129993920Y-96717621D01*
X129990440Y-96778475D01*
X129980525Y-96831490D01*
X129964710Y-96877844D01*
X129943177Y-96918507D01*
X129915744Y-96954195D01*
X129883474Y-96983869D01*
X129846450Y-97007386D01*
X129803976Y-97024793D01*
X129755151Y-97035767D01*
X129698912Y-97039631D01*
X129642869Y-97035767D01*
X129594239Y-97024793D01*
X129551955Y-97007388D01*
X129515114Y-96983873D01*
X129483019Y-96954195D01*
X129455770Y-96918536D01*
X129434368Y-96877889D01*
X129418641Y-96831536D01*
X129408776Y-96778505D01*
X129405314Y-96717621D01*
X129583678Y-96717621D01*
X129587507Y-96775479D01*
X129597800Y-96819332D01*
X129613341Y-96852248D01*
X129635763Y-96877988D01*
X129663694Y-96893476D01*
X129698912Y-96898947D01*
X129734796Y-96893449D01*
X129763120Y-96877933D01*
X129785722Y-96852248D01*
X129801381Y-96819312D01*
X129811745Y-96775459D01*
X129815599Y-96717621D01*
X129811745Y-96659783D01*
X129801381Y-96615930D01*
X129785722Y-96582995D01*
X129763120Y-96557310D01*
X129734796Y-96541793D01*
X129698912Y-96536295D01*
X129663694Y-96541767D01*
X129635763Y-96557255D01*
X129613341Y-96582995D01*
X129597800Y-96615911D01*
X129587507Y-96659763D01*
X129583678Y-96717621D01*
X129405314Y-96717621D01*
X129408776Y-96656738D01*
X129418641Y-96603707D01*
X129434368Y-96557353D01*
X129455770Y-96516707D01*
X129483019Y-96481048D01*
X129515114Y-96451370D01*
X129551955Y-96427854D01*
X129594239Y-96410450D01*
X129642869Y-96399476D01*
X129698912Y-96395612D01*
X129755151Y-96399475D01*
G37*
G36*
X129351116Y-96411243D02*
G01*
X129179932Y-96411243D01*
X129036018Y-96827042D01*
X128913604Y-96411243D01*
X128742420Y-96411243D01*
X128967630Y-97081348D01*
X128993849Y-97147537D01*
X129020303Y-97193601D01*
X129046789Y-97224034D01*
X129078695Y-97245924D01*
X129117845Y-97259762D01*
X129166084Y-97264725D01*
X129265075Y-97264725D01*
X129265075Y-97136547D01*
X129211519Y-97136547D01*
X129171471Y-97131957D01*
X129148175Y-97120769D01*
X129131417Y-97100380D01*
X129117315Y-97064251D01*
X129112527Y-97047300D01*
X129351116Y-96411243D01*
G37*
G36*
X128469415Y-96397598D02*
G01*
X128524946Y-96403574D01*
X128580189Y-96413362D01*
X128635393Y-96426875D01*
X128635393Y-96576937D01*
X128593347Y-96555168D01*
X128547429Y-96539422D01*
X128498956Y-96530140D01*
X128445103Y-96526916D01*
X128399777Y-96529903D01*
X128367506Y-96537654D01*
X128345171Y-96548752D01*
X128327461Y-96565926D01*
X128316877Y-96588248D01*
X128313114Y-96617433D01*
X128313114Y-96633211D01*
X128413987Y-96633211D01*
X128485855Y-96637142D01*
X128541850Y-96647730D01*
X128584875Y-96663472D01*
X128617441Y-96683330D01*
X128645273Y-96711283D01*
X128665228Y-96745810D01*
X128677755Y-96788265D01*
X128682239Y-96840769D01*
X128678820Y-96883928D01*
X128668987Y-96921591D01*
X128652960Y-96954813D01*
X128630392Y-96984334D01*
X128603139Y-97008073D01*
X128572058Y-97025232D01*
X128536424Y-97035896D01*
X128495283Y-97039631D01*
X128454641Y-97036565D01*
X128420056Y-97027921D01*
X128390564Y-97014279D01*
X128363705Y-96994786D01*
X128337935Y-96968157D01*
X128313114Y-96933337D01*
X128313114Y-97024000D01*
X128140478Y-97024000D01*
X128140478Y-96771062D01*
X128313114Y-96771062D01*
X128316923Y-96808811D01*
X128327901Y-96841090D01*
X128346112Y-96869150D01*
X128369898Y-96890975D01*
X128396661Y-96903898D01*
X128427408Y-96908326D01*
X128452626Y-96905735D01*
X128472395Y-96898616D01*
X128487889Y-96887517D01*
X128499833Y-96872129D01*
X128507084Y-96853302D01*
X128509644Y-96829973D01*
X128506503Y-96804954D01*
X128497586Y-96785214D01*
X128482631Y-96769450D01*
X128463687Y-96758819D01*
X128437536Y-96751610D01*
X128402062Y-96748884D01*
X128313114Y-96748884D01*
X128313114Y-96771062D01*
X128140478Y-96771062D01*
X128140478Y-96675563D01*
X128145280Y-96600699D01*
X128158365Y-96542120D01*
X128178361Y-96496549D01*
X128204805Y-96461459D01*
X128238041Y-96435021D01*
X128282077Y-96414439D01*
X128339629Y-96400704D01*
X128413987Y-96395612D01*
X128469415Y-96397598D01*
G37*
G36*
X127980792Y-96173644D02*
G01*
X127809608Y-96173644D01*
X127809608Y-97024000D01*
X127980792Y-97024000D01*
X127980792Y-96173644D01*
G37*
G36*
X127645006Y-97024000D02*
G01*
X127473823Y-97024000D01*
X127473823Y-96936463D01*
X127448535Y-96969637D01*
X127422437Y-96995365D01*
X127395390Y-97014523D01*
X127365962Y-97028222D01*
X127333171Y-97036692D01*
X127296399Y-97039631D01*
X127248746Y-97033909D01*
X127206500Y-97017248D01*
X127168441Y-96989541D01*
X127133806Y-96949554D01*
X127106738Y-96902904D01*
X127086946Y-96849549D01*
X127074557Y-96788287D01*
X127070205Y-96717621D01*
X127247159Y-96717621D01*
X127250917Y-96775922D01*
X127260981Y-96819837D01*
X127276096Y-96852541D01*
X127298062Y-96878143D01*
X127325445Y-96893519D01*
X127360000Y-96898947D01*
X127394581Y-96893502D01*
X127422148Y-96878043D01*
X127444416Y-96852248D01*
X127459817Y-96819325D01*
X127470025Y-96775469D01*
X127473823Y-96717621D01*
X127470024Y-96659773D01*
X127459816Y-96615936D01*
X127444416Y-96583043D01*
X127422145Y-96557219D01*
X127394578Y-96541745D01*
X127360000Y-96536295D01*
X127325448Y-96541728D01*
X127298065Y-96557119D01*
X127276096Y-96582750D01*
X127260983Y-96615424D01*
X127250918Y-96659320D01*
X127247159Y-96717621D01*
X127070205Y-96717621D01*
X127074557Y-96646956D01*
X127086946Y-96585694D01*
X127106738Y-96532338D01*
X127133806Y-96485688D01*
X127168441Y-96445702D01*
X127206500Y-96417995D01*
X127248746Y-96401334D01*
X127296399Y-96395612D01*
X127333171Y-96398550D01*
X127365962Y-96407020D01*
X127395390Y-96420720D01*
X127422437Y-96439878D01*
X127448535Y-96465606D01*
X127473823Y-96498780D01*
X127473823Y-96173644D01*
X127645006Y-96173644D01*
X127645006Y-97024000D01*
G37*
G36*
X126944030Y-96173644D02*
G01*
X126772846Y-96173644D01*
X126772846Y-97024000D01*
X126944030Y-97024000D01*
X126944030Y-96173644D01*
G37*
G36*
X126613972Y-96786302D02*
G01*
X126613972Y-96411243D01*
X126441805Y-96411243D01*
X126441805Y-96472646D01*
X126442318Y-96597991D01*
X126442788Y-96698570D01*
X126439454Y-96805256D01*
X126434404Y-96835352D01*
X126427957Y-96852688D01*
X126415785Y-96869709D01*
X126400473Y-96882290D01*
X126382567Y-96890006D01*
X126361492Y-96892695D01*
X126327858Y-96887291D01*
X126300307Y-96871762D01*
X126277332Y-96845556D01*
X126261130Y-96812304D01*
X126250592Y-96769466D01*
X126246728Y-96714495D01*
X126246728Y-96411243D01*
X126075545Y-96411243D01*
X126075545Y-97024000D01*
X126246728Y-97024000D01*
X126246728Y-96936463D01*
X126274086Y-96969785D01*
X126301377Y-96995495D01*
X126328751Y-97014523D01*
X126358274Y-97028362D01*
X126389924Y-97036764D01*
X126424153Y-97039631D01*
X126469993Y-97035124D01*
X126507876Y-97022481D01*
X126539333Y-97002417D01*
X126565459Y-96974809D01*
X126585494Y-96941277D01*
X126600628Y-96899848D01*
X126610427Y-96848866D01*
X126613972Y-96786302D01*
G37*
G36*
X125710065Y-96399484D02*
G01*
X125758981Y-96410498D01*
X125801675Y-96427995D01*
X125839024Y-96451670D01*
X125871706Y-96481585D01*
X125899557Y-96517559D01*
X125921361Y-96558342D01*
X125937333Y-96604621D01*
X125947322Y-96657333D01*
X125950822Y-96717621D01*
X125947230Y-96779104D01*
X125937011Y-96832458D01*
X125920723Y-96878931D01*
X125898542Y-96919539D01*
X125870252Y-96955025D01*
X125837202Y-96984191D01*
X125798959Y-97007458D01*
X125754746Y-97024781D01*
X125703580Y-97035754D01*
X125644316Y-97039631D01*
X125583733Y-97036094D01*
X125522884Y-97025416D01*
X125462545Y-97007932D01*
X125401410Y-96983357D01*
X125401410Y-96833295D01*
X125461480Y-96866829D01*
X125517841Y-96889715D01*
X125574447Y-96903772D01*
X125628544Y-96908326D01*
X125672240Y-96904013D01*
X125706300Y-96892213D01*
X125732793Y-96873937D01*
X125753587Y-96848241D01*
X125768195Y-96814566D01*
X125776304Y-96770769D01*
X125376064Y-96770769D01*
X125376064Y-96714495D01*
X125379389Y-96656219D01*
X125380756Y-96648842D01*
X125552035Y-96648842D01*
X125774381Y-96648842D01*
X125766216Y-96611047D01*
X125753223Y-96581397D01*
X125735656Y-96558326D01*
X125713515Y-96541244D01*
X125686966Y-96530663D01*
X125654830Y-96526916D01*
X125625473Y-96530842D01*
X125601073Y-96542042D01*
X125580501Y-96560475D01*
X125564964Y-96584618D01*
X125555410Y-96613618D01*
X125552035Y-96648842D01*
X125380756Y-96648842D01*
X125388915Y-96604794D01*
X125404197Y-96559214D01*
X125425108Y-96518644D01*
X125451846Y-96482464D01*
X125483461Y-96451779D01*
X125518852Y-96427809D01*
X125558549Y-96410310D01*
X125603271Y-96399413D01*
X125653890Y-96395612D01*
X125710065Y-96399484D01*
G37*
G36*
X125225097Y-96208033D02*
G01*
X124767496Y-96208033D01*
X124767496Y-96361222D01*
X125078319Y-96361222D01*
X125078319Y-96487447D01*
X125036004Y-96477335D01*
X124991766Y-96473769D01*
X124926362Y-96479070D01*
X124871886Y-96493903D01*
X124826453Y-96517181D01*
X124788568Y-96548556D01*
X124757412Y-96588547D01*
X124734906Y-96635588D01*
X124720838Y-96691084D01*
X124715863Y-96756993D01*
X124719293Y-96809674D01*
X124729116Y-96855826D01*
X124744933Y-96896519D01*
X124766760Y-96932590D01*
X124795022Y-96964600D01*
X124835926Y-96995920D01*
X124885047Y-97019311D01*
X124943988Y-97034275D01*
X125014719Y-97039631D01*
X125075130Y-97036333D01*
X125134953Y-97026442D01*
X125194003Y-97009986D01*
X125253307Y-96986484D01*
X125253307Y-96820789D01*
X125195023Y-96854343D01*
X125142604Y-96877063D01*
X125090694Y-96891328D01*
X125043869Y-96895821D01*
X125000378Y-96891197D01*
X124965883Y-96878411D01*
X124938466Y-96858305D01*
X124917258Y-96830678D01*
X124904451Y-96797394D01*
X124899955Y-96756700D01*
X124904470Y-96715658D01*
X124917292Y-96682314D01*
X124938466Y-96654851D01*
X124965867Y-96634885D01*
X125000361Y-96622177D01*
X125043869Y-96617579D01*
X125084090Y-96620342D01*
X125128542Y-96629059D01*
X125173925Y-96643183D01*
X125225097Y-96664474D01*
X125225097Y-96208033D01*
G37*
G36*
X124603066Y-96696226D02*
G01*
X124603066Y-96877063D01*
X124286515Y-96877063D01*
X124286515Y-97024000D01*
X124112424Y-97024000D01*
X124112424Y-96877063D01*
X124010569Y-96877063D01*
X124010569Y-96723874D01*
X124112424Y-96723874D01*
X124286515Y-96723874D01*
X124488302Y-96723874D01*
X124286515Y-96381641D01*
X124286515Y-96723874D01*
X124112424Y-96723874D01*
X124112424Y-96208033D01*
X124317118Y-96208033D01*
X124603066Y-96696226D01*
G37*
G36*
X123882983Y-96173644D02*
G01*
X123711799Y-96173644D01*
X123711799Y-97024000D01*
X123882983Y-97024000D01*
X123882983Y-96173644D01*
G37*
G36*
X149015337Y-113662000D02*
G01*
X148830305Y-113662000D01*
X148784870Y-113511937D01*
X148496999Y-113511937D01*
X148452034Y-113662000D01*
X148267002Y-113662000D01*
X148364254Y-113361874D01*
X148543375Y-113361874D01*
X148738964Y-113361874D01*
X148640913Y-113037275D01*
X148543375Y-113361874D01*
X148364254Y-113361874D01*
X148531407Y-112846033D01*
X148750890Y-112846033D01*
X149015337Y-113662000D01*
G37*
G36*
X147979558Y-113508810D02*
G01*
X147665401Y-113508810D01*
X147665401Y-113662000D01*
X148184252Y-113662000D01*
X148184252Y-113508810D01*
X147923608Y-113243221D01*
X147892226Y-113206185D01*
X147872018Y-113172830D01*
X147859390Y-113137506D01*
X147855263Y-113101364D01*
X147859187Y-113064876D01*
X147870406Y-113034619D01*
X147888987Y-113009138D01*
X147913082Y-112990212D01*
X147942477Y-112978415D01*
X147978618Y-112974212D01*
X148022298Y-112979030D01*
X148072823Y-112994679D01*
X148124123Y-113019176D01*
X148182329Y-113055496D01*
X148182329Y-112877296D01*
X148120098Y-112856998D01*
X148059444Y-112842418D01*
X147998908Y-112833366D01*
X147940364Y-112830401D01*
X147875627Y-112835064D01*
X147822041Y-112848037D01*
X147777753Y-112868192D01*
X147741226Y-112894979D01*
X147710368Y-112930132D01*
X147688458Y-112971011D01*
X147674936Y-113018753D01*
X147670188Y-113075084D01*
X147673546Y-113118661D01*
X147683531Y-113159951D01*
X147700322Y-113199599D01*
X147723301Y-113236255D01*
X147763508Y-113286548D01*
X147827053Y-113354205D01*
X147979558Y-113508810D01*
G37*
G36*
X161117248Y-96138992D02*
G01*
X161170505Y-96154470D01*
X161216142Y-96179142D01*
X161255379Y-96212956D01*
X161287752Y-96255346D01*
X161310905Y-96303832D01*
X161325214Y-96359611D01*
X161330221Y-96424372D01*
X161325737Y-96482969D01*
X161312901Y-96533675D01*
X161292108Y-96577963D01*
X161263030Y-96616884D01*
X161227674Y-96648250D01*
X161187149Y-96670937D01*
X161140470Y-96685057D01*
X161086332Y-96690011D01*
X161044368Y-96686490D01*
X161006532Y-96676284D01*
X160970946Y-96659184D01*
X160937161Y-96635007D01*
X160944226Y-96685920D01*
X160955901Y-96727462D01*
X160971620Y-96761204D01*
X160991187Y-96788392D01*
X161015375Y-96810264D01*
X161044147Y-96826314D01*
X161078415Y-96836462D01*
X161119372Y-96840073D01*
X161158543Y-96837182D01*
X161198745Y-96828350D01*
X161239018Y-96814052D01*
X161282905Y-96793179D01*
X161282905Y-96943242D01*
X161238446Y-96958286D01*
X161193017Y-96969034D01*
X161146489Y-96975441D01*
X161096890Y-96977631D01*
X161034635Y-96972594D01*
X160980056Y-96958179D01*
X160931947Y-96935025D01*
X160889336Y-96903212D01*
X160851548Y-96862251D01*
X160820648Y-96814994D01*
X160796032Y-96760776D01*
X160777748Y-96698577D01*
X160766199Y-96627123D01*
X160762130Y-96544930D01*
X160765716Y-96464059D01*
X160773784Y-96408643D01*
X160958660Y-96408643D01*
X160961853Y-96455954D01*
X160970352Y-96490956D01*
X160983066Y-96516501D01*
X161001402Y-96536047D01*
X161025069Y-96548111D01*
X161055771Y-96552453D01*
X161086447Y-96548114D01*
X161110117Y-96536051D01*
X161128476Y-96516501D01*
X161141167Y-96490960D01*
X161149652Y-96455959D01*
X161152840Y-96408643D01*
X161149665Y-96361701D01*
X161141191Y-96326762D01*
X161128476Y-96301078D01*
X161110096Y-96281353D01*
X161086425Y-96269200D01*
X161055771Y-96264833D01*
X161025090Y-96269203D01*
X161001422Y-96281357D01*
X160983066Y-96301078D01*
X160970328Y-96326766D01*
X160961840Y-96361705D01*
X160958660Y-96408643D01*
X160773784Y-96408643D01*
X160775814Y-96394703D01*
X160791630Y-96335296D01*
X160812645Y-96284458D01*
X160838639Y-96241043D01*
X160871291Y-96202800D01*
X160908457Y-96173186D01*
X160950762Y-96151653D01*
X160999142Y-96138230D01*
X161054788Y-96133528D01*
X161117248Y-96138992D01*
G37*
G36*
X149374068Y-96146033D02*
G01*
X149189976Y-96146033D01*
X149189976Y-96636082D01*
X149185983Y-96703375D01*
X149175716Y-96749844D01*
X149161039Y-96780918D01*
X149138996Y-96804157D01*
X149108493Y-96818961D01*
X149066621Y-96824442D01*
X149033727Y-96821278D01*
X149007843Y-96812593D01*
X148987512Y-96799125D01*
X148971690Y-96780918D01*
X148957013Y-96749844D01*
X148946746Y-96703375D01*
X148942753Y-96636082D01*
X148942753Y-96146033D01*
X148758619Y-96146033D01*
X148758619Y-96636082D01*
X148762218Y-96707044D01*
X148772282Y-96766625D01*
X148787962Y-96816577D01*
X148808780Y-96858388D01*
X148834658Y-96893221D01*
X148865758Y-96921740D01*
X148903276Y-96944838D01*
X148948304Y-96962327D01*
X149002209Y-96973593D01*
X149066578Y-96977631D01*
X149130728Y-96973598D01*
X149184488Y-96962341D01*
X149229435Y-96944859D01*
X149266921Y-96921758D01*
X149298029Y-96893221D01*
X149323907Y-96858388D01*
X149344725Y-96816577D01*
X149360405Y-96766625D01*
X149370469Y-96707044D01*
X149374068Y-96636082D01*
X149374068Y-96146033D01*
G37*
G36*
X148081877Y-96171043D02*
G01*
X148081877Y-96342990D01*
X148140778Y-96316851D01*
X148196640Y-96298587D01*
X148252001Y-96287203D01*
X148302300Y-96283591D01*
X148346373Y-96286405D01*
X148377919Y-96293721D01*
X148399881Y-96304205D01*
X148417444Y-96320501D01*
X148427787Y-96341315D01*
X148431425Y-96368147D01*
X148428962Y-96388618D01*
X148421927Y-96405203D01*
X148410139Y-96418852D01*
X148383989Y-96434147D01*
X148332904Y-96450018D01*
X148254514Y-96468043D01*
X148193468Y-96485538D01*
X148146538Y-96505662D01*
X148111190Y-96527724D01*
X148085253Y-96551330D01*
X148064019Y-96580905D01*
X148048430Y-96616385D01*
X148038554Y-96658967D01*
X148035031Y-96710234D01*
X148040000Y-96777417D01*
X148053809Y-96831813D01*
X148075498Y-96875948D01*
X148105086Y-96911637D01*
X148141072Y-96938417D01*
X148187122Y-96959050D01*
X148245532Y-96972647D01*
X148319055Y-96977631D01*
X148386890Y-96973940D01*
X148455361Y-96962781D01*
X148523320Y-96944529D01*
X148592094Y-96918866D01*
X148592094Y-96740032D01*
X148523537Y-96777403D01*
X148459891Y-96803193D01*
X148396303Y-96819280D01*
X148336750Y-96824442D01*
X148296842Y-96821431D01*
X148266790Y-96813393D01*
X148244469Y-96801434D01*
X148226490Y-96783634D01*
X148216030Y-96762109D01*
X148212412Y-96735586D01*
X148215013Y-96711111D01*
X148222302Y-96691763D01*
X148234168Y-96676333D01*
X148262022Y-96658678D01*
X148320978Y-96639013D01*
X148392230Y-96620988D01*
X148446455Y-96604359D01*
X148489454Y-96584566D01*
X148523065Y-96562183D01*
X148548839Y-96537505D01*
X148569975Y-96507265D01*
X148585316Y-96472126D01*
X148594909Y-96431141D01*
X148598292Y-96383046D01*
X148593579Y-96323230D01*
X148580280Y-96273285D01*
X148558996Y-96231289D01*
X148529434Y-96195907D01*
X148493895Y-96168828D01*
X148450234Y-96148388D01*
X148396779Y-96135172D01*
X148331493Y-96130401D01*
X148272333Y-96132901D01*
X148210532Y-96140562D01*
X148148022Y-96153085D01*
X148081877Y-96171043D01*
G37*
G36*
X147872951Y-96962000D02*
G01*
X147567385Y-96962000D01*
X147494113Y-96957571D01*
X147436043Y-96945528D01*
X147390471Y-96927386D01*
X147355083Y-96904114D01*
X147325091Y-96872172D01*
X147303556Y-96833274D01*
X147290057Y-96785993D01*
X147285242Y-96728161D01*
X147286555Y-96711064D01*
X147469334Y-96711064D01*
X147472782Y-96745501D01*
X147482254Y-96771669D01*
X147497330Y-96791567D01*
X147517319Y-96805520D01*
X147544416Y-96814745D01*
X147580764Y-96818189D01*
X147688860Y-96818189D01*
X147688860Y-96605600D01*
X147580764Y-96605600D01*
X147544071Y-96609032D01*
X147516921Y-96618191D01*
X147497074Y-96631979D01*
X147482111Y-96651650D01*
X147472737Y-96677372D01*
X147469334Y-96711064D01*
X147286555Y-96711064D01*
X147289097Y-96677969D01*
X147300074Y-96635083D01*
X147317769Y-96598127D01*
X147342143Y-96566782D01*
X147372403Y-96542651D01*
X147409580Y-96525440D01*
X147380489Y-96509121D01*
X147357174Y-96488491D01*
X147338841Y-96463402D01*
X147325559Y-96434357D01*
X147317322Y-96400884D01*
X147315461Y-96375817D01*
X147498527Y-96375817D01*
X147501271Y-96402953D01*
X147508857Y-96423871D01*
X147521010Y-96440053D01*
X147537093Y-96451504D01*
X147558561Y-96459008D01*
X147587004Y-96461790D01*
X147688860Y-96461790D01*
X147688860Y-96289843D01*
X147587004Y-96289843D01*
X147558583Y-96292658D01*
X147537114Y-96300257D01*
X147521010Y-96311874D01*
X147508826Y-96328190D01*
X147501254Y-96349037D01*
X147498527Y-96375817D01*
X147315461Y-96375817D01*
X147314435Y-96361993D01*
X147319098Y-96306469D01*
X147332070Y-96261950D01*
X147352626Y-96226103D01*
X147381156Y-96197422D01*
X147414597Y-96177236D01*
X147459618Y-96161081D01*
X147519141Y-96150125D01*
X147596536Y-96146033D01*
X147872951Y-96146033D01*
X147872951Y-96962000D01*
G37*
G36*
X171695178Y-112871043D02*
G01*
X171695178Y-113042990D01*
X171754080Y-113016851D01*
X171809942Y-112998587D01*
X171865302Y-112987203D01*
X171915601Y-112983591D01*
X171959674Y-112986405D01*
X171991221Y-112993721D01*
X172013182Y-113004205D01*
X172030745Y-113020501D01*
X172041088Y-113041315D01*
X172044726Y-113068147D01*
X172042264Y-113088618D01*
X172035228Y-113105203D01*
X172023441Y-113118852D01*
X171997290Y-113134147D01*
X171946205Y-113150018D01*
X171867815Y-113168043D01*
X171806770Y-113185538D01*
X171759840Y-113205662D01*
X171724492Y-113227724D01*
X171698555Y-113251330D01*
X171677320Y-113280905D01*
X171661731Y-113316385D01*
X171651856Y-113358967D01*
X171648332Y-113410234D01*
X171653301Y-113477417D01*
X171667110Y-113531813D01*
X171688799Y-113575948D01*
X171718387Y-113611637D01*
X171754373Y-113638417D01*
X171800424Y-113659050D01*
X171858834Y-113672647D01*
X171932356Y-113677631D01*
X172000191Y-113673940D01*
X172068662Y-113662781D01*
X172136621Y-113644529D01*
X172205395Y-113618866D01*
X172205395Y-113440032D01*
X172136839Y-113477403D01*
X172073193Y-113503193D01*
X172009604Y-113519280D01*
X171950052Y-113524442D01*
X171910144Y-113521431D01*
X171880091Y-113513393D01*
X171857771Y-113501434D01*
X171839792Y-113483634D01*
X171829331Y-113462109D01*
X171825714Y-113435586D01*
X171828314Y-113411111D01*
X171835603Y-113391763D01*
X171847470Y-113376333D01*
X171875323Y-113358678D01*
X171934280Y-113339013D01*
X172005532Y-113320988D01*
X172059756Y-113304359D01*
X172102756Y-113284566D01*
X172136366Y-113262183D01*
X172162140Y-113237505D01*
X172183276Y-113207265D01*
X172198617Y-113172126D01*
X172208211Y-113131141D01*
X172211593Y-113083046D01*
X172206881Y-113023230D01*
X172193581Y-112973285D01*
X172172298Y-112931289D01*
X172142735Y-112895907D01*
X172107196Y-112868828D01*
X172063536Y-112848388D01*
X172010081Y-112835172D01*
X171944794Y-112830401D01*
X171885635Y-112832901D01*
X171823833Y-112840562D01*
X171761323Y-112853085D01*
X171695178Y-112871043D01*
G37*
G36*
X171486253Y-112846033D02*
G01*
X171302161Y-112846033D01*
X171302161Y-113155538D01*
X171030532Y-113155538D01*
X171030532Y-112846033D01*
X170846440Y-112846033D01*
X170846440Y-113662000D01*
X171030532Y-113662000D01*
X171030532Y-113314979D01*
X171302161Y-113314979D01*
X171302161Y-113662000D01*
X171486253Y-113662000D01*
X171486253Y-112846033D01*
G37*
G36*
X170666281Y-113662000D02*
G01*
X170482189Y-113662000D01*
X170482189Y-113377505D01*
X170360715Y-113377505D01*
X170291768Y-113372487D01*
X170235276Y-113358582D01*
X170189103Y-113337073D01*
X170151490Y-113308580D01*
X170120163Y-113271271D01*
X170097628Y-113227020D01*
X170083555Y-113174429D01*
X170078571Y-113111476D01*
X170268434Y-113111476D01*
X170271948Y-113146004D01*
X170281764Y-113173250D01*
X170297627Y-113194909D01*
X170318518Y-113210575D01*
X170345509Y-113220639D01*
X170380333Y-113224316D01*
X170482189Y-113224316D01*
X170482189Y-112999222D01*
X170380333Y-112999222D01*
X170345492Y-113002873D01*
X170318502Y-113012858D01*
X170297627Y-113028385D01*
X170281771Y-113049866D01*
X170271953Y-113076989D01*
X170268434Y-113111476D01*
X170078571Y-113111476D01*
X170083547Y-113048841D01*
X170097607Y-112996447D01*
X170120139Y-112952296D01*
X170151490Y-112915007D01*
X170189106Y-112886493D01*
X170235280Y-112864968D01*
X170291771Y-112851055D01*
X170360715Y-112846033D01*
X170666281Y-112846033D01*
X170666281Y-113662000D01*
G37*
G36*
X151555337Y-113662000D02*
G01*
X151370305Y-113662000D01*
X151324870Y-113511937D01*
X151036999Y-113511937D01*
X150992034Y-113662000D01*
X150807002Y-113662000D01*
X150904254Y-113361874D01*
X151083375Y-113361874D01*
X151278964Y-113361874D01*
X151180913Y-113037275D01*
X151083375Y-113361874D01*
X150904254Y-113361874D01*
X151071407Y-112846033D01*
X151290890Y-112846033D01*
X151555337Y-113662000D01*
G37*
G36*
X150345511Y-113222020D02*
G01*
X150299533Y-113240616D01*
X150263533Y-113265379D01*
X150235791Y-113296075D01*
X150215359Y-113333313D01*
X150202692Y-113377424D01*
X150198220Y-113430164D01*
X150201710Y-113477927D01*
X150211683Y-113519247D01*
X150227780Y-113555286D01*
X150250165Y-113586898D01*
X150279517Y-113614568D01*
X150320600Y-113640113D01*
X150372280Y-113659879D01*
X150436784Y-113672885D01*
X150516695Y-113677631D01*
X150571617Y-113675102D01*
X150626928Y-113667471D01*
X150681743Y-113654800D01*
X150736177Y-113636989D01*
X150736177Y-113474421D01*
X150684137Y-113500480D01*
X150633638Y-113518824D01*
X150582714Y-113530132D01*
X150533450Y-113533821D01*
X150485066Y-113530044D01*
X150448549Y-113519941D01*
X150421336Y-113504854D01*
X150399569Y-113482593D01*
X150386797Y-113455457D01*
X150382355Y-113421811D01*
X150386933Y-113387164D01*
X150400031Y-113359619D01*
X150422276Y-113337401D01*
X150450140Y-113322586D01*
X150488425Y-113312526D01*
X150540118Y-113308727D01*
X150613763Y-113308727D01*
X150613763Y-113174295D01*
X150536313Y-113174295D01*
X150490261Y-113170938D01*
X150456816Y-113162127D01*
X150433048Y-113149285D01*
X150414302Y-113129903D01*
X150403057Y-113105113D01*
X150399067Y-113073130D01*
X150402844Y-113043619D01*
X150413686Y-113019727D01*
X150432064Y-113000053D01*
X150455193Y-112986491D01*
X150485614Y-112977531D01*
X150525286Y-112974212D01*
X150569765Y-112977146D01*
X150615216Y-112986082D01*
X150660187Y-113000651D01*
X150705574Y-113021106D01*
X150705574Y-112867917D01*
X150650988Y-112851420D01*
X150597521Y-112839780D01*
X150544138Y-112832719D01*
X150492331Y-112830401D01*
X150420555Y-112834422D01*
X150363582Y-112845349D01*
X150318837Y-112861769D01*
X150284090Y-112882718D01*
X150253985Y-112912009D01*
X150232744Y-112947130D01*
X150219618Y-112989216D01*
X150214975Y-113040157D01*
X150218918Y-113086660D01*
X150230055Y-113125301D01*
X150247973Y-113157687D01*
X150272354Y-113184202D01*
X150304321Y-113205737D01*
X150345511Y-113222020D01*
G37*
G36*
X139327556Y-112846033D02*
G01*
X139142524Y-112846033D01*
X138953132Y-113448287D01*
X138764253Y-112846033D01*
X138579221Y-112846033D01*
X138843626Y-113662000D01*
X139063109Y-113662000D01*
X139327556Y-112846033D01*
G37*
G36*
X138484033Y-113662000D02*
G01*
X138289897Y-113662000D01*
X138181723Y-113658354D01*
X138103513Y-113648880D01*
X138048915Y-113635524D01*
X137997422Y-113613490D01*
X137951737Y-113583579D01*
X137911155Y-113545593D01*
X137880381Y-113506640D01*
X137855629Y-113464239D01*
X137836570Y-113418001D01*
X137823314Y-113368954D01*
X137815043Y-113314286D01*
X137812164Y-113253186D01*
X138002026Y-113253186D01*
X138006230Y-113313771D01*
X138017972Y-113363640D01*
X138036447Y-113404788D01*
X138061566Y-113438713D01*
X138092704Y-113465337D01*
X138130787Y-113485209D01*
X138177260Y-113497966D01*
X138233947Y-113502558D01*
X138299941Y-113502558D01*
X138299941Y-113005475D01*
X138233947Y-113005475D01*
X138176957Y-113010045D01*
X138130374Y-113022724D01*
X138092333Y-113042434D01*
X138061353Y-113068782D01*
X138036330Y-113102417D01*
X138017923Y-113143277D01*
X138006219Y-113192865D01*
X138002026Y-113253186D01*
X137812164Y-113253186D01*
X137815034Y-113192846D01*
X137823297Y-113138637D01*
X137836570Y-113089787D01*
X137855618Y-113043706D01*
X137880368Y-113001384D01*
X137911155Y-112962439D01*
X137951402Y-112924436D01*
X137996677Y-112894548D01*
X138047675Y-112872558D01*
X138101877Y-112859216D01*
X138180376Y-112849706D01*
X138289897Y-112846033D01*
X138484033Y-112846033D01*
X138484033Y-113662000D01*
G37*
G36*
X137670900Y-113662000D02*
G01*
X137476763Y-113662000D01*
X137368590Y-113658354D01*
X137290379Y-113648880D01*
X137235781Y-113635524D01*
X137184288Y-113613490D01*
X137138604Y-113583579D01*
X137098022Y-113545593D01*
X137067248Y-113506640D01*
X137042496Y-113464239D01*
X137023436Y-113418001D01*
X137010181Y-113368954D01*
X137001909Y-113314286D01*
X136999031Y-113253186D01*
X137188893Y-113253186D01*
X137193097Y-113313771D01*
X137204839Y-113363640D01*
X137223314Y-113404788D01*
X137248433Y-113438713D01*
X137279571Y-113465337D01*
X137317654Y-113485209D01*
X137364126Y-113497966D01*
X137420813Y-113502558D01*
X137486808Y-113502558D01*
X137486808Y-113005475D01*
X137420813Y-113005475D01*
X137363824Y-113010045D01*
X137317241Y-113022724D01*
X137279200Y-113042434D01*
X137248219Y-113068782D01*
X137223197Y-113102417D01*
X137204790Y-113143277D01*
X137193086Y-113192865D01*
X137188893Y-113253186D01*
X136999031Y-113253186D01*
X137001901Y-113192846D01*
X137010164Y-113138637D01*
X137023436Y-113089787D01*
X137042485Y-113043706D01*
X137067235Y-113001384D01*
X137098022Y-112962439D01*
X137138269Y-112924436D01*
X137183543Y-112894548D01*
X137234542Y-112872558D01*
X137288744Y-112859216D01*
X137367242Y-112849706D01*
X137476763Y-112846033D01*
X137670900Y-112846033D01*
X137670900Y-113662000D01*
G37*
G36*
X169326789Y-112846033D02*
G01*
X168668811Y-112846033D01*
X168668811Y-113005475D01*
X168905519Y-113005475D01*
X168905519Y-113662000D01*
X169089611Y-113662000D01*
X169089611Y-113005475D01*
X169326789Y-113005475D01*
X169326789Y-112846033D01*
G37*
G36*
X168175691Y-113245565D02*
G01*
X167927998Y-113662000D01*
X168119741Y-113662000D01*
X168286608Y-113383270D01*
X168452064Y-113662000D01*
X168644790Y-113662000D01*
X168397097Y-113245565D01*
X168635216Y-112846033D01*
X168442960Y-112846033D01*
X168286608Y-113108936D01*
X168130726Y-112846033D01*
X167937530Y-112846033D01*
X168175691Y-113245565D01*
G37*
G36*
X156635337Y-113662000D02*
G01*
X156450305Y-113662000D01*
X156404870Y-113511937D01*
X156116999Y-113511937D01*
X156072034Y-113662000D01*
X155887002Y-113662000D01*
X155984254Y-113361874D01*
X156163375Y-113361874D01*
X156358964Y-113361874D01*
X156260913Y-113037275D01*
X156163375Y-113361874D01*
X155984254Y-113361874D01*
X156151407Y-112846033D01*
X156370890Y-112846033D01*
X156635337Y-113662000D01*
G37*
G36*
X155777923Y-112846033D02*
G01*
X155320322Y-112846033D01*
X155320322Y-112999222D01*
X155631145Y-112999222D01*
X155631145Y-113125447D01*
X155588830Y-113115335D01*
X155544592Y-113111769D01*
X155479187Y-113117070D01*
X155424712Y-113131903D01*
X155379279Y-113155181D01*
X155341394Y-113186556D01*
X155310237Y-113226547D01*
X155287731Y-113273588D01*
X155273663Y-113329084D01*
X155268689Y-113394993D01*
X155272118Y-113447674D01*
X155281941Y-113493826D01*
X155297759Y-113534519D01*
X155319586Y-113570590D01*
X155347848Y-113602600D01*
X155388752Y-113633920D01*
X155437872Y-113657311D01*
X155496813Y-113672275D01*
X155567544Y-113677631D01*
X155627956Y-113674333D01*
X155687779Y-113664442D01*
X155746829Y-113647986D01*
X155806133Y-113624484D01*
X155806133Y-113458789D01*
X155747849Y-113492343D01*
X155695430Y-113515063D01*
X155643520Y-113529328D01*
X155596695Y-113533821D01*
X155553203Y-113529197D01*
X155518709Y-113516411D01*
X155491292Y-113496305D01*
X155470083Y-113468678D01*
X155457277Y-113435394D01*
X155452781Y-113394700D01*
X155457295Y-113353658D01*
X155470118Y-113320314D01*
X155491292Y-113292851D01*
X155518693Y-113272885D01*
X155553187Y-113260177D01*
X155596695Y-113255579D01*
X155636916Y-113258342D01*
X155681368Y-113267059D01*
X155726750Y-113281183D01*
X155777923Y-113302474D01*
X155777923Y-112846033D01*
G37*
G36*
X153987064Y-96815063D02*
G01*
X153824471Y-96815063D01*
X153824471Y-96289843D01*
X153991381Y-96330485D01*
X153991381Y-96186675D01*
X153825455Y-96146033D01*
X153650424Y-96146033D01*
X153650424Y-96815063D01*
X153487832Y-96815063D01*
X153487832Y-96962000D01*
X153987064Y-96962000D01*
X153987064Y-96815063D01*
G37*
G36*
X153137856Y-96808810D02*
G01*
X152823699Y-96808810D01*
X152823699Y-96962000D01*
X153342550Y-96962000D01*
X153342550Y-96808810D01*
X153081906Y-96543221D01*
X153050523Y-96506185D01*
X153030316Y-96472830D01*
X153017688Y-96437506D01*
X153013561Y-96401364D01*
X153017485Y-96364876D01*
X153028703Y-96334619D01*
X153047285Y-96309138D01*
X153071379Y-96290212D01*
X153100775Y-96278415D01*
X153136916Y-96274212D01*
X153180595Y-96279030D01*
X153231120Y-96294679D01*
X153282421Y-96319176D01*
X153340626Y-96355496D01*
X153340626Y-96177296D01*
X153278396Y-96156998D01*
X153217742Y-96142418D01*
X153157205Y-96133366D01*
X153098661Y-96130401D01*
X153033924Y-96135064D01*
X152980339Y-96148037D01*
X152936050Y-96168192D01*
X152899524Y-96194979D01*
X152868666Y-96230132D01*
X152846756Y-96271011D01*
X152833234Y-96318753D01*
X152828486Y-96375084D01*
X152831844Y-96418661D01*
X152841829Y-96459951D01*
X152858619Y-96499599D01*
X152881598Y-96536255D01*
X152921805Y-96586548D01*
X152985351Y-96654205D01*
X153137856Y-96808810D01*
G37*
%TO.C,JP1*%
D11*
X151860000Y-105630000D02*
X151860000Y-107030000D01*
X152560000Y-107730000D02*
X153160000Y-107730000D01*
X153160000Y-104930000D02*
X152560000Y-104930000D01*
X153860000Y-107030000D02*
X153860000Y-105630000D01*
X151860000Y-105630000D02*
G75*
G02*
X152560000Y-104930000I700000J0D01*
G01*
X152560000Y-107730000D02*
G75*
G02*
X151860000Y-107030000I-1J699999D01*
G01*
X153160000Y-104930000D02*
G75*
G02*
X153860000Y-105630000I0J-700000D01*
G01*
X153860000Y-107030000D02*
G75*
G02*
X153160000Y-107730000I-699999J-1D01*
G01*
%TO.C,TP12*%
X137650000Y-102380000D02*
G75*
G02*
X135750000Y-102380000I-950000J0D01*
G01*
X135750000Y-102380000D02*
G75*
G02*
X137650000Y-102380000I950000J0D01*
G01*
%TO.C,TP9*%
X140050000Y-99980000D02*
G75*
G02*
X138150000Y-99980000I-950000J0D01*
G01*
X138150000Y-99980000D02*
G75*
G02*
X140050000Y-99980000I950000J0D01*
G01*
%TO.C,TP6*%
X123250000Y-108580000D02*
G75*
G02*
X121350000Y-108580000I-950000J0D01*
G01*
X121350000Y-108580000D02*
G75*
G02*
X123250000Y-108580000I950000J0D01*
G01*
%TO.C,TP8*%
X123350000Y-103780000D02*
G75*
G02*
X121450000Y-103780000I-950000J0D01*
G01*
X121450000Y-103780000D02*
G75*
G02*
X123350000Y-103780000I950000J0D01*
G01*
%TO.C,TP1*%
X171560000Y-102480000D02*
G75*
G02*
X169160000Y-102480000I-1200000J0D01*
G01*
X169160000Y-102480000D02*
G75*
G02*
X171560000Y-102480000I1200000J0D01*
G01*
%TO.C,TP4*%
X166710000Y-107480000D02*
G75*
G02*
X164310000Y-107480000I-1200000J0D01*
G01*
X164310000Y-107480000D02*
G75*
G02*
X166710000Y-107480000I1200000J0D01*
G01*
%TO.C,TP11*%
X140050000Y-102380000D02*
G75*
G02*
X138150000Y-102380000I-950000J0D01*
G01*
X138150000Y-102380000D02*
G75*
G02*
X140050000Y-102380000I950000J0D01*
G01*
%TO.C,TP5*%
X123250000Y-101380000D02*
G75*
G02*
X121350000Y-101380000I-950000J0D01*
G01*
X121350000Y-101380000D02*
G75*
G02*
X123250000Y-101380000I950000J0D01*
G01*
%TO.C,TP10*%
X137650000Y-99980000D02*
G75*
G02*
X135750000Y-99980000I-950000J0D01*
G01*
X135750000Y-99980000D02*
G75*
G02*
X137650000Y-99980000I950000J0D01*
G01*
%TO.C,TP7*%
X123350000Y-106180000D02*
G75*
G02*
X121450000Y-106180000I-950000J0D01*
G01*
X121450000Y-106180000D02*
G75*
G02*
X123350000Y-106180000I950000J0D01*
G01*
%TO.C,TP3*%
X171560000Y-107480000D02*
G75*
G02*
X169160000Y-107480000I-1200000J0D01*
G01*
X169160000Y-107480000D02*
G75*
G02*
X171560000Y-107480000I1200000J0D01*
G01*
%TO.C,J8*%
X127340000Y-106242500D02*
X127340000Y-106877500D01*
X127340000Y-106877500D02*
X127975000Y-106877500D01*
%TO.C,TP2*%
X166560000Y-102480000D02*
G75*
G02*
X164160000Y-102480000I-1200000J0D01*
G01*
X164160000Y-102480000D02*
G75*
G02*
X166560000Y-102480000I1200000J0D01*
G01*
%TD*%
M02*
