%TF.GenerationSoftware,KiCad,Pcbnew,10.0.6*%
%TF.CreationDate,2026-10-07T19:28:39+00:00*%
%TF.ProjectId,RoyalBlue54L-NFC-Antenna,526f7961-6c42-46c7-9565-35344c2d4e46,rev?*%
%TF.SameCoordinates,Original*%
%TF.FileFunction,Profile,NP*%
%FSLAX46Y46*%
G04 Gerber Fmt 4.6, Leading zero omitted, Abs format (unit mm)*
G04 Created by KiCad (PCBNEW 10.0.6) date 2026-10-07 19:28:39*
%MOMM*%
%LPD*%
G01*
G04 APERTURE LIST*
%TA.AperFunction,Profile*%
%ADD10C,0.050000*%
%TD*%
G04 APERTURE END LIST*
D10*
X157449710Y-99108195D02*
G75*
G02*
X154949705Y-96608195I-10J2499995D01*
G01*
X162949710Y-124608195D02*
G75*
G02*
X160449710Y-127108210I-2500010J-5D01*
G01*
X162949710Y-101608195D02*
X162949710Y-124608195D01*
X139949710Y-101608195D02*
G75*
G02*
X142449710Y-99108210I2499990J-5D01*
G01*
X157449710Y-99108195D02*
X160449710Y-99108195D01*
X147949710Y-71060695D02*
G75*
G02*
X148949710Y-70060710I999990J-5D01*
G01*
X142449710Y-127108195D02*
G75*
G02*
X139949705Y-124608195I-10J2499995D01*
G01*
X149952210Y-69058195D02*
G75*
G02*
X148949710Y-70060710I-1002510J-5D01*
G01*
X142449710Y-127108195D02*
X160449710Y-127108195D01*
X142449710Y-99108195D02*
X145449710Y-99108195D01*
X154949710Y-71060695D02*
X154949710Y-96608195D01*
X160449710Y-99108195D02*
G75*
G02*
X162949705Y-101608195I-10J-2500005D01*
G01*
X153949710Y-70060695D02*
G75*
G02*
X154949705Y-71060695I-10J-1000005D01*
G01*
X147949710Y-71060695D02*
X147949710Y-96608195D01*
X147949710Y-96608195D02*
G75*
G02*
X145449710Y-99108210I-2500010J-5D01*
G01*
X139949710Y-101608195D02*
X139949710Y-124608195D01*
X153949710Y-70060695D02*
G75*
G02*
X152947205Y-69058195I-10J1002495D01*
G01*
%TO.C,J1*%
X149949710Y-66760695D02*
X149949710Y-69060695D01*
X150149710Y-66560695D02*
X152749710Y-66560695D01*
X152949710Y-66760695D02*
X152949710Y-69060695D01*
X149949710Y-66760695D02*
G75*
G02*
X150149710Y-66560695I200001J-1D01*
G01*
X152749710Y-66560695D02*
G75*
G02*
X152949710Y-66760695I0J-200000D01*
G01*
%TD*%
M02*
